ISO-10303-21;
HEADER;
/* Generated by software containing ST-Developer
 * from STEP Tools, Inc. (www.steptools.com) 
 */

FILE_DESCRIPTION(
/* description */ (''),
/* implementation_level */ '2;1');

FILE_NAME(
/* name */ 'BottomPart.step',
/* time_stamp */ '2026-08-16T19:50:52+01:00',
/* author */ (''),
/* organization */ (''),
/* preprocessor_version */ 'ST-DEVELOPER v20.1',
/* originating_system */ 'Autodesk Translation Framework v15.8.0.0',
/* authorisation */ '');

FILE_SCHEMA (('AUTOMOTIVE_DESIGN { 1 0 10303 214 3 1 1 }'));
ENDSEC;

DATA;
#10=MECHANICAL_DESIGN_GEOMETRIC_PRESENTATION_REPRESENTATION('',(#13),#743);
#11=SHAPE_REPRESENTATION_RELATIONSHIP('SRR','None',#750,#12);
#12=ADVANCED_BREP_SHAPE_REPRESENTATION('',(#14),#742);
#13=STYLED_ITEM('',(#759),#14);
#14=MANIFOLD_SOLID_BREP('Body1',#443);
#15=CYLINDRICAL_SURFACE('',#475,1.45);
#16=CYLINDRICAL_SURFACE('',#477,1.45);
#17=CYLINDRICAL_SURFACE('',#479,1.45);
#18=CYLINDRICAL_SURFACE('',#481,1.45);
#19=CYLINDRICAL_SURFACE('',#484,2.5);
#20=CYLINDRICAL_SURFACE('',#487,2.5);
#21=CYLINDRICAL_SURFACE('',#489,2.5);
#22=CYLINDRICAL_SURFACE('',#492,2.5);
#23=FACE_BOUND('',#74,.T.);
#24=FACE_BOUND('',#75,.T.);
#25=FACE_BOUND('',#76,.T.);
#26=FACE_BOUND('',#77,.T.);
#27=FACE_BOUND('',#95,.T.);
#28=FACE_BOUND('',#96,.T.);
#29=FACE_BOUND('',#97,.T.);
#30=FACE_BOUND('',#98,.T.);
#31=CIRCLE('',#462,2.5);
#32=CIRCLE('',#463,2.5);
#33=CIRCLE('',#464,2.5);
#34=CIRCLE('',#465,2.5);
#35=CIRCLE('',#466,1.45);
#36=CIRCLE('',#467,1.45);
#37=CIRCLE('',#468,1.45);
#38=CIRCLE('',#469,1.45);
#39=CIRCLE('',#476,1.45);
#40=CIRCLE('',#478,1.45);
#41=CIRCLE('',#480,1.45);
#42=CIRCLE('',#482,1.45);
#43=CIRCLE('',#485,2.5);
#44=CIRCLE('',#488,2.5);
#45=CIRCLE('',#490,2.5);
#46=CIRCLE('',#493,2.5);
#47=FACE_OUTER_BOUND('',#69,.T.);
#48=FACE_OUTER_BOUND('',#70,.T.);
#49=FACE_OUTER_BOUND('',#71,.T.);
#50=FACE_OUTER_BOUND('',#72,.T.);
#51=FACE_OUTER_BOUND('',#73,.T.);
#52=FACE_OUTER_BOUND('',#78,.T.);
#53=FACE_OUTER_BOUND('',#79,.T.);
#54=FACE_OUTER_BOUND('',#80,.T.);
#55=FACE_OUTER_BOUND('',#81,.T.);
#56=FACE_OUTER_BOUND('',#82,.T.);
#57=FACE_OUTER_BOUND('',#83,.T.);
#58=FACE_OUTER_BOUND('',#84,.T.);
#59=FACE_OUTER_BOUND('',#85,.T.);
#60=FACE_OUTER_BOUND('',#86,.T.);
#61=FACE_OUTER_BOUND('',#87,.T.);
#62=FACE_OUTER_BOUND('',#88,.T.);
#63=FACE_OUTER_BOUND('',#89,.T.);
#64=FACE_OUTER_BOUND('',#90,.T.);
#65=FACE_OUTER_BOUND('',#91,.T.);
#66=FACE_OUTER_BOUND('',#92,.T.);
#67=FACE_OUTER_BOUND('',#93,.T.);
#68=FACE_OUTER_BOUND('',#94,.T.);
#69=EDGE_LOOP('',(#287,#288,#289,#290));
#70=EDGE_LOOP('',(#291,#292,#293,#294));
#71=EDGE_LOOP('',(#295,#296,#297,#298));
#72=EDGE_LOOP('',(#299,#300,#301,#302));
#73=EDGE_LOOP('',(#303,#304,#305,#306,#307,#308,#309,#310,#311,#312,#313,
#314,#315,#316,#317,#318));
#74=EDGE_LOOP('',(#319));
#75=EDGE_LOOP('',(#320));
#76=EDGE_LOOP('',(#321));
#77=EDGE_LOOP('',(#322));
#78=EDGE_LOOP('',(#323,#324,#325,#326,#327,#328,#329,#330));
#79=EDGE_LOOP('',(#331,#332,#333,#334,#335,#336,#337,#338));
#80=EDGE_LOOP('',(#339,#340,#341,#342));
#81=EDGE_LOOP('',(#343,#344,#345,#346));
#82=EDGE_LOOP('',(#347,#348,#349,#350));
#83=EDGE_LOOP('',(#351,#352,#353,#354));
#84=EDGE_LOOP('',(#355,#356,#357,#358));
#85=EDGE_LOOP('',(#359,#360,#361,#362));
#86=EDGE_LOOP('',(#363,#364,#365,#366));
#87=EDGE_LOOP('',(#367,#368,#369,#370));
#88=EDGE_LOOP('',(#371,#372,#373,#374));
#89=EDGE_LOOP('',(#375,#376,#377,#378));
#90=EDGE_LOOP('',(#379,#380,#381,#382));
#91=EDGE_LOOP('',(#383,#384,#385,#386));
#92=EDGE_LOOP('',(#387,#388,#389,#390));
#93=EDGE_LOOP('',(#391,#392,#393,#394));
#94=EDGE_LOOP('',(#395,#396,#397,#398,#399,#400,#401,#402));
#95=EDGE_LOOP('',(#403));
#96=EDGE_LOOP('',(#404));
#97=EDGE_LOOP('',(#405));
#98=EDGE_LOOP('',(#406));
#99=LINE('',#621,#143);
#100=LINE('',#623,#144);
#101=LINE('',#625,#145);
#102=LINE('',#626,#146);
#103=LINE('',#630,#147);
#104=LINE('',#632,#148);
#105=LINE('',#634,#149);
#106=LINE('',#635,#150);
#107=LINE('',#638,#151);
#108=LINE('',#640,#152);
#109=LINE('',#641,#153);
#110=LINE('',#644,#154);
#111=LINE('',#646,#155);
#112=LINE('',#647,#156);
#113=LINE('',#650,#157);
#114=LINE('',#654,#158);
#115=LINE('',#658,#159);
#116=LINE('',#662,#160);
#117=LINE('',#665,#161);
#118=LINE('',#667,#162);
#119=LINE('',#669,#163);
#120=LINE('',#670,#164);
#121=LINE('',#680,#165);
#122=LINE('',#682,#166);
#123=LINE('',#684,#167);
#124=LINE('',#685,#168);
#125=LINE('',#688,#169);
#126=LINE('',#690,#170);
#127=LINE('',#691,#171);
#128=LINE('',#693,#172);
#129=LINE('',#695,#173);
#130=LINE('',#699,#174);
#131=LINE('',#703,#175);
#132=LINE('',#707,#176);
#133=LINE('',#711,#177);
#134=LINE('',#716,#178);
#135=LINE('',#717,#179);
#136=LINE('',#718,#180);
#137=LINE('',#722,#181);
#138=LINE('',#725,#182);
#139=LINE('',#726,#183);
#140=LINE('',#732,#184);
#141=LINE('',#735,#185);
#142=LINE('',#736,#186);
#143=VECTOR('',#499,10.);
#144=VECTOR('',#500,10.);
#145=VECTOR('',#501,10.);
#146=VECTOR('',#502,10.);
#147=VECTOR('',#505,10.);
#148=VECTOR('',#506,10.);
#149=VECTOR('',#507,10.);
#150=VECTOR('',#508,10.);
#151=VECTOR('',#511,10.);
#152=VECTOR('',#512,10.);
#153=VECTOR('',#513,10.);
#154=VECTOR('',#516,10.);
#155=VECTOR('',#517,10.);
#156=VECTOR('',#518,10.);
#157=VECTOR('',#521,10.);
#158=VECTOR('',#524,10.);
#159=VECTOR('',#527,10.);
#160=VECTOR('',#530,10.);
#161=VECTOR('',#533,10.);
#162=VECTOR('',#534,10.);
#163=VECTOR('',#535,10.);
#164=VECTOR('',#536,10.);
#165=VECTOR('',#547,10.);
#166=VECTOR('',#548,10.);
#167=VECTOR('',#549,10.);
#168=VECTOR('',#550,10.);
#169=VECTOR('',#553,10.);
#170=VECTOR('',#554,10.);
#171=VECTOR('',#555,10.);
#172=VECTOR('',#558,10.);
#173=VECTOR('',#561,10.);
#174=VECTOR('',#566,1.45);
#175=VECTOR('',#571,1.45);
#176=VECTOR('',#576,1.45);
#177=VECTOR('',#581,1.45);
#178=VECTOR('',#586,10.);
#179=VECTOR('',#587,10.);
#180=VECTOR('',#588,10.);
#181=VECTOR('',#593,10.);
#182=VECTOR('',#596,10.);
#183=VECTOR('',#597,10.);
#184=VECTOR('',#606,10.);
#185=VECTOR('',#609,10.);
#186=VECTOR('',#610,10.);
#187=VERTEX_POINT('',#619);
#188=VERTEX_POINT('',#620);
#189=VERTEX_POINT('',#622);
#190=VERTEX_POINT('',#624);
#191=VERTEX_POINT('',#628);
#192=VERTEX_POINT('',#629);
#193=VERTEX_POINT('',#631);
#194=VERTEX_POINT('',#633);
#195=VERTEX_POINT('',#637);
#196=VERTEX_POINT('',#639);
#197=VERTEX_POINT('',#643);
#198=VERTEX_POINT('',#645);
#199=VERTEX_POINT('',#649);
#200=VERTEX_POINT('',#651);
#201=VERTEX_POINT('',#653);
#202=VERTEX_POINT('',#655);
#203=VERTEX_POINT('',#657);
#204=VERTEX_POINT('',#659);
#205=VERTEX_POINT('',#661);
#206=VERTEX_POINT('',#663);
#207=VERTEX_POINT('',#666);
#208=VERTEX_POINT('',#668);
#209=VERTEX_POINT('',#671);
#210=VERTEX_POINT('',#673);
#211=VERTEX_POINT('',#675);
#212=VERTEX_POINT('',#677);
#213=VERTEX_POINT('',#681);
#214=VERTEX_POINT('',#683);
#215=VERTEX_POINT('',#687);
#216=VERTEX_POINT('',#689);
#217=VERTEX_POINT('',#698);
#218=VERTEX_POINT('',#702);
#219=VERTEX_POINT('',#706);
#220=VERTEX_POINT('',#710);
#221=VERTEX_POINT('',#714);
#222=VERTEX_POINT('',#715);
#223=VERTEX_POINT('',#720);
#224=VERTEX_POINT('',#724);
#225=VERTEX_POINT('',#730);
#226=VERTEX_POINT('',#734);
#227=EDGE_CURVE('',#187,#188,#99,.T.);
#228=EDGE_CURVE('',#187,#189,#100,.T.);
#229=EDGE_CURVE('',#190,#189,#101,.T.);
#230=EDGE_CURVE('',#188,#190,#102,.T.);
#231=EDGE_CURVE('',#191,#192,#103,.T.);
#232=EDGE_CURVE('',#193,#191,#104,.T.);
#233=EDGE_CURVE('',#194,#193,#105,.T.);
#234=EDGE_CURVE('',#192,#194,#106,.T.);
#235=EDGE_CURVE('',#189,#195,#107,.T.);
#236=EDGE_CURVE('',#195,#196,#108,.T.);
#237=EDGE_CURVE('',#190,#196,#109,.T.);
#238=EDGE_CURVE('',#197,#193,#110,.T.);
#239=EDGE_CURVE('',#198,#197,#111,.T.);
#240=EDGE_CURVE('',#198,#194,#112,.T.);
#241=EDGE_CURVE('',#191,#199,#113,.T.);
#242=EDGE_CURVE('',#199,#200,#31,.T.);
#243=EDGE_CURVE('',#200,#201,#114,.T.);
#244=EDGE_CURVE('',#201,#202,#32,.T.);
#245=EDGE_CURVE('',#202,#203,#115,.T.);
#246=EDGE_CURVE('',#203,#204,#33,.T.);
#247=EDGE_CURVE('',#204,#205,#116,.T.);
#248=EDGE_CURVE('',#205,#206,#34,.T.);
#249=EDGE_CURVE('',#206,#188,#117,.T.);
#250=EDGE_CURVE('',#196,#207,#118,.T.);
#251=EDGE_CURVE('',#207,#208,#119,.T.);
#252=EDGE_CURVE('',#208,#197,#120,.T.);
#253=EDGE_CURVE('',#209,#209,#35,.T.);
#254=EDGE_CURVE('',#210,#210,#36,.T.);
#255=EDGE_CURVE('',#211,#211,#37,.T.);
#256=EDGE_CURVE('',#212,#212,#38,.T.);
#257=EDGE_CURVE('',#192,#187,#121,.T.);
#258=EDGE_CURVE('',#213,#206,#122,.T.);
#259=EDGE_CURVE('',#213,#214,#123,.T.);
#260=EDGE_CURVE('',#214,#199,#124,.T.);
#261=EDGE_CURVE('',#195,#215,#125,.T.);
#262=EDGE_CURVE('',#216,#198,#126,.T.);
#263=EDGE_CURVE('',#215,#216,#127,.T.);
#264=EDGE_CURVE('',#216,#208,#128,.T.);
#265=EDGE_CURVE('',#215,#207,#129,.T.);
#266=EDGE_CURVE('',#209,#217,#130,.T.);
#267=EDGE_CURVE('',#217,#217,#39,.T.);
#268=EDGE_CURVE('',#210,#218,#131,.T.);
#269=EDGE_CURVE('',#218,#218,#40,.T.);
#270=EDGE_CURVE('',#211,#219,#132,.T.);
#271=EDGE_CURVE('',#219,#219,#41,.T.);
#272=EDGE_CURVE('',#212,#220,#133,.T.);
#273=EDGE_CURVE('',#220,#220,#42,.T.);
#274=EDGE_CURVE('',#221,#222,#134,.T.);
#275=EDGE_CURVE('',#222,#203,#135,.T.);
#276=EDGE_CURVE('',#221,#202,#136,.T.);
#277=EDGE_CURVE('',#223,#221,#43,.T.);
#278=EDGE_CURVE('',#223,#201,#137,.T.);
#279=EDGE_CURVE('',#224,#223,#138,.T.);
#280=EDGE_CURVE('',#224,#200,#139,.T.);
#281=EDGE_CURVE('',#214,#224,#44,.T.);
#282=EDGE_CURVE('',#225,#213,#45,.T.);
#283=EDGE_CURVE('',#225,#205,#140,.T.);
#284=EDGE_CURVE('',#226,#225,#141,.T.);
#285=EDGE_CURVE('',#226,#204,#142,.T.);
#286=EDGE_CURVE('',#222,#226,#46,.T.);
#287=ORIENTED_EDGE('',*,*,#227,.F.);
#288=ORIENTED_EDGE('',*,*,#228,.T.);
#289=ORIENTED_EDGE('',*,*,#229,.F.);
#290=ORIENTED_EDGE('',*,*,#230,.F.);
#291=ORIENTED_EDGE('',*,*,#231,.F.);
#292=ORIENTED_EDGE('',*,*,#232,.F.);
#293=ORIENTED_EDGE('',*,*,#233,.F.);
#294=ORIENTED_EDGE('',*,*,#234,.F.);
#295=ORIENTED_EDGE('',*,*,#229,.T.);
#296=ORIENTED_EDGE('',*,*,#235,.T.);
#297=ORIENTED_EDGE('',*,*,#236,.T.);
#298=ORIENTED_EDGE('',*,*,#237,.F.);
#299=ORIENTED_EDGE('',*,*,#233,.T.);
#300=ORIENTED_EDGE('',*,*,#238,.F.);
#301=ORIENTED_EDGE('',*,*,#239,.F.);
#302=ORIENTED_EDGE('',*,*,#240,.T.);
#303=ORIENTED_EDGE('',*,*,#232,.T.);
#304=ORIENTED_EDGE('',*,*,#241,.T.);
#305=ORIENTED_EDGE('',*,*,#242,.T.);
#306=ORIENTED_EDGE('',*,*,#243,.T.);
#307=ORIENTED_EDGE('',*,*,#244,.T.);
#308=ORIENTED_EDGE('',*,*,#245,.T.);
#309=ORIENTED_EDGE('',*,*,#246,.T.);
#310=ORIENTED_EDGE('',*,*,#247,.T.);
#311=ORIENTED_EDGE('',*,*,#248,.T.);
#312=ORIENTED_EDGE('',*,*,#249,.T.);
#313=ORIENTED_EDGE('',*,*,#230,.T.);
#314=ORIENTED_EDGE('',*,*,#237,.T.);
#315=ORIENTED_EDGE('',*,*,#250,.T.);
#316=ORIENTED_EDGE('',*,*,#251,.T.);
#317=ORIENTED_EDGE('',*,*,#252,.T.);
#318=ORIENTED_EDGE('',*,*,#238,.T.);
#319=ORIENTED_EDGE('',*,*,#253,.T.);
#320=ORIENTED_EDGE('',*,*,#254,.T.);
#321=ORIENTED_EDGE('',*,*,#255,.T.);
#322=ORIENTED_EDGE('',*,*,#256,.T.);
#323=ORIENTED_EDGE('',*,*,#231,.T.);
#324=ORIENTED_EDGE('',*,*,#257,.T.);
#325=ORIENTED_EDGE('',*,*,#227,.T.);
#326=ORIENTED_EDGE('',*,*,#249,.F.);
#327=ORIENTED_EDGE('',*,*,#258,.F.);
#328=ORIENTED_EDGE('',*,*,#259,.T.);
#329=ORIENTED_EDGE('',*,*,#260,.T.);
#330=ORIENTED_EDGE('',*,*,#241,.F.);
#331=ORIENTED_EDGE('',*,*,#261,.F.);
#332=ORIENTED_EDGE('',*,*,#235,.F.);
#333=ORIENTED_EDGE('',*,*,#228,.F.);
#334=ORIENTED_EDGE('',*,*,#257,.F.);
#335=ORIENTED_EDGE('',*,*,#234,.T.);
#336=ORIENTED_EDGE('',*,*,#240,.F.);
#337=ORIENTED_EDGE('',*,*,#262,.F.);
#338=ORIENTED_EDGE('',*,*,#263,.F.);
#339=ORIENTED_EDGE('',*,*,#262,.T.);
#340=ORIENTED_EDGE('',*,*,#239,.T.);
#341=ORIENTED_EDGE('',*,*,#252,.F.);
#342=ORIENTED_EDGE('',*,*,#264,.F.);
#343=ORIENTED_EDGE('',*,*,#263,.T.);
#344=ORIENTED_EDGE('',*,*,#264,.T.);
#345=ORIENTED_EDGE('',*,*,#251,.F.);
#346=ORIENTED_EDGE('',*,*,#265,.F.);
#347=ORIENTED_EDGE('',*,*,#261,.T.);
#348=ORIENTED_EDGE('',*,*,#265,.T.);
#349=ORIENTED_EDGE('',*,*,#250,.F.);
#350=ORIENTED_EDGE('',*,*,#236,.F.);
#351=ORIENTED_EDGE('',*,*,#253,.F.);
#352=ORIENTED_EDGE('',*,*,#266,.T.);
#353=ORIENTED_EDGE('',*,*,#267,.T.);
#354=ORIENTED_EDGE('',*,*,#266,.F.);
#355=ORIENTED_EDGE('',*,*,#254,.F.);
#356=ORIENTED_EDGE('',*,*,#268,.T.);
#357=ORIENTED_EDGE('',*,*,#269,.T.);
#358=ORIENTED_EDGE('',*,*,#268,.F.);
#359=ORIENTED_EDGE('',*,*,#255,.F.);
#360=ORIENTED_EDGE('',*,*,#270,.T.);
#361=ORIENTED_EDGE('',*,*,#271,.T.);
#362=ORIENTED_EDGE('',*,*,#270,.F.);
#363=ORIENTED_EDGE('',*,*,#256,.F.);
#364=ORIENTED_EDGE('',*,*,#272,.T.);
#365=ORIENTED_EDGE('',*,*,#273,.T.);
#366=ORIENTED_EDGE('',*,*,#272,.F.);
#367=ORIENTED_EDGE('',*,*,#274,.T.);
#368=ORIENTED_EDGE('',*,*,#275,.T.);
#369=ORIENTED_EDGE('',*,*,#245,.F.);
#370=ORIENTED_EDGE('',*,*,#276,.F.);
#371=ORIENTED_EDGE('',*,*,#277,.T.);
#372=ORIENTED_EDGE('',*,*,#276,.T.);
#373=ORIENTED_EDGE('',*,*,#244,.F.);
#374=ORIENTED_EDGE('',*,*,#278,.F.);
#375=ORIENTED_EDGE('',*,*,#279,.T.);
#376=ORIENTED_EDGE('',*,*,#278,.T.);
#377=ORIENTED_EDGE('',*,*,#243,.F.);
#378=ORIENTED_EDGE('',*,*,#280,.F.);
#379=ORIENTED_EDGE('',*,*,#281,.T.);
#380=ORIENTED_EDGE('',*,*,#280,.T.);
#381=ORIENTED_EDGE('',*,*,#242,.F.);
#382=ORIENTED_EDGE('',*,*,#260,.F.);
#383=ORIENTED_EDGE('',*,*,#282,.T.);
#384=ORIENTED_EDGE('',*,*,#258,.T.);
#385=ORIENTED_EDGE('',*,*,#248,.F.);
#386=ORIENTED_EDGE('',*,*,#283,.F.);
#387=ORIENTED_EDGE('',*,*,#284,.T.);
#388=ORIENTED_EDGE('',*,*,#283,.T.);
#389=ORIENTED_EDGE('',*,*,#247,.F.);
#390=ORIENTED_EDGE('',*,*,#285,.F.);
#391=ORIENTED_EDGE('',*,*,#286,.T.);
#392=ORIENTED_EDGE('',*,*,#285,.T.);
#393=ORIENTED_EDGE('',*,*,#246,.F.);
#394=ORIENTED_EDGE('',*,*,#275,.F.);
#395=ORIENTED_EDGE('',*,*,#286,.F.);
#396=ORIENTED_EDGE('',*,*,#274,.F.);
#397=ORIENTED_EDGE('',*,*,#277,.F.);
#398=ORIENTED_EDGE('',*,*,#279,.F.);
#399=ORIENTED_EDGE('',*,*,#281,.F.);
#400=ORIENTED_EDGE('',*,*,#259,.F.);
#401=ORIENTED_EDGE('',*,*,#282,.F.);
#402=ORIENTED_EDGE('',*,*,#284,.F.);
#403=ORIENTED_EDGE('',*,*,#273,.F.);
#404=ORIENTED_EDGE('',*,*,#271,.F.);
#405=ORIENTED_EDGE('',*,*,#269,.F.);
#406=ORIENTED_EDGE('',*,*,#267,.F.);
#407=PLANE('',#457);
#408=PLANE('',#458);
#409=PLANE('',#459);
#410=PLANE('',#460);
#411=PLANE('',#461);
#412=PLANE('',#470);
#413=PLANE('',#471);
#414=PLANE('',#472);
#415=PLANE('',#473);
#416=PLANE('',#474);
#417=PLANE('',#483);
#418=PLANE('',#486);
#419=PLANE('',#491);
#420=PLANE('',#494);
#421=ADVANCED_FACE('',(#47),#407,.F.);
#422=ADVANCED_FACE('',(#48),#408,.F.);
#423=ADVANCED_FACE('',(#49),#409,.T.);
#424=ADVANCED_FACE('',(#50),#410,.T.);
#425=ADVANCED_FACE('',(#51,#23,#24,#25,#26),#411,.T.);
#426=ADVANCED_FACE('',(#52),#412,.T.);
#427=ADVANCED_FACE('',(#53),#413,.T.);
#428=ADVANCED_FACE('',(#54),#414,.T.);
#429=ADVANCED_FACE('',(#55),#415,.T.);
#430=ADVANCED_FACE('',(#56),#416,.T.);
#431=ADVANCED_FACE('',(#57),#15,.F.);
#432=ADVANCED_FACE('',(#58),#16,.F.);
#433=ADVANCED_FACE('',(#59),#17,.F.);
#434=ADVANCED_FACE('',(#60),#18,.F.);
#435=ADVANCED_FACE('',(#61),#417,.T.);
#436=ADVANCED_FACE('',(#62),#19,.T.);
#437=ADVANCED_FACE('',(#63),#418,.T.);
#438=ADVANCED_FACE('',(#64),#20,.T.);
#439=ADVANCED_FACE('',(#65),#21,.T.);
#440=ADVANCED_FACE('',(#66),#419,.T.);
#441=ADVANCED_FACE('',(#67),#22,.T.);
#442=ADVANCED_FACE('',(#68,#27,#28,#29,#30),#420,.F.);
#443=CLOSED_SHELL('',(#421,#422,#423,#424,#425,#426,#427,#428,#429,#430,
#431,#432,#433,#434,#435,#436,#437,#438,#439,#440,#441,#442));
#444=DERIVED_UNIT_ELEMENT(#446,1.);
#445=DERIVED_UNIT_ELEMENT(#745,-3.);
#446=(
MASS_UNIT()
NAMED_UNIT(*)
SI_UNIT(.KILO.,.GRAM.)
);
#447=DERIVED_UNIT((#444,#445));
#448=MEASURE_REPRESENTATION_ITEM('density measure',
POSITIVE_RATIO_MEASURE(7850.),#447);
#449=PROPERTY_DEFINITION_REPRESENTATION(#454,#451);
#450=PROPERTY_DEFINITION_REPRESENTATION(#455,#452);
#451=REPRESENTATION('material name',(#453),#742);
#452=REPRESENTATION('density',(#448),#742);
#453=DESCRIPTIVE_REPRESENTATION_ITEM('Steel','Steel');
#454=PROPERTY_DEFINITION('material property','material name',#752);
#455=PROPERTY_DEFINITION('material property','density of part',#752);
#456=AXIS2_PLACEMENT_3D('',#617,#495,#496);
#457=AXIS2_PLACEMENT_3D('',#618,#497,#498);
#458=AXIS2_PLACEMENT_3D('',#627,#503,#504);
#459=AXIS2_PLACEMENT_3D('',#636,#509,#510);
#460=AXIS2_PLACEMENT_3D('',#642,#514,#515);
#461=AXIS2_PLACEMENT_3D('',#648,#519,#520);
#462=AXIS2_PLACEMENT_3D('',#652,#522,#523);
#463=AXIS2_PLACEMENT_3D('',#656,#525,#526);
#464=AXIS2_PLACEMENT_3D('',#660,#528,#529);
#465=AXIS2_PLACEMENT_3D('',#664,#531,#532);
#466=AXIS2_PLACEMENT_3D('',#672,#537,#538);
#467=AXIS2_PLACEMENT_3D('',#674,#539,#540);
#468=AXIS2_PLACEMENT_3D('',#676,#541,#542);
#469=AXIS2_PLACEMENT_3D('',#678,#543,#544);
#470=AXIS2_PLACEMENT_3D('',#679,#545,#546);
#471=AXIS2_PLACEMENT_3D('',#686,#551,#552);
#472=AXIS2_PLACEMENT_3D('',#692,#556,#557);
#473=AXIS2_PLACEMENT_3D('',#694,#559,#560);
#474=AXIS2_PLACEMENT_3D('',#696,#562,#563);
#475=AXIS2_PLACEMENT_3D('',#697,#564,#565);
#476=AXIS2_PLACEMENT_3D('',#700,#567,#568);
#477=AXIS2_PLACEMENT_3D('',#701,#569,#570);
#478=AXIS2_PLACEMENT_3D('',#704,#572,#573);
#479=AXIS2_PLACEMENT_3D('',#705,#574,#575);
#480=AXIS2_PLACEMENT_3D('',#708,#577,#578);
#481=AXIS2_PLACEMENT_3D('',#709,#579,#580);
#482=AXIS2_PLACEMENT_3D('',#712,#582,#583);
#483=AXIS2_PLACEMENT_3D('',#713,#584,#585);
#484=AXIS2_PLACEMENT_3D('',#719,#589,#590);
#485=AXIS2_PLACEMENT_3D('',#721,#591,#592);
#486=AXIS2_PLACEMENT_3D('',#723,#594,#595);
#487=AXIS2_PLACEMENT_3D('',#727,#598,#599);
#488=AXIS2_PLACEMENT_3D('',#728,#600,#601);
#489=AXIS2_PLACEMENT_3D('',#729,#602,#603);
#490=AXIS2_PLACEMENT_3D('',#731,#604,#605);
#491=AXIS2_PLACEMENT_3D('',#733,#607,#608);
#492=AXIS2_PLACEMENT_3D('',#737,#611,#612);
#493=AXIS2_PLACEMENT_3D('',#738,#613,#614);
#494=AXIS2_PLACEMENT_3D('',#739,#615,#616);
#495=DIRECTION('axis',(0.,0.,1.));
#496=DIRECTION('refdir',(1.,0.,0.));
#497=DIRECTION('center_axis',(1.,0.,0.));
#498=DIRECTION('ref_axis',(0.,0.,1.));
#499=DIRECTION('',(0.,0.,1.));
#500=DIRECTION('',(0.,-1.,0.));
#501=DIRECTION('',(0.,0.,-1.));
#502=DIRECTION('',(0.,-1.,0.));
#503=DIRECTION('center_axis',(-1.,0.,0.));
#504=DIRECTION('ref_axis',(0.,0.,-1.));
#505=DIRECTION('',(0.,0.,-1.));
#506=DIRECTION('',(0.,1.,0.));
#507=DIRECTION('',(0.,0.,1.));
#508=DIRECTION('',(0.,-1.,0.));
#509=DIRECTION('center_axis',(0.,-1.,0.));
#510=DIRECTION('ref_axis',(1.,0.,0.));
#511=DIRECTION('',(1.,0.,0.));
#512=DIRECTION('',(0.,0.,1.));
#513=DIRECTION('',(1.,0.,0.));
#514=DIRECTION('center_axis',(0.,-1.,0.));
#515=DIRECTION('ref_axis',(1.,0.,0.));
#516=DIRECTION('',(1.,0.,0.));
#517=DIRECTION('',(0.,0.,1.));
#518=DIRECTION('',(1.,0.,0.));
#519=DIRECTION('center_axis',(0.,0.,1.));
#520=DIRECTION('ref_axis',(1.,0.,0.));
#521=DIRECTION('',(-1.,0.,0.));
#522=DIRECTION('center_axis',(0.,0.,1.));
#523=DIRECTION('ref_axis',(-3.5527136788005E-15,1.,0.));
#524=DIRECTION('',(1.11161254030053E-16,-1.,0.));
#525=DIRECTION('center_axis',(0.,0.,1.));
#526=DIRECTION('ref_axis',(-1.,-8.88178419700125E-15,0.));
#527=DIRECTION('',(1.,0.,0.));
#528=DIRECTION('center_axis',(0.,0.,1.));
#529=DIRECTION('ref_axis',(3.5527136788005E-15,-1.,0.));
#530=DIRECTION('',(0.,1.,0.));
#531=DIRECTION('center_axis',(0.,0.,1.));
#532=DIRECTION('ref_axis',(1.,1.77635683940025E-15,0.));
#533=DIRECTION('',(-1.,0.,0.));
#534=DIRECTION('',(0.,-1.,0.));
#535=DIRECTION('',(-1.,0.,0.));
#536=DIRECTION('',(0.,1.,0.));
#537=DIRECTION('center_axis',(0.,0.,-1.));
#538=DIRECTION('ref_axis',(1.,0.,0.));
#539=DIRECTION('center_axis',(0.,0.,-1.));
#540=DIRECTION('ref_axis',(1.,0.,0.));
#541=DIRECTION('center_axis',(0.,0.,-1.));
#542=DIRECTION('ref_axis',(1.,0.,0.));
#543=DIRECTION('center_axis',(0.,0.,-1.));
#544=DIRECTION('ref_axis',(1.,0.,0.));
#545=DIRECTION('center_axis',(0.,1.,0.));
#546=DIRECTION('ref_axis',(-1.,0.,0.));
#547=DIRECTION('',(1.,0.,0.));
#548=DIRECTION('',(0.,0.,1.));
#549=DIRECTION('',(-1.,0.,0.));
#550=DIRECTION('',(0.,0.,1.));
#551=DIRECTION('center_axis',(0.,0.,1.));
#552=DIRECTION('ref_axis',(1.,0.,0.));
#553=DIRECTION('',(0.,-1.,0.));
#554=DIRECTION('',(0.,1.,0.));
#555=DIRECTION('',(-1.,0.,0.));
#556=DIRECTION('center_axis',(1.,0.,0.));
#557=DIRECTION('ref_axis',(0.,1.,0.));
#558=DIRECTION('',(0.,0.,1.));
#559=DIRECTION('center_axis',(0.,1.,0.));
#560=DIRECTION('ref_axis',(-1.,0.,0.));
#561=DIRECTION('',(0.,0.,1.));
#562=DIRECTION('center_axis',(-1.,0.,0.));
#563=DIRECTION('ref_axis',(0.,-1.,0.));
#564=DIRECTION('center_axis',(0.,0.,1.));
#565=DIRECTION('ref_axis',(1.,0.,0.));
#566=DIRECTION('',(0.,0.,-1.));
#567=DIRECTION('center_axis',(0.,0.,-1.));
#568=DIRECTION('ref_axis',(1.,0.,0.));
#569=DIRECTION('center_axis',(0.,0.,1.));
#570=DIRECTION('ref_axis',(1.,0.,0.));
#571=DIRECTION('',(0.,0.,-1.));
#572=DIRECTION('center_axis',(0.,0.,-1.));
#573=DIRECTION('ref_axis',(1.,0.,0.));
#574=DIRECTION('center_axis',(0.,0.,1.));
#575=DIRECTION('ref_axis',(1.,0.,0.));
#576=DIRECTION('',(0.,0.,-1.));
#577=DIRECTION('center_axis',(0.,0.,-1.));
#578=DIRECTION('ref_axis',(1.,0.,0.));
#579=DIRECTION('center_axis',(0.,0.,1.));
#580=DIRECTION('ref_axis',(1.,0.,0.));
#581=DIRECTION('',(0.,0.,-1.));
#582=DIRECTION('center_axis',(0.,0.,-1.));
#583=DIRECTION('ref_axis',(1.,0.,0.));
#584=DIRECTION('center_axis',(0.,-1.,0.));
#585=DIRECTION('ref_axis',(1.,0.,0.));
#586=DIRECTION('',(1.,0.,0.));
#587=DIRECTION('',(0.,0.,1.));
#588=DIRECTION('',(0.,0.,1.));
#589=DIRECTION('center_axis',(0.,0.,1.));
#590=DIRECTION('ref_axis',(-1.,-8.88178419700125E-15,0.));
#591=DIRECTION('center_axis',(0.,0.,1.));
#592=DIRECTION('ref_axis',(-1.,-8.88178419700125E-15,0.));
#593=DIRECTION('',(0.,0.,1.));
#594=DIRECTION('center_axis',(-1.,-1.11161254030053E-16,0.));
#595=DIRECTION('ref_axis',(1.11161254030053E-16,-1.,0.));
#596=DIRECTION('',(1.11161254030053E-16,-1.,0.));
#597=DIRECTION('',(0.,0.,1.));
#598=DIRECTION('center_axis',(0.,0.,1.));
#599=DIRECTION('ref_axis',(-3.5527136788005E-15,1.,0.));
#600=DIRECTION('center_axis',(0.,0.,1.));
#601=DIRECTION('ref_axis',(-3.5527136788005E-15,1.,0.));
#602=DIRECTION('center_axis',(0.,0.,1.));
#603=DIRECTION('ref_axis',(1.,1.77635683940025E-15,0.));
#604=DIRECTION('center_axis',(0.,0.,1.));
#605=DIRECTION('ref_axis',(1.,1.77635683940025E-15,0.));
#606=DIRECTION('',(0.,0.,1.));
#607=DIRECTION('center_axis',(1.,0.,0.));
#608=DIRECTION('ref_axis',(0.,1.,0.));
#609=DIRECTION('',(0.,1.,0.));
#610=DIRECTION('',(0.,0.,1.));
#611=DIRECTION('center_axis',(0.,0.,1.));
#612=DIRECTION('ref_axis',(3.5527136788005E-15,-1.,0.));
#613=DIRECTION('center_axis',(0.,0.,1.));
#614=DIRECTION('ref_axis',(3.5527136788005E-15,-1.,0.));
#615=DIRECTION('center_axis',(0.,0.,1.));
#616=DIRECTION('ref_axis',(1.,0.,0.));
#617=CARTESIAN_POINT('',(0.,0.,0.));
#618=CARTESIAN_POINT('Origin',(8.00000001490116,42.45,3.00000004470348));
#619=CARTESIAN_POINT('',(8.00000001490116,42.45,3.00000004470348));
#620=CARTESIAN_POINT('',(8.00000001490116,42.45,13.0000001639128));
#621=CARTESIAN_POINT('',(8.00000001490116,42.45,1.50000002235174));
#622=CARTESIAN_POINT('',(8.00000001490116,32.45,3.00000004470348));
#623=CARTESIAN_POINT('',(8.00000001490116,42.45,3.00000004470348));
#624=CARTESIAN_POINT('',(8.00000001490116,32.45,13.0000001639128));
#625=CARTESIAN_POINT('',(8.00000001490116,32.45,1.50000002235174));
#626=CARTESIAN_POINT('',(8.00000001490116,21.225,13.));
#627=CARTESIAN_POINT('Origin',(-8.,42.45,13.0000001639128));
#628=CARTESIAN_POINT('',(-8.,42.45,13.0000001639128));
#629=CARTESIAN_POINT('',(-8.,42.45,3.00000004470348));
#630=CARTESIAN_POINT('',(-8.,42.45,6.50000008195639));
#631=CARTESIAN_POINT('',(-8.,32.45,13.0000001639128));
#632=CARTESIAN_POINT('',(-8.,21.225,13.));
#633=CARTESIAN_POINT('',(-8.,32.45,3.00000004470348));
#634=CARTESIAN_POINT('',(-8.,32.45,6.50000008195639));
#635=CARTESIAN_POINT('',(-8.,42.45,3.00000004470348));
#636=CARTESIAN_POINT('Origin',(-30.2,32.45,0.));
#637=CARTESIAN_POINT('',(30.2,32.45,3.));
#638=CARTESIAN_POINT('',(-15.1,32.45,3.));
#639=CARTESIAN_POINT('',(30.2,32.45,13.));
#640=CARTESIAN_POINT('',(30.2,32.45,0.));
#641=CARTESIAN_POINT('',(30.2,32.45,13.));
#642=CARTESIAN_POINT('Origin',(-30.2,32.45,0.));
#643=CARTESIAN_POINT('',(-30.2,32.45,13.));
#644=CARTESIAN_POINT('',(30.2,32.45,13.));
#645=CARTESIAN_POINT('',(-30.2,32.45,3.));
#646=CARTESIAN_POINT('',(-30.2,32.45,0.));
#647=CARTESIAN_POINT('',(-15.1,32.45,3.));
#648=CARTESIAN_POINT('Origin',(0.,0.,13.));
#649=CARTESIAN_POINT('',(-37.7,42.45,13.));
#650=CARTESIAN_POINT('',(37.7,42.45,13.));
#651=CARTESIAN_POINT('',(-40.2,39.95,13.));
#652=CARTESIAN_POINT('Origin',(-37.7,39.95,13.));
#653=CARTESIAN_POINT('',(-40.2,-39.95,13.));
#654=CARTESIAN_POINT('',(-40.2,39.95,13.));
#655=CARTESIAN_POINT('',(-37.7,-42.45,13.));
#656=CARTESIAN_POINT('Origin',(-37.7,-39.95,13.));
#657=CARTESIAN_POINT('',(37.7,-42.45,13.));
#658=CARTESIAN_POINT('',(-37.7,-42.45,13.));
#659=CARTESIAN_POINT('',(40.2,-39.95,13.));
#660=CARTESIAN_POINT('Origin',(37.7,-39.95,13.));
#661=CARTESIAN_POINT('',(40.2,39.95,13.));
#662=CARTESIAN_POINT('',(40.2,-39.95,13.));
#663=CARTESIAN_POINT('',(37.7,42.45,13.));
#664=CARTESIAN_POINT('Origin',(37.7,39.95,13.));
#665=CARTESIAN_POINT('',(37.7,42.45,13.));
#666=CARTESIAN_POINT('',(30.2,-32.45,13.));
#667=CARTESIAN_POINT('',(30.2,-32.45,13.));
#668=CARTESIAN_POINT('',(-30.2,-32.45,13.));
#669=CARTESIAN_POINT('',(-30.2,-32.45,13.));
#670=CARTESIAN_POINT('',(-30.2,32.45,13.));
#671=CARTESIAN_POINT('',(33.75,37.45,13.));
#672=CARTESIAN_POINT('Origin',(35.2,37.45,13.));
#673=CARTESIAN_POINT('',(-36.65,37.45,13.));
#674=CARTESIAN_POINT('Origin',(-35.2,37.45,13.));
#675=CARTESIAN_POINT('',(-36.65,-37.45,13.));
#676=CARTESIAN_POINT('Origin',(-35.2,-37.45,13.));
#677=CARTESIAN_POINT('',(33.75,-37.45,13.));
#678=CARTESIAN_POINT('Origin',(35.2,-37.45,13.));
#679=CARTESIAN_POINT('Origin',(37.7,42.45,0.));
#680=CARTESIAN_POINT('',(14.85,42.45,3.00000004470348));
#681=CARTESIAN_POINT('',(37.7,42.45,0.));
#682=CARTESIAN_POINT('',(37.7,42.45,0.));
#683=CARTESIAN_POINT('',(-37.7,42.45,0.));
#684=CARTESIAN_POINT('',(37.7,42.45,0.));
#685=CARTESIAN_POINT('',(-37.7,42.45,0.));
#686=CARTESIAN_POINT('Origin',(0.,0.,3.));
#687=CARTESIAN_POINT('',(30.2,-32.45,3.));
#688=CARTESIAN_POINT('',(30.2,16.225,3.));
#689=CARTESIAN_POINT('',(-30.2,-32.45,3.));
#690=CARTESIAN_POINT('',(-30.2,-16.225,3.));
#691=CARTESIAN_POINT('',(15.1,-32.45,3.));
#692=CARTESIAN_POINT('Origin',(-30.2,-32.45,0.));
#693=CARTESIAN_POINT('',(-30.2,-32.45,0.));
#694=CARTESIAN_POINT('Origin',(30.2,-32.45,0.));
#695=CARTESIAN_POINT('',(30.2,-32.45,0.));
#696=CARTESIAN_POINT('Origin',(30.2,32.45,0.));
#697=CARTESIAN_POINT('Origin',(35.2,37.45,0.));
#698=CARTESIAN_POINT('',(33.75,37.45,0.));
#699=CARTESIAN_POINT('',(33.75,37.45,0.));
#700=CARTESIAN_POINT('Origin',(35.2,37.45,0.));
#701=CARTESIAN_POINT('Origin',(-35.2,37.45,0.));
#702=CARTESIAN_POINT('',(-36.65,37.45,0.));
#703=CARTESIAN_POINT('',(-36.65,37.45,0.));
#704=CARTESIAN_POINT('Origin',(-35.2,37.45,0.));
#705=CARTESIAN_POINT('Origin',(-35.2,-37.45,0.));
#706=CARTESIAN_POINT('',(-36.65,-37.45,0.));
#707=CARTESIAN_POINT('',(-36.65,-37.45,0.));
#708=CARTESIAN_POINT('Origin',(-35.2,-37.45,0.));
#709=CARTESIAN_POINT('Origin',(35.2,-37.45,0.));
#710=CARTESIAN_POINT('',(33.75,-37.45,0.));
#711=CARTESIAN_POINT('',(33.75,-37.45,0.));
#712=CARTESIAN_POINT('Origin',(35.2,-37.45,0.));
#713=CARTESIAN_POINT('Origin',(-37.7,-42.45,0.));
#714=CARTESIAN_POINT('',(-37.7,-42.45,0.));
#715=CARTESIAN_POINT('',(37.7,-42.45,0.));
#716=CARTESIAN_POINT('',(-37.7,-42.45,0.));
#717=CARTESIAN_POINT('',(37.7,-42.45,0.));
#718=CARTESIAN_POINT('',(-37.7,-42.45,0.));
#719=CARTESIAN_POINT('Origin',(-37.7,-39.95,0.));
#720=CARTESIAN_POINT('',(-40.2,-39.95,0.));
#721=CARTESIAN_POINT('Origin',(-37.7,-39.95,0.));
#722=CARTESIAN_POINT('',(-40.2,-39.95,0.));
#723=CARTESIAN_POINT('Origin',(-40.2,39.95,0.));
#724=CARTESIAN_POINT('',(-40.2,39.95,0.));
#725=CARTESIAN_POINT('',(-40.2,39.95,0.));
#726=CARTESIAN_POINT('',(-40.2,39.95,0.));
#727=CARTESIAN_POINT('Origin',(-37.7,39.95,0.));
#728=CARTESIAN_POINT('Origin',(-37.7,39.95,0.));
#729=CARTESIAN_POINT('Origin',(37.7,39.95,0.));
#730=CARTESIAN_POINT('',(40.2,39.95,0.));
#731=CARTESIAN_POINT('Origin',(37.7,39.95,0.));
#732=CARTESIAN_POINT('',(40.2,39.95,0.));
#733=CARTESIAN_POINT('Origin',(40.2,-39.95,0.));
#734=CARTESIAN_POINT('',(40.2,-39.95,0.));
#735=CARTESIAN_POINT('',(40.2,-39.95,0.));
#736=CARTESIAN_POINT('',(40.2,-39.95,0.));
#737=CARTESIAN_POINT('Origin',(37.7,-39.95,0.));
#738=CARTESIAN_POINT('Origin',(37.7,-39.95,0.));
#739=CARTESIAN_POINT('Origin',(0.,0.,0.));
#740=UNCERTAINTY_MEASURE_WITH_UNIT(LENGTH_MEASURE(0.01),#744,
'DISTANCE_ACCURACY_VALUE',
'Maximum model space distance between geometric entities at asserted c
onnectivities');
#741=UNCERTAINTY_MEASURE_WITH_UNIT(LENGTH_MEASURE(0.01),#744,
'DISTANCE_ACCURACY_VALUE',
'Maximum model space distance between geometric entities at asserted c
onnectivities');
#742=(
GEOMETRIC_REPRESENTATION_CONTEXT(3)
GLOBAL_UNCERTAINTY_ASSIGNED_CONTEXT((#740))
GLOBAL_UNIT_ASSIGNED_CONTEXT((#744,#746,#747))
REPRESENTATION_CONTEXT('','3D')
);
#743=(
GEOMETRIC_REPRESENTATION_CONTEXT(3)
GLOBAL_UNCERTAINTY_ASSIGNED_CONTEXT((#741))
GLOBAL_UNIT_ASSIGNED_CONTEXT((#744,#746,#747))
REPRESENTATION_CONTEXT('','3D')
);
#744=(
LENGTH_UNIT()
NAMED_UNIT(*)
SI_UNIT(.MILLI.,.METRE.)
);
#745=(
LENGTH_UNIT()
NAMED_UNIT(*)
SI_UNIT($,.METRE.)
);
#746=(
NAMED_UNIT(*)
PLANE_ANGLE_UNIT()
SI_UNIT($,.RADIAN.)
);
#747=(
NAMED_UNIT(*)
SI_UNIT($,.STERADIAN.)
SOLID_ANGLE_UNIT()
);
#748=SHAPE_DEFINITION_REPRESENTATION(#749,#750);
#749=PRODUCT_DEFINITION_SHAPE('',$,#752);
#750=SHAPE_REPRESENTATION('',(#456),#742);
#751=PRODUCT_DEFINITION_CONTEXT('part definition',#756,'design');
#752=PRODUCT_DEFINITION('2026-08-15-19-19-58-362','HackPad Case',#753,#751);
#753=PRODUCT_DEFINITION_FORMATION('',$,#758);
#754=PRODUCT_RELATED_PRODUCT_CATEGORY('HackPad Case','HackPad Case',(#758));
#755=APPLICATION_PROTOCOL_DEFINITION('international standard',
'automotive_design',2009,#756);
#756=APPLICATION_CONTEXT(
'Core Data for Automotive Mechanical Design Process');
#757=PRODUCT_CONTEXT('part definition',#756,'mechanical');
#758=PRODUCT('2026-08-15-19-19-58-362','HackPad Case',$,(#757));
#759=PRESENTATION_STYLE_ASSIGNMENT((#760));
#760=SURFACE_STYLE_USAGE(.BOTH.,#761);
#761=SURFACE_SIDE_STYLE('',(#762));
#762=SURFACE_STYLE_FILL_AREA(#763);
#763=FILL_AREA_STYLE('Steel - Satin',(#764));
#764=FILL_AREA_STYLE_COLOUR('Steel - Satin',#765);
#765=COLOUR_RGB('Steel - Satin',0.627450980392157,0.627450980392157,0.627450980392157);
ENDSEC;
END-ISO-10303-21;
