ISO-10303-21;
HEADER;
/* Generated by software containing ST-Developer
 * from STEP Tools, Inc. (www.steptools.com) 
 */

FILE_DESCRIPTION(
/* description */ (''),
/* implementation_level */ '2;1');

FILE_NAME(
/* name */ 'Top.step',
/* time_stamp */ '2026-09-30T17:58:38+01:00',
/* author */ (''),
/* organization */ (''),
/* preprocessor_version */ 'ST-DEVELOPER v20.2',
/* originating_system */ 'Autodesk Translation Framework v15.15.0.0',
/* authorisation */ '');

FILE_SCHEMA (('AUTOMOTIVE_DESIGN { 1 0 10303 214 3 1 1 }'));
ENDSEC;

DATA;
#10=MECHANICAL_DESIGN_GEOMETRIC_PRESENTATION_REPRESENTATION('',(#13),#1206);
#11=SHAPE_REPRESENTATION_RELATIONSHIP('SRR','None',#1213,#12);
#12=ADVANCED_BREP_SHAPE_REPRESENTATION('',(#14),#1205);
#13=STYLED_ITEM('',(#1223),#14);
#14=MANIFOLD_SOLID_BREP('Body3',#708);
#15=FACE_BOUND('',#140,.T.);
#16=FACE_BOUND('',#141,.T.);
#17=FACE_BOUND('',#142,.T.);
#18=FACE_BOUND('',#143,.T.);
#19=FACE_BOUND('',#144,.T.);
#20=FACE_BOUND('',#157,.T.);
#21=FACE_BOUND('',#158,.T.);
#22=FACE_BOUND('',#159,.T.);
#23=FACE_BOUND('',#160,.T.);
#24=FACE_BOUND('',#161,.T.);
#25=SPHERICAL_SURFACE('',#744,2.);
#26=SPHERICAL_SURFACE('',#749,2.);
#27=CIRCLE('',#724,4.99999999999999);
#28=CIRCLE('',#725,4.99999999999999);
#29=CIRCLE('',#728,4.99999999999999);
#30=CIRCLE('',#729,4.99999999999999);
#31=CIRCLE('',#732,5.);
#32=CIRCLE('',#733,5.);
#33=CIRCLE('',#736,4.99999999999999);
#34=CIRCLE('',#737,4.99999999999999);
#35=CIRCLE('',#739,2.);
#36=CIRCLE('',#740,2.);
#37=CIRCLE('',#742,2.);
#38=CIRCLE('',#743,2.);
#39=CIRCLE('',#745,2.);
#40=CIRCLE('',#747,2.);
#41=CIRCLE('',#748,2.);
#42=CIRCLE('',#750,2.);
#43=CIRCLE('',#753,2.);
#44=CIRCLE('',#756,2.);
#45=CIRCLE('',#765,2.5);
#46=CIRCLE('',#766,2.5);
#47=CIRCLE('',#767,2.5);
#48=CIRCLE('',#768,2.5);
#49=CIRCLE('',#769,1.45);
#50=CIRCLE('',#770,1.45);
#51=CIRCLE('',#771,1.45);
#52=CIRCLE('',#772,1.45);
#53=CIRCLE('',#774,1.45);
#54=CIRCLE('',#776,1.45);
#55=CIRCLE('',#778,1.45);
#56=CIRCLE('',#780,1.45);
#57=CIRCLE('',#783,2.5);
#58=CIRCLE('',#786,2.5);
#59=CIRCLE('',#788,2.5);
#60=CIRCLE('',#791,2.5);
#61=CYLINDRICAL_SURFACE('',#723,4.99999999999999);
#62=CYLINDRICAL_SURFACE('',#727,4.99999999999999);
#63=CYLINDRICAL_SURFACE('',#731,5.);
#64=CYLINDRICAL_SURFACE('',#735,4.99999999999999);
#65=CYLINDRICAL_SURFACE('',#738,2.);
#66=CYLINDRICAL_SURFACE('',#741,2.);
#67=CYLINDRICAL_SURFACE('',#746,2.);
#68=CYLINDRICAL_SURFACE('',#752,2.);
#69=CYLINDRICAL_SURFACE('',#755,2.);
#70=CYLINDRICAL_SURFACE('',#773,1.45);
#71=CYLINDRICAL_SURFACE('',#775,1.45);
#72=CYLINDRICAL_SURFACE('',#777,1.45);
#73=CYLINDRICAL_SURFACE('',#779,1.45);
#74=CYLINDRICAL_SURFACE('',#782,2.5);
#75=CYLINDRICAL_SURFACE('',#785,2.5);
#76=CYLINDRICAL_SURFACE('',#787,2.5);
#77=CYLINDRICAL_SURFACE('',#790,2.5);
#78=FACE_OUTER_BOUND('',#115,.T.);
#79=FACE_OUTER_BOUND('',#116,.T.);
#80=FACE_OUTER_BOUND('',#117,.T.);
#81=FACE_OUTER_BOUND('',#118,.T.);
#82=FACE_OUTER_BOUND('',#119,.T.);
#83=FACE_OUTER_BOUND('',#120,.T.);
#84=FACE_OUTER_BOUND('',#121,.T.);
#85=FACE_OUTER_BOUND('',#122,.T.);
#86=FACE_OUTER_BOUND('',#123,.T.);
#87=FACE_OUTER_BOUND('',#124,.T.);
#88=FACE_OUTER_BOUND('',#125,.T.);
#89=FACE_OUTER_BOUND('',#126,.T.);
#90=FACE_OUTER_BOUND('',#127,.T.);
#91=FACE_OUTER_BOUND('',#128,.T.);
#92=FACE_OUTER_BOUND('',#129,.T.);
#93=FACE_OUTER_BOUND('',#130,.T.);
#94=FACE_OUTER_BOUND('',#131,.T.);
#95=FACE_OUTER_BOUND('',#132,.T.);
#96=FACE_OUTER_BOUND('',#133,.T.);
#97=FACE_OUTER_BOUND('',#134,.T.);
#98=FACE_OUTER_BOUND('',#135,.T.);
#99=FACE_OUTER_BOUND('',#136,.T.);
#100=FACE_OUTER_BOUND('',#137,.T.);
#101=FACE_OUTER_BOUND('',#138,.T.);
#102=FACE_OUTER_BOUND('',#139,.T.);
#103=FACE_OUTER_BOUND('',#145,.T.);
#104=FACE_OUTER_BOUND('',#146,.T.);
#105=FACE_OUTER_BOUND('',#147,.T.);
#106=FACE_OUTER_BOUND('',#148,.T.);
#107=FACE_OUTER_BOUND('',#149,.T.);
#108=FACE_OUTER_BOUND('',#150,.T.);
#109=FACE_OUTER_BOUND('',#151,.T.);
#110=FACE_OUTER_BOUND('',#152,.T.);
#111=FACE_OUTER_BOUND('',#153,.T.);
#112=FACE_OUTER_BOUND('',#154,.T.);
#113=FACE_OUTER_BOUND('',#155,.T.);
#114=FACE_OUTER_BOUND('',#156,.T.);
#115=EDGE_LOOP('',(#455,#456,#457,#458));
#116=EDGE_LOOP('',(#459,#460,#461,#462));
#117=EDGE_LOOP('',(#463,#464,#465,#466));
#118=EDGE_LOOP('',(#467,#468,#469,#470));
#119=EDGE_LOOP('',(#471,#472,#473,#474));
#120=EDGE_LOOP('',(#475,#476,#477,#478));
#121=EDGE_LOOP('',(#479,#480,#481,#482));
#122=EDGE_LOOP('',(#483,#484,#485,#486));
#123=EDGE_LOOP('',(#487,#488,#489,#490));
#124=EDGE_LOOP('',(#491,#492,#493,#494));
#125=EDGE_LOOP('',(#495,#496,#497));
#126=EDGE_LOOP('',(#498,#499,#500,#501));
#127=EDGE_LOOP('',(#502,#503,#504));
#128=EDGE_LOOP('',(#505,#506,#507,#508));
#129=EDGE_LOOP('',(#509,#510,#511,#512));
#130=EDGE_LOOP('',(#513,#514,#515,#516));
#131=EDGE_LOOP('',(#517,#518,#519,#520));
#132=EDGE_LOOP('',(#521,#522,#523,#524));
#133=EDGE_LOOP('',(#525,#526,#527,#528,#529,#530,#531,#532,#533,#534,#535,
#536,#537,#538));
#134=EDGE_LOOP('',(#539,#540,#541,#542));
#135=EDGE_LOOP('',(#543,#544,#545,#546));
#136=EDGE_LOOP('',(#547,#548,#549,#550));
#137=EDGE_LOOP('',(#551,#552,#553,#554));
#138=EDGE_LOOP('',(#555,#556,#557,#558));
#139=EDGE_LOOP('',(#559,#560,#561,#562,#563,#564,#565,#566,#567,#568,#569,
#570));
#140=EDGE_LOOP('',(#571));
#141=EDGE_LOOP('',(#572));
#142=EDGE_LOOP('',(#573));
#143=EDGE_LOOP('',(#574));
#144=EDGE_LOOP('',(#575,#576,#577,#578,#579,#580,#581,#582));
#145=EDGE_LOOP('',(#583,#584,#585,#586));
#146=EDGE_LOOP('',(#587,#588,#589,#590));
#147=EDGE_LOOP('',(#591,#592,#593,#594));
#148=EDGE_LOOP('',(#595,#596,#597,#598));
#149=EDGE_LOOP('',(#599,#600,#601,#602));
#150=EDGE_LOOP('',(#603,#604,#605,#606));
#151=EDGE_LOOP('',(#607,#608,#609,#610));
#152=EDGE_LOOP('',(#611,#612,#613,#614));
#153=EDGE_LOOP('',(#615,#616,#617,#618));
#154=EDGE_LOOP('',(#619,#620,#621,#622));
#155=EDGE_LOOP('',(#623,#624,#625,#626));
#156=EDGE_LOOP('',(#627,#628,#629,#630,#631,#632,#633,#634,#635,#636,#637,
#638,#639,#640));
#157=EDGE_LOOP('',(#641));
#158=EDGE_LOOP('',(#642));
#159=EDGE_LOOP('',(#643));
#160=EDGE_LOOP('',(#644));
#161=EDGE_LOOP('',(#645,#646,#647,#648,#649,#650,#651,#652));
#162=LINE('',#1006,#227);
#163=LINE('',#1008,#228);
#164=LINE('',#1010,#229);
#165=LINE('',#1011,#230);
#166=LINE('',#1016,#231);
#167=LINE('',#1020,#232);
#168=LINE('',#1022,#233);
#169=LINE('',#1023,#234);
#170=LINE('',#1028,#235);
#171=LINE('',#1032,#236);
#172=LINE('',#1034,#237);
#173=LINE('',#1035,#238);
#174=LINE('',#1040,#239);
#175=LINE('',#1044,#240);
#176=LINE('',#1046,#241);
#177=LINE('',#1047,#242);
#178=LINE('',#1056,#243);
#179=LINE('',#1059,#244);
#180=LINE('',#1064,#245);
#181=LINE('',#1067,#246);
#182=LINE('',#1074,#247);
#183=LINE('',#1077,#248);
#184=LINE('',#1082,#249);
#185=LINE('',#1084,#250);
#186=LINE('',#1085,#251);
#187=LINE('',#1088,#252);
#188=LINE('',#1092,#253);
#189=LINE('',#1093,#254);
#190=LINE('',#1096,#255);
#191=LINE('',#1100,#256);
#192=LINE('',#1101,#257);
#193=LINE('',#1104,#258);
#194=LINE('',#1106,#259);
#195=LINE('',#1108,#260);
#196=LINE('',#1110,#261);
#197=LINE('',#1112,#262);
#198=LINE('',#1114,#263);
#199=LINE('',#1116,#264);
#200=LINE('',#1118,#265);
#201=LINE('',#1119,#266);
#202=LINE('',#1122,#267);
#203=LINE('',#1124,#268);
#204=LINE('',#1125,#269);
#205=LINE('',#1127,#270);
#206=LINE('',#1130,#271);
#207=LINE('',#1132,#272);
#208=LINE('',#1133,#273);
#209=LINE('',#1135,#274);
#210=LINE('',#1137,#275);
#211=LINE('',#1142,#276);
#212=LINE('',#1146,#277);
#213=LINE('',#1150,#278);
#214=LINE('',#1163,#279);
#215=LINE('',#1167,#280);
#216=LINE('',#1171,#281);
#217=LINE('',#1175,#282);
#218=LINE('',#1178,#283);
#219=LINE('',#1180,#284);
#220=LINE('',#1181,#285);
#221=LINE('',#1185,#286);
#222=LINE('',#1188,#287);
#223=LINE('',#1189,#288);
#224=LINE('',#1195,#289);
#225=LINE('',#1198,#290);
#226=LINE('',#1199,#291);
#227=VECTOR('',#797,10.);
#228=VECTOR('',#798,10.);
#229=VECTOR('',#799,10.);
#230=VECTOR('',#800,10.);
#231=VECTOR('',#805,10.);
#232=VECTOR('',#810,10.);
#233=VECTOR('',#811,10.);
#234=VECTOR('',#812,10.);
#235=VECTOR('',#817,10.);
#236=VECTOR('',#822,10.);
#237=VECTOR('',#823,10.);
#238=VECTOR('',#824,10.);
#239=VECTOR('',#829,10.);
#240=VECTOR('',#834,10.);
#241=VECTOR('',#835,10.);
#242=VECTOR('',#836,10.);
#243=VECTOR('',#847,10.);
#244=VECTOR('',#850,10.);
#245=VECTOR('',#855,10.);
#246=VECTOR('',#858,10.);
#247=VECTOR('',#867,10.);
#248=VECTOR('',#870,10.);
#249=VECTOR('',#877,10.);
#250=VECTOR('',#878,10.);
#251=VECTOR('',#879,10.);
#252=VECTOR('',#882,10.);
#253=VECTOR('',#887,10.);
#254=VECTOR('',#888,10.);
#255=VECTOR('',#891,10.);
#256=VECTOR('',#896,10.);
#257=VECTOR('',#897,10.);
#258=VECTOR('',#900,10.);
#259=VECTOR('',#901,10.);
#260=VECTOR('',#902,10.);
#261=VECTOR('',#903,10.);
#262=VECTOR('',#904,10.);
#263=VECTOR('',#905,10.);
#264=VECTOR('',#906,10.);
#265=VECTOR('',#907,10.);
#266=VECTOR('',#908,10.);
#267=VECTOR('',#911,10.);
#268=VECTOR('',#912,10.);
#269=VECTOR('',#913,10.);
#270=VECTOR('',#916,10.);
#271=VECTOR('',#919,10.);
#272=VECTOR('',#920,10.);
#273=VECTOR('',#921,10.);
#274=VECTOR('',#924,10.);
#275=VECTOR('',#927,10.);
#276=VECTOR('',#932,10.);
#277=VECTOR('',#935,10.);
#278=VECTOR('',#938,10.);
#279=VECTOR('',#953,1.45);
#280=VECTOR('',#958,1.45);
#281=VECTOR('',#963,1.45);
#282=VECTOR('',#968,1.45);
#283=VECTOR('',#971,10.);
#284=VECTOR('',#972,10.);
#285=VECTOR('',#973,10.);
#286=VECTOR('',#978,10.);
#287=VECTOR('',#981,10.);
#288=VECTOR('',#982,10.);
#289=VECTOR('',#991,10.);
#290=VECTOR('',#994,10.);
#291=VECTOR('',#995,10.);
#292=VERTEX_POINT('',#1004);
#293=VERTEX_POINT('',#1005);
#294=VERTEX_POINT('',#1007);
#295=VERTEX_POINT('',#1009);
#296=VERTEX_POINT('',#1013);
#297=VERTEX_POINT('',#1015);
#298=VERTEX_POINT('',#1019);
#299=VERTEX_POINT('',#1021);
#300=VERTEX_POINT('',#1025);
#301=VERTEX_POINT('',#1027);
#302=VERTEX_POINT('',#1031);
#303=VERTEX_POINT('',#1033);
#304=VERTEX_POINT('',#1037);
#305=VERTEX_POINT('',#1039);
#306=VERTEX_POINT('',#1043);
#307=VERTEX_POINT('',#1045);
#308=VERTEX_POINT('',#1052);
#309=VERTEX_POINT('',#1053);
#310=VERTEX_POINT('',#1055);
#311=VERTEX_POINT('',#1057);
#312=VERTEX_POINT('',#1061);
#313=VERTEX_POINT('',#1063);
#314=VERTEX_POINT('',#1065);
#315=VERTEX_POINT('',#1071);
#316=VERTEX_POINT('',#1073);
#317=VERTEX_POINT('',#1075);
#318=VERTEX_POINT('',#1081);
#319=VERTEX_POINT('',#1083);
#320=VERTEX_POINT('',#1087);
#321=VERTEX_POINT('',#1091);
#322=VERTEX_POINT('',#1095);
#323=VERTEX_POINT('',#1099);
#324=VERTEX_POINT('',#1103);
#325=VERTEX_POINT('',#1105);
#326=VERTEX_POINT('',#1107);
#327=VERTEX_POINT('',#1109);
#328=VERTEX_POINT('',#1111);
#329=VERTEX_POINT('',#1113);
#330=VERTEX_POINT('',#1115);
#331=VERTEX_POINT('',#1117);
#332=VERTEX_POINT('',#1121);
#333=VERTEX_POINT('',#1123);
#334=VERTEX_POINT('',#1129);
#335=VERTEX_POINT('',#1131);
#336=VERTEX_POINT('',#1139);
#337=VERTEX_POINT('',#1141);
#338=VERTEX_POINT('',#1143);
#339=VERTEX_POINT('',#1145);
#340=VERTEX_POINT('',#1147);
#341=VERTEX_POINT('',#1149);
#342=VERTEX_POINT('',#1152);
#343=VERTEX_POINT('',#1154);
#344=VERTEX_POINT('',#1156);
#345=VERTEX_POINT('',#1158);
#346=VERTEX_POINT('',#1161);
#347=VERTEX_POINT('',#1165);
#348=VERTEX_POINT('',#1169);
#349=VERTEX_POINT('',#1173);
#350=VERTEX_POINT('',#1177);
#351=VERTEX_POINT('',#1179);
#352=VERTEX_POINT('',#1183);
#353=VERTEX_POINT('',#1187);
#354=VERTEX_POINT('',#1193);
#355=VERTEX_POINT('',#1197);
#356=EDGE_CURVE('',#292,#293,#162,.T.);
#357=EDGE_CURVE('',#292,#294,#163,.T.);
#358=EDGE_CURVE('',#295,#294,#164,.T.);
#359=EDGE_CURVE('',#293,#295,#165,.T.);
#360=EDGE_CURVE('',#296,#292,#27,.T.);
#361=EDGE_CURVE('',#296,#297,#166,.T.);
#362=EDGE_CURVE('',#294,#297,#28,.T.);
#363=EDGE_CURVE('',#298,#296,#167,.T.);
#364=EDGE_CURVE('',#298,#299,#168,.T.);
#365=EDGE_CURVE('',#297,#299,#169,.T.);
#366=EDGE_CURVE('',#300,#298,#29,.T.);
#367=EDGE_CURVE('',#300,#301,#170,.T.);
#368=EDGE_CURVE('',#299,#301,#30,.T.);
#369=EDGE_CURVE('',#302,#300,#171,.T.);
#370=EDGE_CURVE('',#302,#303,#172,.T.);
#371=EDGE_CURVE('',#301,#303,#173,.T.);
#372=EDGE_CURVE('',#304,#302,#31,.T.);
#373=EDGE_CURVE('',#304,#305,#174,.T.);
#374=EDGE_CURVE('',#303,#305,#32,.T.);
#375=EDGE_CURVE('',#306,#304,#175,.T.);
#376=EDGE_CURVE('',#306,#307,#176,.T.);
#377=EDGE_CURVE('',#305,#307,#177,.T.);
#378=EDGE_CURVE('',#293,#306,#33,.T.);
#379=EDGE_CURVE('',#307,#295,#34,.T.);
#380=EDGE_CURVE('',#308,#309,#35,.T.);
#381=EDGE_CURVE('',#309,#310,#178,.T.);
#382=EDGE_CURVE('',#310,#311,#36,.F.);
#383=EDGE_CURVE('',#311,#308,#179,.T.);
#384=EDGE_CURVE('',#312,#308,#37,.T.);
#385=EDGE_CURVE('',#308,#313,#180,.T.);
#386=EDGE_CURVE('',#313,#314,#38,.T.);
#387=EDGE_CURVE('',#314,#312,#181,.T.);
#388=EDGE_CURVE('',#312,#309,#39,.T.);
#389=EDGE_CURVE('',#315,#313,#40,.T.);
#390=EDGE_CURVE('',#313,#316,#182,.T.);
#391=EDGE_CURVE('',#316,#317,#41,.F.);
#392=EDGE_CURVE('',#317,#315,#183,.T.);
#393=EDGE_CURVE('',#315,#314,#42,.T.);
#394=EDGE_CURVE('',#318,#309,#184,.T.);
#395=EDGE_CURVE('',#319,#318,#185,.T.);
#396=EDGE_CURVE('',#310,#319,#186,.T.);
#397=EDGE_CURVE('',#312,#320,#187,.T.);
#398=EDGE_CURVE('',#320,#318,#43,.T.);
#399=EDGE_CURVE('',#321,#314,#188,.T.);
#400=EDGE_CURVE('',#321,#320,#189,.T.);
#401=EDGE_CURVE('',#315,#322,#190,.T.);
#402=EDGE_CURVE('',#322,#321,#44,.T.);
#403=EDGE_CURVE('',#323,#317,#191,.T.);
#404=EDGE_CURVE('',#323,#322,#192,.T.);
#405=EDGE_CURVE('',#324,#323,#193,.T.);
#406=EDGE_CURVE('',#325,#324,#194,.T.);
#407=EDGE_CURVE('',#325,#326,#195,.T.);
#408=EDGE_CURVE('',#326,#327,#196,.T.);
#409=EDGE_CURVE('',#327,#328,#197,.T.);
#410=EDGE_CURVE('',#328,#329,#198,.T.);
#411=EDGE_CURVE('',#329,#330,#199,.T.);
#412=EDGE_CURVE('',#330,#331,#200,.T.);
#413=EDGE_CURVE('',#319,#331,#201,.T.);
#414=EDGE_CURVE('',#328,#332,#202,.T.);
#415=EDGE_CURVE('',#333,#327,#203,.T.);
#416=EDGE_CURVE('',#332,#333,#204,.T.);
#417=EDGE_CURVE('',#316,#311,#205,.T.);
#418=EDGE_CURVE('',#333,#334,#206,.T.);
#419=EDGE_CURVE('',#335,#334,#207,.T.);
#420=EDGE_CURVE('',#335,#332,#208,.T.);
#421=EDGE_CURVE('',#334,#326,#209,.T.);
#422=EDGE_CURVE('',#329,#335,#210,.T.);
#423=EDGE_CURVE('',#336,#325,#45,.T.);
#424=EDGE_CURVE('',#337,#336,#211,.T.);
#425=EDGE_CURVE('',#338,#337,#46,.T.);
#426=EDGE_CURVE('',#339,#338,#212,.T.);
#427=EDGE_CURVE('',#340,#339,#47,.T.);
#428=EDGE_CURVE('',#341,#340,#213,.T.);
#429=EDGE_CURVE('',#330,#341,#48,.T.);
#430=EDGE_CURVE('',#342,#342,#49,.T.);
#431=EDGE_CURVE('',#343,#343,#50,.T.);
#432=EDGE_CURVE('',#344,#344,#51,.T.);
#433=EDGE_CURVE('',#345,#345,#52,.T.);
#434=EDGE_CURVE('',#346,#346,#53,.T.);
#435=EDGE_CURVE('',#346,#342,#214,.T.);
#436=EDGE_CURVE('',#347,#347,#54,.T.);
#437=EDGE_CURVE('',#347,#343,#215,.T.);
#438=EDGE_CURVE('',#348,#348,#55,.T.);
#439=EDGE_CURVE('',#348,#344,#216,.T.);
#440=EDGE_CURVE('',#349,#349,#56,.T.);
#441=EDGE_CURVE('',#349,#345,#217,.T.);
#442=EDGE_CURVE('',#338,#350,#218,.T.);
#443=EDGE_CURVE('',#351,#350,#219,.T.);
#444=EDGE_CURVE('',#339,#351,#220,.T.);
#445=EDGE_CURVE('',#352,#351,#57,.T.);
#446=EDGE_CURVE('',#340,#352,#221,.T.);
#447=EDGE_CURVE('',#353,#352,#222,.T.);
#448=EDGE_CURVE('',#341,#353,#223,.T.);
#449=EDGE_CURVE('',#331,#353,#58,.T.);
#450=EDGE_CURVE('',#354,#324,#59,.T.);
#451=EDGE_CURVE('',#336,#354,#224,.T.);
#452=EDGE_CURVE('',#355,#354,#225,.T.);
#453=EDGE_CURVE('',#337,#355,#226,.T.);
#454=EDGE_CURVE('',#350,#355,#60,.T.);
#455=ORIENTED_EDGE('',*,*,#356,.F.);
#456=ORIENTED_EDGE('',*,*,#357,.T.);
#457=ORIENTED_EDGE('',*,*,#358,.F.);
#458=ORIENTED_EDGE('',*,*,#359,.F.);
#459=ORIENTED_EDGE('',*,*,#360,.F.);
#460=ORIENTED_EDGE('',*,*,#361,.T.);
#461=ORIENTED_EDGE('',*,*,#362,.F.);
#462=ORIENTED_EDGE('',*,*,#357,.F.);
#463=ORIENTED_EDGE('',*,*,#363,.F.);
#464=ORIENTED_EDGE('',*,*,#364,.T.);
#465=ORIENTED_EDGE('',*,*,#365,.F.);
#466=ORIENTED_EDGE('',*,*,#361,.F.);
#467=ORIENTED_EDGE('',*,*,#366,.F.);
#468=ORIENTED_EDGE('',*,*,#367,.T.);
#469=ORIENTED_EDGE('',*,*,#368,.F.);
#470=ORIENTED_EDGE('',*,*,#364,.F.);
#471=ORIENTED_EDGE('',*,*,#369,.F.);
#472=ORIENTED_EDGE('',*,*,#370,.T.);
#473=ORIENTED_EDGE('',*,*,#371,.F.);
#474=ORIENTED_EDGE('',*,*,#367,.F.);
#475=ORIENTED_EDGE('',*,*,#372,.F.);
#476=ORIENTED_EDGE('',*,*,#373,.T.);
#477=ORIENTED_EDGE('',*,*,#374,.F.);
#478=ORIENTED_EDGE('',*,*,#370,.F.);
#479=ORIENTED_EDGE('',*,*,#375,.F.);
#480=ORIENTED_EDGE('',*,*,#376,.T.);
#481=ORIENTED_EDGE('',*,*,#377,.F.);
#482=ORIENTED_EDGE('',*,*,#373,.F.);
#483=ORIENTED_EDGE('',*,*,#378,.F.);
#484=ORIENTED_EDGE('',*,*,#359,.T.);
#485=ORIENTED_EDGE('',*,*,#379,.F.);
#486=ORIENTED_EDGE('',*,*,#376,.F.);
#487=ORIENTED_EDGE('',*,*,#380,.T.);
#488=ORIENTED_EDGE('',*,*,#381,.T.);
#489=ORIENTED_EDGE('',*,*,#382,.T.);
#490=ORIENTED_EDGE('',*,*,#383,.T.);
#491=ORIENTED_EDGE('',*,*,#384,.T.);
#492=ORIENTED_EDGE('',*,*,#385,.T.);
#493=ORIENTED_EDGE('',*,*,#386,.T.);
#494=ORIENTED_EDGE('',*,*,#387,.T.);
#495=ORIENTED_EDGE('',*,*,#384,.F.);
#496=ORIENTED_EDGE('',*,*,#388,.T.);
#497=ORIENTED_EDGE('',*,*,#380,.F.);
#498=ORIENTED_EDGE('',*,*,#389,.T.);
#499=ORIENTED_EDGE('',*,*,#390,.T.);
#500=ORIENTED_EDGE('',*,*,#391,.T.);
#501=ORIENTED_EDGE('',*,*,#392,.T.);
#502=ORIENTED_EDGE('',*,*,#389,.F.);
#503=ORIENTED_EDGE('',*,*,#393,.T.);
#504=ORIENTED_EDGE('',*,*,#386,.F.);
#505=ORIENTED_EDGE('',*,*,#381,.F.);
#506=ORIENTED_EDGE('',*,*,#394,.F.);
#507=ORIENTED_EDGE('',*,*,#395,.F.);
#508=ORIENTED_EDGE('',*,*,#396,.F.);
#509=ORIENTED_EDGE('',*,*,#388,.F.);
#510=ORIENTED_EDGE('',*,*,#397,.T.);
#511=ORIENTED_EDGE('',*,*,#398,.T.);
#512=ORIENTED_EDGE('',*,*,#394,.T.);
#513=ORIENTED_EDGE('',*,*,#387,.F.);
#514=ORIENTED_EDGE('',*,*,#399,.F.);
#515=ORIENTED_EDGE('',*,*,#400,.T.);
#516=ORIENTED_EDGE('',*,*,#397,.F.);
#517=ORIENTED_EDGE('',*,*,#393,.F.);
#518=ORIENTED_EDGE('',*,*,#401,.T.);
#519=ORIENTED_EDGE('',*,*,#402,.T.);
#520=ORIENTED_EDGE('',*,*,#399,.T.);
#521=ORIENTED_EDGE('',*,*,#392,.F.);
#522=ORIENTED_EDGE('',*,*,#403,.F.);
#523=ORIENTED_EDGE('',*,*,#404,.T.);
#524=ORIENTED_EDGE('',*,*,#401,.F.);
#525=ORIENTED_EDGE('',*,*,#402,.F.);
#526=ORIENTED_EDGE('',*,*,#404,.F.);
#527=ORIENTED_EDGE('',*,*,#405,.F.);
#528=ORIENTED_EDGE('',*,*,#406,.F.);
#529=ORIENTED_EDGE('',*,*,#407,.T.);
#530=ORIENTED_EDGE('',*,*,#408,.T.);
#531=ORIENTED_EDGE('',*,*,#409,.T.);
#532=ORIENTED_EDGE('',*,*,#410,.T.);
#533=ORIENTED_EDGE('',*,*,#411,.T.);
#534=ORIENTED_EDGE('',*,*,#412,.T.);
#535=ORIENTED_EDGE('',*,*,#413,.F.);
#536=ORIENTED_EDGE('',*,*,#395,.T.);
#537=ORIENTED_EDGE('',*,*,#398,.F.);
#538=ORIENTED_EDGE('',*,*,#400,.F.);
#539=ORIENTED_EDGE('',*,*,#414,.F.);
#540=ORIENTED_EDGE('',*,*,#409,.F.);
#541=ORIENTED_EDGE('',*,*,#415,.F.);
#542=ORIENTED_EDGE('',*,*,#416,.F.);
#543=ORIENTED_EDGE('',*,*,#383,.F.);
#544=ORIENTED_EDGE('',*,*,#417,.F.);
#545=ORIENTED_EDGE('',*,*,#390,.F.);
#546=ORIENTED_EDGE('',*,*,#385,.F.);
#547=ORIENTED_EDGE('',*,*,#418,.T.);
#548=ORIENTED_EDGE('',*,*,#419,.F.);
#549=ORIENTED_EDGE('',*,*,#420,.T.);
#550=ORIENTED_EDGE('',*,*,#416,.T.);
#551=ORIENTED_EDGE('',*,*,#408,.F.);
#552=ORIENTED_EDGE('',*,*,#421,.F.);
#553=ORIENTED_EDGE('',*,*,#418,.F.);
#554=ORIENTED_EDGE('',*,*,#415,.T.);
#555=ORIENTED_EDGE('',*,*,#420,.F.);
#556=ORIENTED_EDGE('',*,*,#422,.F.);
#557=ORIENTED_EDGE('',*,*,#410,.F.);
#558=ORIENTED_EDGE('',*,*,#414,.T.);
#559=ORIENTED_EDGE('',*,*,#422,.T.);
#560=ORIENTED_EDGE('',*,*,#419,.T.);
#561=ORIENTED_EDGE('',*,*,#421,.T.);
#562=ORIENTED_EDGE('',*,*,#407,.F.);
#563=ORIENTED_EDGE('',*,*,#423,.F.);
#564=ORIENTED_EDGE('',*,*,#424,.F.);
#565=ORIENTED_EDGE('',*,*,#425,.F.);
#566=ORIENTED_EDGE('',*,*,#426,.F.);
#567=ORIENTED_EDGE('',*,*,#427,.F.);
#568=ORIENTED_EDGE('',*,*,#428,.F.);
#569=ORIENTED_EDGE('',*,*,#429,.F.);
#570=ORIENTED_EDGE('',*,*,#411,.F.);
#571=ORIENTED_EDGE('',*,*,#430,.F.);
#572=ORIENTED_EDGE('',*,*,#431,.F.);
#573=ORIENTED_EDGE('',*,*,#432,.F.);
#574=ORIENTED_EDGE('',*,*,#433,.F.);
#575=ORIENTED_EDGE('',*,*,#358,.T.);
#576=ORIENTED_EDGE('',*,*,#362,.T.);
#577=ORIENTED_EDGE('',*,*,#365,.T.);
#578=ORIENTED_EDGE('',*,*,#368,.T.);
#579=ORIENTED_EDGE('',*,*,#371,.T.);
#580=ORIENTED_EDGE('',*,*,#374,.T.);
#581=ORIENTED_EDGE('',*,*,#377,.T.);
#582=ORIENTED_EDGE('',*,*,#379,.T.);
#583=ORIENTED_EDGE('',*,*,#434,.F.);
#584=ORIENTED_EDGE('',*,*,#435,.T.);
#585=ORIENTED_EDGE('',*,*,#430,.T.);
#586=ORIENTED_EDGE('',*,*,#435,.F.);
#587=ORIENTED_EDGE('',*,*,#436,.F.);
#588=ORIENTED_EDGE('',*,*,#437,.T.);
#589=ORIENTED_EDGE('',*,*,#431,.T.);
#590=ORIENTED_EDGE('',*,*,#437,.F.);
#591=ORIENTED_EDGE('',*,*,#438,.F.);
#592=ORIENTED_EDGE('',*,*,#439,.T.);
#593=ORIENTED_EDGE('',*,*,#432,.T.);
#594=ORIENTED_EDGE('',*,*,#439,.F.);
#595=ORIENTED_EDGE('',*,*,#440,.F.);
#596=ORIENTED_EDGE('',*,*,#441,.T.);
#597=ORIENTED_EDGE('',*,*,#433,.T.);
#598=ORIENTED_EDGE('',*,*,#441,.F.);
#599=ORIENTED_EDGE('',*,*,#426,.T.);
#600=ORIENTED_EDGE('',*,*,#442,.T.);
#601=ORIENTED_EDGE('',*,*,#443,.F.);
#602=ORIENTED_EDGE('',*,*,#444,.F.);
#603=ORIENTED_EDGE('',*,*,#427,.T.);
#604=ORIENTED_EDGE('',*,*,#444,.T.);
#605=ORIENTED_EDGE('',*,*,#445,.F.);
#606=ORIENTED_EDGE('',*,*,#446,.F.);
#607=ORIENTED_EDGE('',*,*,#428,.T.);
#608=ORIENTED_EDGE('',*,*,#446,.T.);
#609=ORIENTED_EDGE('',*,*,#447,.F.);
#610=ORIENTED_EDGE('',*,*,#448,.F.);
#611=ORIENTED_EDGE('',*,*,#429,.T.);
#612=ORIENTED_EDGE('',*,*,#448,.T.);
#613=ORIENTED_EDGE('',*,*,#449,.F.);
#614=ORIENTED_EDGE('',*,*,#412,.F.);
#615=ORIENTED_EDGE('',*,*,#423,.T.);
#616=ORIENTED_EDGE('',*,*,#406,.T.);
#617=ORIENTED_EDGE('',*,*,#450,.F.);
#618=ORIENTED_EDGE('',*,*,#451,.F.);
#619=ORIENTED_EDGE('',*,*,#424,.T.);
#620=ORIENTED_EDGE('',*,*,#451,.T.);
#621=ORIENTED_EDGE('',*,*,#452,.F.);
#622=ORIENTED_EDGE('',*,*,#453,.F.);
#623=ORIENTED_EDGE('',*,*,#425,.T.);
#624=ORIENTED_EDGE('',*,*,#453,.T.);
#625=ORIENTED_EDGE('',*,*,#454,.F.);
#626=ORIENTED_EDGE('',*,*,#442,.F.);
#627=ORIENTED_EDGE('',*,*,#396,.T.);
#628=ORIENTED_EDGE('',*,*,#413,.T.);
#629=ORIENTED_EDGE('',*,*,#449,.T.);
#630=ORIENTED_EDGE('',*,*,#447,.T.);
#631=ORIENTED_EDGE('',*,*,#445,.T.);
#632=ORIENTED_EDGE('',*,*,#443,.T.);
#633=ORIENTED_EDGE('',*,*,#454,.T.);
#634=ORIENTED_EDGE('',*,*,#452,.T.);
#635=ORIENTED_EDGE('',*,*,#450,.T.);
#636=ORIENTED_EDGE('',*,*,#405,.T.);
#637=ORIENTED_EDGE('',*,*,#403,.T.);
#638=ORIENTED_EDGE('',*,*,#391,.F.);
#639=ORIENTED_EDGE('',*,*,#417,.T.);
#640=ORIENTED_EDGE('',*,*,#382,.F.);
#641=ORIENTED_EDGE('',*,*,#440,.T.);
#642=ORIENTED_EDGE('',*,*,#438,.T.);
#643=ORIENTED_EDGE('',*,*,#436,.T.);
#644=ORIENTED_EDGE('',*,*,#434,.T.);
#645=ORIENTED_EDGE('',*,*,#356,.T.);
#646=ORIENTED_EDGE('',*,*,#378,.T.);
#647=ORIENTED_EDGE('',*,*,#375,.T.);
#648=ORIENTED_EDGE('',*,*,#372,.T.);
#649=ORIENTED_EDGE('',*,*,#369,.T.);
#650=ORIENTED_EDGE('',*,*,#366,.T.);
#651=ORIENTED_EDGE('',*,*,#363,.T.);
#652=ORIENTED_EDGE('',*,*,#360,.T.);
#653=PLANE('',#722);
#654=PLANE('',#726);
#655=PLANE('',#730);
#656=PLANE('',#734);
#657=PLANE('',#751);
#658=PLANE('',#754);
#659=PLANE('',#757);
#660=PLANE('',#758);
#661=PLANE('',#759);
#662=PLANE('',#760);
#663=PLANE('',#761);
#664=PLANE('',#762);
#665=PLANE('',#763);
#666=PLANE('',#764);
#667=PLANE('',#781);
#668=PLANE('',#784);
#669=PLANE('',#789);
#670=PLANE('',#792);
#671=ADVANCED_FACE('',(#78),#653,.F.);
#672=ADVANCED_FACE('',(#79),#61,.F.);
#673=ADVANCED_FACE('',(#80),#654,.F.);
#674=ADVANCED_FACE('',(#81),#62,.F.);
#675=ADVANCED_FACE('',(#82),#655,.F.);
#676=ADVANCED_FACE('',(#83),#63,.F.);
#677=ADVANCED_FACE('',(#84),#656,.F.);
#678=ADVANCED_FACE('',(#85),#64,.F.);
#679=ADVANCED_FACE('',(#86),#65,.T.);
#680=ADVANCED_FACE('',(#87),#66,.T.);
#681=ADVANCED_FACE('',(#88),#25,.T.);
#682=ADVANCED_FACE('',(#89),#67,.T.);
#683=ADVANCED_FACE('',(#90),#26,.T.);
#684=ADVANCED_FACE('',(#91),#657,.T.);
#685=ADVANCED_FACE('',(#92),#68,.T.);
#686=ADVANCED_FACE('',(#93),#658,.T.);
#687=ADVANCED_FACE('',(#94),#69,.T.);
#688=ADVANCED_FACE('',(#95),#659,.T.);
#689=ADVANCED_FACE('',(#96),#660,.T.);
#690=ADVANCED_FACE('',(#97),#661,.F.);
#691=ADVANCED_FACE('',(#98),#662,.T.);
#692=ADVANCED_FACE('',(#99),#663,.F.);
#693=ADVANCED_FACE('',(#100),#664,.F.);
#694=ADVANCED_FACE('',(#101),#665,.F.);
#695=ADVANCED_FACE('',(#102,#15,#16,#17,#18,#19),#666,.F.);
#696=ADVANCED_FACE('',(#103),#70,.F.);
#697=ADVANCED_FACE('',(#104),#71,.F.);
#698=ADVANCED_FACE('',(#105),#72,.F.);
#699=ADVANCED_FACE('',(#106),#73,.F.);
#700=ADVANCED_FACE('',(#107),#667,.T.);
#701=ADVANCED_FACE('',(#108),#74,.T.);
#702=ADVANCED_FACE('',(#109),#668,.T.);
#703=ADVANCED_FACE('',(#110),#75,.T.);
#704=ADVANCED_FACE('',(#111),#76,.T.);
#705=ADVANCED_FACE('',(#112),#669,.T.);
#706=ADVANCED_FACE('',(#113),#77,.T.);
#707=ADVANCED_FACE('',(#114,#20,#21,#22,#23,#24),#670,.T.);
#708=CLOSED_SHELL('',(#671,#672,#673,#674,#675,#676,#677,#678,#679,#680,
#681,#682,#683,#684,#685,#686,#687,#688,#689,#690,#691,#692,#693,#694,#695,
#696,#697,#698,#699,#700,#701,#702,#703,#704,#705,#706,#707));
#709=DERIVED_UNIT_ELEMENT(#711,1.);
#710=DERIVED_UNIT_ELEMENT(#1208,-3.);
#711=(
MASS_UNIT()
NAMED_UNIT(*)
SI_UNIT(.KILO.,.GRAM.)
);
#712=DERIVED_UNIT((#709,#710));
#713=MEASURE_REPRESENTATION_ITEM('density measure',
POSITIVE_RATIO_MEASURE(7850.),#712);
#714=PROPERTY_DEFINITION_REPRESENTATION(#719,#716);
#715=PROPERTY_DEFINITION_REPRESENTATION(#720,#717);
#716=REPRESENTATION('material name',(#718),#1205);
#717=REPRESENTATION('density',(#713),#1205);
#718=DESCRIPTIVE_REPRESENTATION_ITEM('Steel','Steel');
#719=PROPERTY_DEFINITION('material property','material name',#1215);
#720=PROPERTY_DEFINITION('material property','density of part',#1215);
#721=AXIS2_PLACEMENT_3D('',#1002,#793,#794);
#722=AXIS2_PLACEMENT_3D('',#1003,#795,#796);
#723=AXIS2_PLACEMENT_3D('',#1012,#801,#802);
#724=AXIS2_PLACEMENT_3D('',#1014,#803,#804);
#725=AXIS2_PLACEMENT_3D('',#1017,#806,#807);
#726=AXIS2_PLACEMENT_3D('',#1018,#808,#809);
#727=AXIS2_PLACEMENT_3D('',#1024,#813,#814);
#728=AXIS2_PLACEMENT_3D('',#1026,#815,#816);
#729=AXIS2_PLACEMENT_3D('',#1029,#818,#819);
#730=AXIS2_PLACEMENT_3D('',#1030,#820,#821);
#731=AXIS2_PLACEMENT_3D('',#1036,#825,#826);
#732=AXIS2_PLACEMENT_3D('',#1038,#827,#828);
#733=AXIS2_PLACEMENT_3D('',#1041,#830,#831);
#734=AXIS2_PLACEMENT_3D('',#1042,#832,#833);
#735=AXIS2_PLACEMENT_3D('',#1048,#837,#838);
#736=AXIS2_PLACEMENT_3D('',#1049,#839,#840);
#737=AXIS2_PLACEMENT_3D('',#1050,#841,#842);
#738=AXIS2_PLACEMENT_3D('',#1051,#843,#844);
#739=AXIS2_PLACEMENT_3D('',#1054,#845,#846);
#740=AXIS2_PLACEMENT_3D('',#1058,#848,#849);
#741=AXIS2_PLACEMENT_3D('',#1060,#851,#852);
#742=AXIS2_PLACEMENT_3D('',#1062,#853,#854);
#743=AXIS2_PLACEMENT_3D('',#1066,#856,#857);
#744=AXIS2_PLACEMENT_3D('',#1068,#859,#860);
#745=AXIS2_PLACEMENT_3D('',#1069,#861,#862);
#746=AXIS2_PLACEMENT_3D('',#1070,#863,#864);
#747=AXIS2_PLACEMENT_3D('',#1072,#865,#866);
#748=AXIS2_PLACEMENT_3D('',#1076,#868,#869);
#749=AXIS2_PLACEMENT_3D('',#1078,#871,#872);
#750=AXIS2_PLACEMENT_3D('',#1079,#873,#874);
#751=AXIS2_PLACEMENT_3D('',#1080,#875,#876);
#752=AXIS2_PLACEMENT_3D('',#1086,#880,#881);
#753=AXIS2_PLACEMENT_3D('',#1089,#883,#884);
#754=AXIS2_PLACEMENT_3D('',#1090,#885,#886);
#755=AXIS2_PLACEMENT_3D('',#1094,#889,#890);
#756=AXIS2_PLACEMENT_3D('',#1097,#892,#893);
#757=AXIS2_PLACEMENT_3D('',#1098,#894,#895);
#758=AXIS2_PLACEMENT_3D('',#1102,#898,#899);
#759=AXIS2_PLACEMENT_3D('',#1120,#909,#910);
#760=AXIS2_PLACEMENT_3D('',#1126,#914,#915);
#761=AXIS2_PLACEMENT_3D('',#1128,#917,#918);
#762=AXIS2_PLACEMENT_3D('',#1134,#922,#923);
#763=AXIS2_PLACEMENT_3D('',#1136,#925,#926);
#764=AXIS2_PLACEMENT_3D('',#1138,#928,#929);
#765=AXIS2_PLACEMENT_3D('',#1140,#930,#931);
#766=AXIS2_PLACEMENT_3D('',#1144,#933,#934);
#767=AXIS2_PLACEMENT_3D('',#1148,#936,#937);
#768=AXIS2_PLACEMENT_3D('',#1151,#939,#940);
#769=AXIS2_PLACEMENT_3D('',#1153,#941,#942);
#770=AXIS2_PLACEMENT_3D('',#1155,#943,#944);
#771=AXIS2_PLACEMENT_3D('',#1157,#945,#946);
#772=AXIS2_PLACEMENT_3D('',#1159,#947,#948);
#773=AXIS2_PLACEMENT_3D('',#1160,#949,#950);
#774=AXIS2_PLACEMENT_3D('',#1162,#951,#952);
#775=AXIS2_PLACEMENT_3D('',#1164,#954,#955);
#776=AXIS2_PLACEMENT_3D('',#1166,#956,#957);
#777=AXIS2_PLACEMENT_3D('',#1168,#959,#960);
#778=AXIS2_PLACEMENT_3D('',#1170,#961,#962);
#779=AXIS2_PLACEMENT_3D('',#1172,#964,#965);
#780=AXIS2_PLACEMENT_3D('',#1174,#966,#967);
#781=AXIS2_PLACEMENT_3D('',#1176,#969,#970);
#782=AXIS2_PLACEMENT_3D('',#1182,#974,#975);
#783=AXIS2_PLACEMENT_3D('',#1184,#976,#977);
#784=AXIS2_PLACEMENT_3D('',#1186,#979,#980);
#785=AXIS2_PLACEMENT_3D('',#1190,#983,#984);
#786=AXIS2_PLACEMENT_3D('',#1191,#985,#986);
#787=AXIS2_PLACEMENT_3D('',#1192,#987,#988);
#788=AXIS2_PLACEMENT_3D('',#1194,#989,#990);
#789=AXIS2_PLACEMENT_3D('',#1196,#992,#993);
#790=AXIS2_PLACEMENT_3D('',#1200,#996,#997);
#791=AXIS2_PLACEMENT_3D('',#1201,#998,#999);
#792=AXIS2_PLACEMENT_3D('',#1202,#1000,#1001);
#793=DIRECTION('axis',(0.,0.,1.));
#794=DIRECTION('refdir',(1.,0.,0.));
#795=DIRECTION('center_axis',(-1.,0.,0.));
#796=DIRECTION('ref_axis',(0.,1.,0.));
#797=DIRECTION('',(0.,1.,0.));
#798=DIRECTION('',(0.,0.,-1.));
#799=DIRECTION('',(0.,-1.,0.));
#800=DIRECTION('',(0.,0.,-1.));
#801=DIRECTION('center_axis',(0.,0.,-1.));
#802=DIRECTION('ref_axis',(-1.,1.77635683940025E-15,0.));
#803=DIRECTION('center_axis',(0.,0.,-1.));
#804=DIRECTION('ref_axis',(-1.,1.77635683940025E-15,0.));
#805=DIRECTION('',(0.,0.,-1.));
#806=DIRECTION('center_axis',(0.,0.,1.));
#807=DIRECTION('ref_axis',(-1.,1.77635683940025E-15,0.));
#808=DIRECTION('center_axis',(0.,-1.,0.));
#809=DIRECTION('ref_axis',(-1.,0.,0.));
#810=DIRECTION('',(-1.,0.,0.));
#811=DIRECTION('',(0.,0.,-1.));
#812=DIRECTION('',(1.,0.,0.));
#813=DIRECTION('center_axis',(0.,0.,-1.));
#814=DIRECTION('ref_axis',(-1.77635683940025E-15,-1.,0.));
#815=DIRECTION('center_axis',(0.,0.,-1.));
#816=DIRECTION('ref_axis',(-1.77635683940025E-15,-1.,0.));
#817=DIRECTION('',(0.,0.,-1.));
#818=DIRECTION('center_axis',(0.,0.,1.));
#819=DIRECTION('ref_axis',(-1.77635683940025E-15,-1.,0.));
#820=DIRECTION('center_axis',(1.,0.,0.));
#821=DIRECTION('ref_axis',(0.,-1.,0.));
#822=DIRECTION('',(0.,-1.,0.));
#823=DIRECTION('',(0.,0.,-1.));
#824=DIRECTION('',(0.,1.,0.));
#825=DIRECTION('center_axis',(0.,0.,-1.));
#826=DIRECTION('ref_axis',(1.,-8.88178419700126E-16,0.));
#827=DIRECTION('center_axis',(0.,0.,-1.));
#828=DIRECTION('ref_axis',(1.,-8.88178419700126E-16,0.));
#829=DIRECTION('',(0.,0.,-1.));
#830=DIRECTION('center_axis',(0.,0.,1.));
#831=DIRECTION('ref_axis',(1.,-8.88178419700126E-16,0.));
#832=DIRECTION('center_axis',(0.,1.,0.));
#833=DIRECTION('ref_axis',(1.,0.,0.));
#834=DIRECTION('',(1.,0.,0.));
#835=DIRECTION('',(0.,0.,-1.));
#836=DIRECTION('',(-1.,0.,0.));
#837=DIRECTION('center_axis',(0.,0.,-1.));
#838=DIRECTION('ref_axis',(1.77635683940025E-15,1.,0.));
#839=DIRECTION('center_axis',(0.,0.,-1.));
#840=DIRECTION('ref_axis',(1.77635683940025E-15,1.,0.));
#841=DIRECTION('center_axis',(0.,0.,1.));
#842=DIRECTION('ref_axis',(1.77635683940025E-15,1.,0.));
#843=DIRECTION('center_axis',(0.,0.,1.));
#844=DIRECTION('ref_axis',(-0.707106781186547,-0.707106781186548,0.));
#845=DIRECTION('center_axis',(0.,0.,-1.));
#846=DIRECTION('ref_axis',(0.,-1.,0.));
#847=DIRECTION('',(0.,0.,-1.));
#848=DIRECTION('center_axis',(0.,0.,-1.));
#849=DIRECTION('ref_axis',(-0.707106781186547,-0.707106781186548,0.));
#850=DIRECTION('',(0.,0.,1.));
#851=DIRECTION('center_axis',(1.,0.,0.));
#852=DIRECTION('ref_axis',(0.,-0.707106781186548,0.707106781186548));
#853=DIRECTION('center_axis',(1.,0.,0.));
#854=DIRECTION('ref_axis',(0.,0.,1.));
#855=DIRECTION('',(1.,0.,0.));
#856=DIRECTION('center_axis',(-1.,0.,5.55111512312578E-16));
#857=DIRECTION('ref_axis',(0.,-1.,0.));
#858=DIRECTION('',(-1.,0.,0.));
#859=DIRECTION('center_axis',(0.408248290463863,-0.816496580927726,-0.408248290463863));
#860=DIRECTION('ref_axis',(-0.577350269189625,-0.577350269189626,0.577350269189626));
#861=DIRECTION('center_axis',(0.,-1.,0.));
#862=DIRECTION('ref_axis',(-0.707106781186547,0.,0.707106781186548));
#863=DIRECTION('center_axis',(0.,0.,1.));
#864=DIRECTION('ref_axis',(0.707106781186547,-0.707106781186548,0.));
#865=DIRECTION('center_axis',(0.,0.,-1.));
#866=DIRECTION('ref_axis',(1.,0.,0.));
#867=DIRECTION('',(0.,0.,-1.));
#868=DIRECTION('center_axis',(0.,0.,-1.));
#869=DIRECTION('ref_axis',(0.707106781186547,-0.707106781186548,0.));
#870=DIRECTION('',(0.,0.,1.));
#871=DIRECTION('center_axis',(-0.408248290463863,-0.816496580927726,-0.408248290463863));
#872=DIRECTION('ref_axis',(0.577350269189625,-0.577350269189626,0.577350269189626));
#873=DIRECTION('center_axis',(0.,-1.,0.));
#874=DIRECTION('ref_axis',(0.707106781186547,0.,0.707106781186548));
#875=DIRECTION('center_axis',(-1.,0.,0.));
#876=DIRECTION('ref_axis',(0.,-1.,0.));
#877=DIRECTION('',(0.,-1.,0.));
#878=DIRECTION('',(0.,0.,1.));
#879=DIRECTION('',(0.,1.,0.));
#880=DIRECTION('center_axis',(0.,-1.,0.));
#881=DIRECTION('ref_axis',(-0.707106781186548,0.,0.707106781186548));
#882=DIRECTION('',(0.,1.,0.));
#883=DIRECTION('center_axis',(0.,-1.,0.));
#884=DIRECTION('ref_axis',(-0.707106781186548,0.,0.707106781186548));
#885=DIRECTION('center_axis',(0.,0.,1.));
#886=DIRECTION('ref_axis',(1.,0.,0.));
#887=DIRECTION('',(0.,-1.,0.));
#888=DIRECTION('',(-1.,0.,0.));
#889=DIRECTION('center_axis',(0.,1.,0.));
#890=DIRECTION('ref_axis',(0.707106781186547,0.,0.707106781186548));
#891=DIRECTION('',(0.,1.,0.));
#892=DIRECTION('center_axis',(0.,-1.,0.));
#893=DIRECTION('ref_axis',(0.707106781186547,0.,0.707106781186548));
#894=DIRECTION('center_axis',(1.,0.,0.));
#895=DIRECTION('ref_axis',(0.,1.,0.));
#896=DIRECTION('',(0.,-1.,0.));
#897=DIRECTION('',(0.,0.,1.));
#898=DIRECTION('center_axis',(0.,1.,0.));
#899=DIRECTION('ref_axis',(-1.,0.,0.));
#900=DIRECTION('',(-1.,0.,0.));
#901=DIRECTION('',(0.,0.,1.));
#902=DIRECTION('',(-1.,0.,0.));
#903=DIRECTION('',(0.,0.,1.));
#904=DIRECTION('',(-1.,0.,0.));
#905=DIRECTION('',(0.,0.,-1.));
#906=DIRECTION('',(-1.,0.,0.));
#907=DIRECTION('',(0.,0.,1.));
#908=DIRECTION('',(-1.,0.,0.));
#909=DIRECTION('center_axis',(0.,0.,1.));
#910=DIRECTION('ref_axis',(1.,0.,0.));
#911=DIRECTION('',(0.,-1.,0.));
#912=DIRECTION('',(0.,1.,0.));
#913=DIRECTION('',(1.,0.,0.));
#914=DIRECTION('center_axis',(0.,-1.,0.));
#915=DIRECTION('ref_axis',(1.,0.,0.));
#916=DIRECTION('',(-1.,0.,0.));
#917=DIRECTION('center_axis',(0.,-1.,0.));
#918=DIRECTION('ref_axis',(-1.,0.,0.));
#919=DIRECTION('',(0.,0.,-1.));
#920=DIRECTION('',(1.,0.,0.));
#921=DIRECTION('',(0.,0.,1.));
#922=DIRECTION('center_axis',(1.,0.,0.));
#923=DIRECTION('ref_axis',(0.,-1.,0.));
#924=DIRECTION('',(0.,1.,0.));
#925=DIRECTION('center_axis',(-1.,0.,0.));
#926=DIRECTION('ref_axis',(0.,1.,0.));
#927=DIRECTION('',(0.,-1.,0.));
#928=DIRECTION('center_axis',(0.,0.,1.));
#929=DIRECTION('ref_axis',(1.,0.,0.));
#930=DIRECTION('center_axis',(0.,0.,1.));
#931=DIRECTION('ref_axis',(1.,1.77635683940025E-15,0.));
#932=DIRECTION('',(0.,1.,0.));
#933=DIRECTION('center_axis',(0.,0.,1.));
#934=DIRECTION('ref_axis',(3.5527136788005E-15,-1.,0.));
#935=DIRECTION('',(1.,0.,0.));
#936=DIRECTION('center_axis',(0.,0.,1.));
#937=DIRECTION('ref_axis',(-1.,-8.88178419700125E-15,0.));
#938=DIRECTION('',(1.11161254030053E-16,-1.,0.));
#939=DIRECTION('center_axis',(0.,0.,1.));
#940=DIRECTION('ref_axis',(-3.5527136788005E-15,1.,0.));
#941=DIRECTION('center_axis',(0.,0.,-1.));
#942=DIRECTION('ref_axis',(1.,0.,0.));
#943=DIRECTION('center_axis',(0.,0.,-1.));
#944=DIRECTION('ref_axis',(1.,0.,0.));
#945=DIRECTION('center_axis',(0.,0.,-1.));
#946=DIRECTION('ref_axis',(1.,0.,0.));
#947=DIRECTION('center_axis',(0.,0.,-1.));
#948=DIRECTION('ref_axis',(1.,0.,0.));
#949=DIRECTION('center_axis',(0.,0.,1.));
#950=DIRECTION('ref_axis',(1.,0.,0.));
#951=DIRECTION('center_axis',(0.,0.,-1.));
#952=DIRECTION('ref_axis',(1.,0.,0.));
#953=DIRECTION('',(0.,0.,-1.));
#954=DIRECTION('center_axis',(0.,0.,1.));
#955=DIRECTION('ref_axis',(1.,0.,0.));
#956=DIRECTION('center_axis',(0.,0.,-1.));
#957=DIRECTION('ref_axis',(1.,0.,0.));
#958=DIRECTION('',(0.,0.,-1.));
#959=DIRECTION('center_axis',(0.,0.,1.));
#960=DIRECTION('ref_axis',(1.,0.,0.));
#961=DIRECTION('center_axis',(0.,0.,-1.));
#962=DIRECTION('ref_axis',(1.,0.,0.));
#963=DIRECTION('',(0.,0.,-1.));
#964=DIRECTION('center_axis',(0.,0.,1.));
#965=DIRECTION('ref_axis',(1.,0.,0.));
#966=DIRECTION('center_axis',(0.,0.,-1.));
#967=DIRECTION('ref_axis',(1.,0.,0.));
#968=DIRECTION('',(0.,0.,-1.));
#969=DIRECTION('center_axis',(0.,-1.,0.));
#970=DIRECTION('ref_axis',(1.,0.,0.));
#971=DIRECTION('',(0.,0.,1.));
#972=DIRECTION('',(1.,0.,0.));
#973=DIRECTION('',(0.,0.,1.));
#974=DIRECTION('center_axis',(0.,0.,1.));
#975=DIRECTION('ref_axis',(-1.,-8.88178419700125E-15,0.));
#976=DIRECTION('center_axis',(0.,0.,1.));
#977=DIRECTION('ref_axis',(-1.,-8.88178419700125E-15,0.));
#978=DIRECTION('',(0.,0.,1.));
#979=DIRECTION('center_axis',(-1.,-1.11161254030053E-16,0.));
#980=DIRECTION('ref_axis',(1.11161254030053E-16,-1.,0.));
#981=DIRECTION('',(1.11161254030053E-16,-1.,0.));
#982=DIRECTION('',(0.,0.,1.));
#983=DIRECTION('center_axis',(0.,0.,1.));
#984=DIRECTION('ref_axis',(-3.5527136788005E-15,1.,0.));
#985=DIRECTION('center_axis',(0.,0.,1.));
#986=DIRECTION('ref_axis',(-3.5527136788005E-15,1.,0.));
#987=DIRECTION('center_axis',(0.,0.,1.));
#988=DIRECTION('ref_axis',(1.,1.77635683940025E-15,0.));
#989=DIRECTION('center_axis',(0.,0.,1.));
#990=DIRECTION('ref_axis',(1.,1.77635683940025E-15,0.));
#991=DIRECTION('',(0.,0.,1.));
#992=DIRECTION('center_axis',(1.,0.,0.));
#993=DIRECTION('ref_axis',(0.,1.,0.));
#994=DIRECTION('',(0.,1.,0.));
#995=DIRECTION('',(0.,0.,1.));
#996=DIRECTION('center_axis',(0.,0.,1.));
#997=DIRECTION('ref_axis',(3.5527136788005E-15,-1.,0.));
#998=DIRECTION('center_axis',(0.,0.,1.));
#999=DIRECTION('ref_axis',(3.5527136788005E-15,-1.,0.));
#1000=DIRECTION('center_axis',(0.,0.,1.));
#1001=DIRECTION('ref_axis',(1.,0.,0.));
#1002=CARTESIAN_POINT('',(0.,0.,0.));
#1003=CARTESIAN_POINT('Origin',(-30.199998565577,-27.4500015412923,16.));
#1004=CARTESIAN_POINT('',(-30.199998565577,-27.4500015412923,16.));
#1005=CARTESIAN_POINT('',(-30.199998565577,9.54999845870771,16.));
#1006=CARTESIAN_POINT('',(-30.199998565577,-13.7250007706461,16.));
#1007=CARTESIAN_POINT('',(-30.199998565577,-27.4500015412923,13.));
#1008=CARTESIAN_POINT('',(-30.199998565577,-27.4500015412923,16.));
#1009=CARTESIAN_POINT('',(-30.199998565577,9.54999845870771,13.));
#1010=CARTESIAN_POINT('',(-30.199998565577,-13.7250007706461,13.));
#1011=CARTESIAN_POINT('',(-30.199998565577,9.54999845870771,16.));
#1012=CARTESIAN_POINT('Origin',(-25.199998565577,-27.4500015412923,16.));
#1013=CARTESIAN_POINT('',(-25.199998565577,-32.4500015412923,16.));
#1014=CARTESIAN_POINT('Origin',(-25.199998565577,-27.4500015412923,16.));
#1015=CARTESIAN_POINT('',(-25.199998565577,-32.4500015412923,13.));
#1016=CARTESIAN_POINT('',(-25.199998565577,-32.4500015412923,16.));
#1017=CARTESIAN_POINT('Origin',(-25.199998565577,-27.4500015412923,13.));
#1018=CARTESIAN_POINT('Origin',(25.200001434423,-32.4500015412923,16.));
#1019=CARTESIAN_POINT('',(25.200001434423,-32.4500015412923,16.));
#1020=CARTESIAN_POINT('',(12.6000007172115,-32.4500015412923,16.));
#1021=CARTESIAN_POINT('',(25.200001434423,-32.4500015412923,13.));
#1022=CARTESIAN_POINT('',(25.200001434423,-32.4500015412923,16.));
#1023=CARTESIAN_POINT('',(12.6000007172115,-32.4500015412923,13.));
#1024=CARTESIAN_POINT('Origin',(25.200001434423,-27.4500015412923,16.));
#1025=CARTESIAN_POINT('',(30.200001434423,-27.4500015412923,16.));
#1026=CARTESIAN_POINT('Origin',(25.200001434423,-27.4500015412923,16.));
#1027=CARTESIAN_POINT('',(30.200001434423,-27.4500015412923,13.));
#1028=CARTESIAN_POINT('',(30.200001434423,-27.4500015412923,16.));
#1029=CARTESIAN_POINT('Origin',(25.200001434423,-27.4500015412923,13.));
#1030=CARTESIAN_POINT('Origin',(30.200001434423,9.54999845870771,16.));
#1031=CARTESIAN_POINT('',(30.200001434423,9.54999845870771,16.));
#1032=CARTESIAN_POINT('',(30.200001434423,4.77499922935385,16.));
#1033=CARTESIAN_POINT('',(30.200001434423,9.54999845870771,13.));
#1034=CARTESIAN_POINT('',(30.200001434423,9.54999845870771,16.));
#1035=CARTESIAN_POINT('',(30.200001434423,4.77499922935385,13.));
#1036=CARTESIAN_POINT('Origin',(25.200001434423,9.54999845870771,16.));
#1037=CARTESIAN_POINT('',(25.200001434423,14.5499984587077,16.));
#1038=CARTESIAN_POINT('Origin',(25.200001434423,9.54999845870771,16.));
#1039=CARTESIAN_POINT('',(25.200001434423,14.5499984587077,13.));
#1040=CARTESIAN_POINT('',(25.200001434423,14.5499984587077,16.));
#1041=CARTESIAN_POINT('Origin',(25.200001434423,9.54999845870771,13.));
#1042=CARTESIAN_POINT('Origin',(-25.199998565577,14.5499984587077,16.));
#1043=CARTESIAN_POINT('',(-25.199998565577,14.5499984587077,16.));
#1044=CARTESIAN_POINT('',(-12.5999992827885,14.5499984587077,16.));
#1045=CARTESIAN_POINT('',(-25.199998565577,14.5499984587077,13.));
#1046=CARTESIAN_POINT('',(-25.199998565577,14.5499984587077,16.));
#1047=CARTESIAN_POINT('',(-12.5999992827885,14.5499984587077,13.));
#1048=CARTESIAN_POINT('Origin',(-25.199998565577,9.54999845870771,16.));
#1049=CARTESIAN_POINT('Origin',(-25.199998565577,9.54999845870771,16.));
#1050=CARTESIAN_POINT('Origin',(-25.199998565577,9.54999845870771,13.));
#1051=CARTESIAN_POINT('Origin',(-9.00000011920929,23.4499990511686,16.));
#1052=CARTESIAN_POINT('',(-9.00000011920929,21.4499990511686,19.));
#1053=CARTESIAN_POINT('',(-11.0000001192093,23.4499990511686,19.));
#1054=CARTESIAN_POINT('Origin',(-9.00000011920929,23.4499990511686,19.));
#1055=CARTESIAN_POINT('',(-11.0000001192093,23.4499990511686,16.));
#1056=CARTESIAN_POINT('',(-11.0000001192093,23.4499990511686,16.));
#1057=CARTESIAN_POINT('',(-9.00000011920929,21.4499990511686,16.));
#1058=CARTESIAN_POINT('Origin',(-9.00000011920929,23.4499990511686,16.));
#1059=CARTESIAN_POINT('',(-9.00000011920929,21.4499990511686,16.));
#1060=CARTESIAN_POINT('Origin',(-5.50000013411045,23.4499990511686,19.));
#1061=CARTESIAN_POINT('',(-9.00000011920929,23.4499990511686,21.));
#1062=CARTESIAN_POINT('Origin',(-9.00000011920929,23.4499990511686,19.));
#1063=CARTESIAN_POINT('',(8.99999982118607,21.4499990511686,19.));
#1064=CARTESIAN_POINT('',(-5.50000013411045,21.4499990511686,19.));
#1065=CARTESIAN_POINT('',(8.99999982118607,23.4499990511686,21.));
#1066=CARTESIAN_POINT('Origin',(8.99999982118607,23.4499990511686,19.));
#1067=CARTESIAN_POINT('',(-5.50000013411045,23.4499990511686,21.));
#1068=CARTESIAN_POINT('Origin',(-9.00000011920929,23.4499990511686,19.));
#1069=CARTESIAN_POINT('Origin',(-9.00000011920929,23.4499990511686,19.));
#1070=CARTESIAN_POINT('Origin',(8.99999982118607,23.4499990511686,16.));
#1071=CARTESIAN_POINT('',(10.9999998211861,23.4499990511686,19.));
#1072=CARTESIAN_POINT('Origin',(8.99999982118607,23.4499990511686,19.));
#1073=CARTESIAN_POINT('',(8.99999982118607,21.4499990511686,16.));
#1074=CARTESIAN_POINT('',(8.99999982118607,21.4499990511686,16.));
#1075=CARTESIAN_POINT('',(10.9999998211861,23.4499990511686,16.));
#1076=CARTESIAN_POINT('Origin',(8.99999982118607,23.4499990511686,16.));
#1077=CARTESIAN_POINT('',(10.9999998211861,23.4499990511686,16.));
#1078=CARTESIAN_POINT('Origin',(8.99999982118607,23.4499990511686,19.));
#1079=CARTESIAN_POINT('Origin',(8.99999982118607,23.4499990511686,19.));
#1080=CARTESIAN_POINT('Origin',(-11.0000001192093,42.45,16.));
#1081=CARTESIAN_POINT('',(-11.0000001192093,42.45,19.));
#1082=CARTESIAN_POINT('',(-11.0000001192093,37.1999997627921,19.));
#1083=CARTESIAN_POINT('',(-11.0000001192093,42.45,16.));
#1084=CARTESIAN_POINT('',(-11.0000001192093,42.45,16.));
#1085=CARTESIAN_POINT('',(-11.0000001192093,21.225,16.));
#1086=CARTESIAN_POINT('Origin',(-9.00000011920929,37.1999997627921,19.));
#1087=CARTESIAN_POINT('',(-9.00000011920929,42.45,21.));
#1088=CARTESIAN_POINT('',(-9.00000011920929,37.1999997627921,21.));
#1089=CARTESIAN_POINT('Origin',(-9.00000011920929,42.45,19.));
#1090=CARTESIAN_POINT('Origin',(-1.49011611938477E-7,31.9499995255843,21.));
#1091=CARTESIAN_POINT('',(8.99999982118607,42.45,21.));
#1092=CARTESIAN_POINT('',(8.99999982118607,26.6999992883764,21.));
#1093=CARTESIAN_POINT('',(-11.0000001192093,42.45,21.));
#1094=CARTESIAN_POINT('Origin',(8.99999982118607,26.6999992883764,19.));
#1095=CARTESIAN_POINT('',(10.9999998211861,42.45,19.));
#1096=CARTESIAN_POINT('',(10.9999998211861,26.6999992883764,19.));
#1097=CARTESIAN_POINT('Origin',(8.99999982118607,42.45,19.));
#1098=CARTESIAN_POINT('Origin',(10.9999998211861,21.4499990511686,16.));
#1099=CARTESIAN_POINT('',(10.9999998211861,42.45,16.));
#1100=CARTESIAN_POINT('',(10.9999998211861,10.7249995255843,16.));
#1101=CARTESIAN_POINT('',(10.9999998211861,42.45,16.));
#1102=CARTESIAN_POINT('Origin',(37.7,42.45,13.));
#1103=CARTESIAN_POINT('',(37.7,42.45,16.));
#1104=CARTESIAN_POINT('',(37.7,42.45,16.));
#1105=CARTESIAN_POINT('',(37.7,42.45,13.));
#1106=CARTESIAN_POINT('',(37.7,42.45,13.));
#1107=CARTESIAN_POINT('',(7.99999982118607,42.45,13.));
#1108=CARTESIAN_POINT('',(37.7,42.45,13.));
#1109=CARTESIAN_POINT('',(7.99999982118607,42.45,19.));
#1110=CARTESIAN_POINT('',(7.99999982118607,42.45,14.5));
#1111=CARTESIAN_POINT('',(-8.00000011920929,42.45,19.));
#1112=CARTESIAN_POINT('',(18.8499999254942,42.45,19.));
#1113=CARTESIAN_POINT('',(-8.00000011920929,42.4499990511686,13.));
#1114=CARTESIAN_POINT('',(-8.00000011920929,42.45,14.5));
#1115=CARTESIAN_POINT('',(-37.7,42.45,13.));
#1116=CARTESIAN_POINT('',(37.7,42.45,13.));
#1117=CARTESIAN_POINT('',(-37.7,42.45,16.));
#1118=CARTESIAN_POINT('',(-37.7,42.45,13.));
#1119=CARTESIAN_POINT('',(37.7,42.45,16.));
#1120=CARTESIAN_POINT('Origin',(-1.49011611938477E-7,33.4499995255843,19.));
#1121=CARTESIAN_POINT('',(-8.00000011920929,24.4499990511686,19.));
#1122=CARTESIAN_POINT('',(-8.00000011920929,42.4499990511686,19.));
#1123=CARTESIAN_POINT('',(7.99999982118607,24.4499990511686,19.));
#1124=CARTESIAN_POINT('',(7.99999982118607,24.4499990511686,19.));
#1125=CARTESIAN_POINT('',(-8.00000011920929,24.4499990511686,19.));
#1126=CARTESIAN_POINT('Origin',(-11.0000001192093,21.4499990511686,16.));
#1127=CARTESIAN_POINT('',(-5.50000005960464,21.4499990511686,16.));
#1128=CARTESIAN_POINT('Origin',(7.99999982118607,24.4499990511686,16.));
#1129=CARTESIAN_POINT('',(7.99999982118607,24.4499990511686,13.));
#1130=CARTESIAN_POINT('',(7.99999982118607,24.4499990511686,16.));
#1131=CARTESIAN_POINT('',(-8.00000011920929,24.4499990511686,13.));
#1132=CARTESIAN_POINT('',(3.99999991059303,24.4499990511686,13.));
#1133=CARTESIAN_POINT('',(-8.00000011920929,24.4499990511686,16.));
#1134=CARTESIAN_POINT('Origin',(7.99999982118607,42.45,16.));
#1135=CARTESIAN_POINT('',(7.99999982118607,21.225,13.));
#1136=CARTESIAN_POINT('Origin',(-8.00000011920929,24.4499990511686,16.));
#1137=CARTESIAN_POINT('',(-8.00000011920929,12.2249995255843,13.));
#1138=CARTESIAN_POINT('Origin',(0.,0.,13.));
#1139=CARTESIAN_POINT('',(40.2,39.95,13.));
#1140=CARTESIAN_POINT('Origin',(37.7,39.95,13.));
#1141=CARTESIAN_POINT('',(40.2,-39.95,13.));
#1142=CARTESIAN_POINT('',(40.2,-39.95,13.));
#1143=CARTESIAN_POINT('',(37.7,-42.45,13.));
#1144=CARTESIAN_POINT('Origin',(37.7,-39.95,13.));
#1145=CARTESIAN_POINT('',(-37.7,-42.45,13.));
#1146=CARTESIAN_POINT('',(-37.7,-42.45,13.));
#1147=CARTESIAN_POINT('',(-40.2,-39.95,13.));
#1148=CARTESIAN_POINT('Origin',(-37.7,-39.95,13.));
#1149=CARTESIAN_POINT('',(-40.2,39.95,13.));
#1150=CARTESIAN_POINT('',(-40.2,39.95,13.));
#1151=CARTESIAN_POINT('Origin',(-37.7,39.95,13.));
#1152=CARTESIAN_POINT('',(33.75,37.45,13.));
#1153=CARTESIAN_POINT('Origin',(35.2,37.45,13.));
#1154=CARTESIAN_POINT('',(33.75,-37.45,13.));
#1155=CARTESIAN_POINT('Origin',(35.2,-37.45,13.));
#1156=CARTESIAN_POINT('',(-36.65,37.45,13.));
#1157=CARTESIAN_POINT('Origin',(-35.2,37.45,13.));
#1158=CARTESIAN_POINT('',(-36.65,-37.45,13.));
#1159=CARTESIAN_POINT('Origin',(-35.2,-37.45,13.));
#1160=CARTESIAN_POINT('Origin',(35.2,37.45,13.));
#1161=CARTESIAN_POINT('',(33.75,37.45,16.));
#1162=CARTESIAN_POINT('Origin',(35.2,37.45,16.));
#1163=CARTESIAN_POINT('',(33.75,37.45,13.));
#1164=CARTESIAN_POINT('Origin',(35.2,-37.45,13.));
#1165=CARTESIAN_POINT('',(33.75,-37.45,16.));
#1166=CARTESIAN_POINT('Origin',(35.2,-37.45,16.));
#1167=CARTESIAN_POINT('',(33.75,-37.45,13.));
#1168=CARTESIAN_POINT('Origin',(-35.2,37.45,13.));
#1169=CARTESIAN_POINT('',(-36.65,37.45,16.));
#1170=CARTESIAN_POINT('Origin',(-35.2,37.45,16.));
#1171=CARTESIAN_POINT('',(-36.65,37.45,13.));
#1172=CARTESIAN_POINT('Origin',(-35.2,-37.45,13.));
#1173=CARTESIAN_POINT('',(-36.65,-37.45,16.));
#1174=CARTESIAN_POINT('Origin',(-35.2,-37.45,16.));
#1175=CARTESIAN_POINT('',(-36.65,-37.45,13.));
#1176=CARTESIAN_POINT('Origin',(-37.7,-42.45,13.));
#1177=CARTESIAN_POINT('',(37.7,-42.45,16.));
#1178=CARTESIAN_POINT('',(37.7,-42.45,13.));
#1179=CARTESIAN_POINT('',(-37.7,-42.45,16.));
#1180=CARTESIAN_POINT('',(-37.7,-42.45,16.));
#1181=CARTESIAN_POINT('',(-37.7,-42.45,13.));
#1182=CARTESIAN_POINT('Origin',(-37.7,-39.95,13.));
#1183=CARTESIAN_POINT('',(-40.2,-39.95,16.));
#1184=CARTESIAN_POINT('Origin',(-37.7,-39.95,16.));
#1185=CARTESIAN_POINT('',(-40.2,-39.95,13.));
#1186=CARTESIAN_POINT('Origin',(-40.2,39.95,13.));
#1187=CARTESIAN_POINT('',(-40.2,39.95,16.));
#1188=CARTESIAN_POINT('',(-40.2,39.95,16.));
#1189=CARTESIAN_POINT('',(-40.2,39.95,13.));
#1190=CARTESIAN_POINT('Origin',(-37.7,39.95,13.));
#1191=CARTESIAN_POINT('Origin',(-37.7,39.95,16.));
#1192=CARTESIAN_POINT('Origin',(37.7,39.95,13.));
#1193=CARTESIAN_POINT('',(40.2,39.95,16.));
#1194=CARTESIAN_POINT('Origin',(37.7,39.95,16.));
#1195=CARTESIAN_POINT('',(40.2,39.95,13.));
#1196=CARTESIAN_POINT('Origin',(40.2,-39.95,13.));
#1197=CARTESIAN_POINT('',(40.2,-39.95,16.));
#1198=CARTESIAN_POINT('',(40.2,-39.95,16.));
#1199=CARTESIAN_POINT('',(40.2,-39.95,13.));
#1200=CARTESIAN_POINT('Origin',(37.7,-39.95,13.));
#1201=CARTESIAN_POINT('Origin',(37.7,-39.95,16.));
#1202=CARTESIAN_POINT('Origin',(0.,0.,16.));
#1203=UNCERTAINTY_MEASURE_WITH_UNIT(LENGTH_MEASURE(0.01),#1207,
'DISTANCE_ACCURACY_VALUE',
'Maximum model space distance between geometric entities at asserted c
onnectivities');
#1204=UNCERTAINTY_MEASURE_WITH_UNIT(LENGTH_MEASURE(0.01),#1207,
'DISTANCE_ACCURACY_VALUE',
'Maximum model space distance between geometric entities at asserted c
onnectivities');
#1205=(
GEOMETRIC_REPRESENTATION_CONTEXT(3)
GLOBAL_UNCERTAINTY_ASSIGNED_CONTEXT((#1203))
GLOBAL_UNIT_ASSIGNED_CONTEXT((#1207,#1209,#1210))
REPRESENTATION_CONTEXT('','3D')
);
#1206=(
GEOMETRIC_REPRESENTATION_CONTEXT(3)
GLOBAL_UNCERTAINTY_ASSIGNED_CONTEXT((#1204))
GLOBAL_UNIT_ASSIGNED_CONTEXT((#1207,#1209,#1210))
REPRESENTATION_CONTEXT('','3D')
);
#1207=(
LENGTH_UNIT()
NAMED_UNIT(*)
SI_UNIT(.MILLI.,.METRE.)
);
#1208=(
LENGTH_UNIT()
NAMED_UNIT(*)
SI_UNIT($,.METRE.)
);
#1209=(
NAMED_UNIT(*)
PLANE_ANGLE_UNIT()
SI_UNIT($,.RADIAN.)
);
#1210=(
NAMED_UNIT(*)
SI_UNIT($,.STERADIAN.)
SOLID_ANGLE_UNIT()
);
#1211=SHAPE_DEFINITION_REPRESENTATION(#1212,#1213);
#1212=PRODUCT_DEFINITION_SHAPE('',$,#1215);
#1213=SHAPE_REPRESENTATION('',(#721),#1205);
#1214=PRODUCT_DEFINITION_CONTEXT('part definition',#1219,'design');
#1215=PRODUCT_DEFINITION('2026-08-15-19-19-58-362','HackPad Case',#1216,
#1214);
#1216=PRODUCT_DEFINITION_FORMATION('',$,#1221);
#1217=PRODUCT_RELATED_PRODUCT_CATEGORY('HackPad Case','HackPad Case',(#1221));
#1218=APPLICATION_PROTOCOL_DEFINITION('international standard',
'automotive_design',2009,#1219);
#1219=APPLICATION_CONTEXT(
'Core Data for Automotive Mechanical Design Process');
#1220=PRODUCT_CONTEXT('part definition',#1219,'mechanical');
#1221=PRODUCT('2026-08-15-19-19-58-362','HackPad Case',$,(#1220));
#1222=PRESENTATION_STYLE_ASSIGNMENT((#1224));
#1223=PRESENTATION_STYLE_ASSIGNMENT((#1225));
#1224=SURFACE_STYLE_USAGE(.BOTH.,#1226);
#1225=SURFACE_STYLE_USAGE(.BOTH.,#1227);
#1226=SURFACE_SIDE_STYLE('',(#1228));
#1227=SURFACE_SIDE_STYLE('',(#1229));
#1228=SURFACE_STYLE_FILL_AREA(#1230);
#1229=SURFACE_STYLE_FILL_AREA(#1231);
#1230=FILL_AREA_STYLE('Steel - Satin',(#1232));
#1231=FILL_AREA_STYLE('ABS (White)',(#1233));
#1232=FILL_AREA_STYLE_COLOUR('Steel - Satin',#1234);
#1233=FILL_AREA_STYLE_COLOUR('ABS (White)',#1235);
#1234=COLOUR_RGB('Steel - Satin',0.627450980392157,0.627450980392157,0.627450980392157);
#1235=COLOUR_RGB('ABS (White)',0.964705882352941,0.964705882352941,0.952941176470588);
ENDSEC;
END-ISO-10303-21;
