ISO-10303-21;
HEADER;
/* Generated by software containing ST-Developer
 * from STEP Tools, Inc. (www.steptools.com) 
 */

FILE_DESCRIPTION(
/* description */ (''),
/* implementation_level */ '2;1');

FILE_NAME(
/* name */ 'TopPart.step',
/* time_stamp */ '2026-08-16T19:51:09+01:00',
/* author */ (''),
/* organization */ (''),
/* preprocessor_version */ 'ST-DEVELOPER v20.1',
/* originating_system */ 'Autodesk Translation Framework v15.8.0.0',
/* authorisation */ '');

FILE_SCHEMA (('AUTOMOTIVE_DESIGN { 1 0 10303 214 3 1 1 }'));
ENDSEC;

DATA;
#10=MECHANICAL_DESIGN_GEOMETRIC_PRESENTATION_REPRESENTATION('',(#13),#2135);
#11=SHAPE_REPRESENTATION_RELATIONSHIP('SRR','None',#2142,#12);
#12=ADVANCED_BREP_SHAPE_REPRESENTATION('',(#14),#2134);
#13=STYLED_ITEM('',(#2151),#14);
#14=MANIFOLD_SOLID_BREP('Body3',#1259);
#15=FACE_BOUND('',#188,.T.);
#16=FACE_BOUND('',#189,.T.);
#17=FACE_BOUND('',#190,.T.);
#18=FACE_BOUND('',#191,.T.);
#19=FACE_BOUND('',#192,.T.);
#20=FACE_BOUND('',#193,.T.);
#21=FACE_BOUND('',#194,.T.);
#22=FACE_BOUND('',#195,.T.);
#23=FACE_BOUND('',#196,.T.);
#24=FACE_BOUND('',#197,.T.);
#25=FACE_BOUND('',#199,.T.);
#26=FACE_BOUND('',#200,.T.);
#27=FACE_BOUND('',#201,.T.);
#28=FACE_BOUND('',#202,.T.);
#29=FACE_BOUND('',#203,.T.);
#30=FACE_BOUND('',#204,.T.);
#31=FACE_BOUND('',#205,.T.);
#32=FACE_BOUND('',#206,.T.);
#33=FACE_BOUND('',#207,.T.);
#34=FACE_BOUND('',#208,.T.);
#35=PLANE('',#1285);
#36=PLANE('',#1289);
#37=PLANE('',#1293);
#38=PLANE('',#1297);
#39=PLANE('',#1301);
#40=PLANE('',#1305);
#41=PLANE('',#1309);
#42=PLANE('',#1313);
#43=PLANE('',#1317);
#44=PLANE('',#1321);
#45=PLANE('',#1325);
#46=PLANE('',#1329);
#47=PLANE('',#1333);
#48=PLANE('',#1337);
#49=PLANE('',#1341);
#50=PLANE('',#1345);
#51=PLANE('',#1349);
#52=PLANE('',#1353);
#53=PLANE('',#1357);
#54=PLANE('',#1361);
#55=PLANE('',#1365);
#56=PLANE('',#1369);
#57=PLANE('',#1373);
#58=PLANE('',#1377);
#59=PLANE('',#1381);
#60=PLANE('',#1385);
#61=PLANE('',#1389);
#62=PLANE('',#1393);
#63=PLANE('',#1397);
#64=PLANE('',#1398);
#65=FACE_OUTER_BOUND('',#127,.T.);
#66=FACE_OUTER_BOUND('',#128,.T.);
#67=FACE_OUTER_BOUND('',#129,.T.);
#68=FACE_OUTER_BOUND('',#130,.T.);
#69=FACE_OUTER_BOUND('',#131,.T.);
#70=FACE_OUTER_BOUND('',#132,.T.);
#71=FACE_OUTER_BOUND('',#133,.T.);
#72=FACE_OUTER_BOUND('',#134,.T.);
#73=FACE_OUTER_BOUND('',#135,.T.);
#74=FACE_OUTER_BOUND('',#136,.T.);
#75=FACE_OUTER_BOUND('',#137,.T.);
#76=FACE_OUTER_BOUND('',#138,.T.);
#77=FACE_OUTER_BOUND('',#139,.T.);
#78=FACE_OUTER_BOUND('',#140,.T.);
#79=FACE_OUTER_BOUND('',#141,.T.);
#80=FACE_OUTER_BOUND('',#142,.T.);
#81=FACE_OUTER_BOUND('',#143,.T.);
#82=FACE_OUTER_BOUND('',#144,.T.);
#83=FACE_OUTER_BOUND('',#145,.T.);
#84=FACE_OUTER_BOUND('',#146,.T.);
#85=FACE_OUTER_BOUND('',#147,.T.);
#86=FACE_OUTER_BOUND('',#148,.T.);
#87=FACE_OUTER_BOUND('',#149,.T.);
#88=FACE_OUTER_BOUND('',#150,.T.);
#89=FACE_OUTER_BOUND('',#151,.T.);
#90=FACE_OUTER_BOUND('',#152,.T.);
#91=FACE_OUTER_BOUND('',#153,.T.);
#92=FACE_OUTER_BOUND('',#154,.T.);
#93=FACE_OUTER_BOUND('',#155,.T.);
#94=FACE_OUTER_BOUND('',#156,.T.);
#95=FACE_OUTER_BOUND('',#157,.T.);
#96=FACE_OUTER_BOUND('',#158,.T.);
#97=FACE_OUTER_BOUND('',#159,.T.);
#98=FACE_OUTER_BOUND('',#160,.T.);
#99=FACE_OUTER_BOUND('',#161,.T.);
#100=FACE_OUTER_BOUND('',#162,.T.);
#101=FACE_OUTER_BOUND('',#163,.T.);
#102=FACE_OUTER_BOUND('',#164,.T.);
#103=FACE_OUTER_BOUND('',#165,.T.);
#104=FACE_OUTER_BOUND('',#166,.T.);
#105=FACE_OUTER_BOUND('',#167,.T.);
#106=FACE_OUTER_BOUND('',#168,.T.);
#107=FACE_OUTER_BOUND('',#169,.T.);
#108=FACE_OUTER_BOUND('',#170,.T.);
#109=FACE_OUTER_BOUND('',#171,.T.);
#110=FACE_OUTER_BOUND('',#172,.T.);
#111=FACE_OUTER_BOUND('',#173,.T.);
#112=FACE_OUTER_BOUND('',#174,.T.);
#113=FACE_OUTER_BOUND('',#175,.T.);
#114=FACE_OUTER_BOUND('',#176,.T.);
#115=FACE_OUTER_BOUND('',#177,.T.);
#116=FACE_OUTER_BOUND('',#178,.T.);
#117=FACE_OUTER_BOUND('',#179,.T.);
#118=FACE_OUTER_BOUND('',#180,.T.);
#119=FACE_OUTER_BOUND('',#181,.T.);
#120=FACE_OUTER_BOUND('',#182,.T.);
#121=FACE_OUTER_BOUND('',#183,.T.);
#122=FACE_OUTER_BOUND('',#184,.T.);
#123=FACE_OUTER_BOUND('',#185,.T.);
#124=FACE_OUTER_BOUND('',#186,.T.);
#125=FACE_OUTER_BOUND('',#187,.T.);
#126=FACE_OUTER_BOUND('',#198,.T.);
#127=EDGE_LOOP('',(#805,#806,#807,#808));
#128=EDGE_LOOP('',(#809,#810,#811,#812));
#129=EDGE_LOOP('',(#813,#814,#815,#816));
#130=EDGE_LOOP('',(#817,#818,#819,#820));
#131=EDGE_LOOP('',(#821,#822,#823,#824));
#132=EDGE_LOOP('',(#825,#826,#827,#828));
#133=EDGE_LOOP('',(#829,#830,#831,#832));
#134=EDGE_LOOP('',(#833,#834,#835,#836));
#135=EDGE_LOOP('',(#837,#838,#839,#840));
#136=EDGE_LOOP('',(#841,#842,#843,#844));
#137=EDGE_LOOP('',(#845,#846,#847,#848));
#138=EDGE_LOOP('',(#849,#850,#851,#852));
#139=EDGE_LOOP('',(#853,#854,#855,#856));
#140=EDGE_LOOP('',(#857,#858,#859,#860));
#141=EDGE_LOOP('',(#861,#862,#863,#864));
#142=EDGE_LOOP('',(#865,#866,#867,#868));
#143=EDGE_LOOP('',(#869,#870,#871,#872));
#144=EDGE_LOOP('',(#873,#874,#875,#876));
#145=EDGE_LOOP('',(#877,#878,#879,#880));
#146=EDGE_LOOP('',(#881,#882,#883,#884));
#147=EDGE_LOOP('',(#885,#886,#887,#888));
#148=EDGE_LOOP('',(#889,#890,#891,#892));
#149=EDGE_LOOP('',(#893,#894,#895,#896));
#150=EDGE_LOOP('',(#897,#898,#899,#900));
#151=EDGE_LOOP('',(#901,#902,#903,#904));
#152=EDGE_LOOP('',(#905,#906,#907,#908));
#153=EDGE_LOOP('',(#909,#910,#911,#912));
#154=EDGE_LOOP('',(#913,#914,#915,#916));
#155=EDGE_LOOP('',(#917,#918,#919,#920));
#156=EDGE_LOOP('',(#921,#922,#923,#924));
#157=EDGE_LOOP('',(#925,#926,#927,#928));
#158=EDGE_LOOP('',(#929,#930,#931,#932));
#159=EDGE_LOOP('',(#933,#934,#935,#936));
#160=EDGE_LOOP('',(#937,#938,#939,#940));
#161=EDGE_LOOP('',(#941,#942,#943,#944));
#162=EDGE_LOOP('',(#945,#946,#947,#948));
#163=EDGE_LOOP('',(#949,#950,#951,#952));
#164=EDGE_LOOP('',(#953,#954,#955,#956));
#165=EDGE_LOOP('',(#957,#958,#959,#960));
#166=EDGE_LOOP('',(#961,#962,#963,#964));
#167=EDGE_LOOP('',(#965,#966,#967,#968));
#168=EDGE_LOOP('',(#969,#970,#971,#972));
#169=EDGE_LOOP('',(#973,#974,#975,#976));
#170=EDGE_LOOP('',(#977,#978,#979,#980));
#171=EDGE_LOOP('',(#981,#982,#983,#984));
#172=EDGE_LOOP('',(#985,#986,#987,#988));
#173=EDGE_LOOP('',(#989,#990,#991,#992));
#174=EDGE_LOOP('',(#993,#994,#995,#996));
#175=EDGE_LOOP('',(#997,#998,#999,#1000));
#176=EDGE_LOOP('',(#1001,#1002,#1003,#1004));
#177=EDGE_LOOP('',(#1005,#1006,#1007,#1008));
#178=EDGE_LOOP('',(#1009,#1010,#1011,#1012));
#179=EDGE_LOOP('',(#1013,#1014,#1015,#1016));
#180=EDGE_LOOP('',(#1017,#1018,#1019,#1020));
#181=EDGE_LOOP('',(#1021,#1022,#1023,#1024));
#182=EDGE_LOOP('',(#1025,#1026,#1027,#1028));
#183=EDGE_LOOP('',(#1029,#1030,#1031,#1032));
#184=EDGE_LOOP('',(#1033,#1034,#1035,#1036));
#185=EDGE_LOOP('',(#1037,#1038,#1039,#1040));
#186=EDGE_LOOP('',(#1041,#1042,#1043,#1044));
#187=EDGE_LOOP('',(#1045,#1046,#1047,#1048,#1049,#1050,#1051,#1052));
#188=EDGE_LOOP('',(#1053));
#189=EDGE_LOOP('',(#1054));
#190=EDGE_LOOP('',(#1055));
#191=EDGE_LOOP('',(#1056));
#192=EDGE_LOOP('',(#1057,#1058,#1059,#1060,#1061,#1062,#1063,#1064));
#193=EDGE_LOOP('',(#1065,#1066,#1067,#1068,#1069,#1070,#1071,#1072));
#194=EDGE_LOOP('',(#1073,#1074,#1075,#1076,#1077,#1078,#1079,#1080));
#195=EDGE_LOOP('',(#1081,#1082,#1083,#1084,#1085,#1086,#1087,#1088));
#196=EDGE_LOOP('',(#1089,#1090,#1091,#1092,#1093,#1094,#1095,#1096));
#197=EDGE_LOOP('',(#1097,#1098,#1099,#1100,#1101,#1102,#1103,#1104));
#198=EDGE_LOOP('',(#1105,#1106,#1107,#1108,#1109,#1110,#1111,#1112));
#199=EDGE_LOOP('',(#1113));
#200=EDGE_LOOP('',(#1114));
#201=EDGE_LOOP('',(#1115));
#202=EDGE_LOOP('',(#1116));
#203=EDGE_LOOP('',(#1117,#1118,#1119,#1120,#1121,#1122,#1123,#1124));
#204=EDGE_LOOP('',(#1125,#1126,#1127,#1128,#1129,#1130,#1131,#1132));
#205=EDGE_LOOP('',(#1133,#1134,#1135,#1136,#1137,#1138,#1139,#1140));
#206=EDGE_LOOP('',(#1141,#1142,#1143,#1144,#1145,#1146,#1147,#1148));
#207=EDGE_LOOP('',(#1149,#1150,#1151,#1152,#1153,#1154,#1155,#1156));
#208=EDGE_LOOP('',(#1157,#1158,#1159,#1160,#1161,#1162,#1163,#1164));
#209=LINE('',#1774,#325);
#210=LINE('',#1780,#326);
#211=LINE('',#1786,#327);
#212=LINE('',#1792,#328);
#213=LINE('',#1797,#329);
#214=LINE('',#1799,#330);
#215=LINE('',#1801,#331);
#216=LINE('',#1802,#332);
#217=LINE('',#1808,#333);
#218=LINE('',#1811,#334);
#219=LINE('',#1813,#335);
#220=LINE('',#1814,#336);
#221=LINE('',#1820,#337);
#222=LINE('',#1823,#338);
#223=LINE('',#1825,#339);
#224=LINE('',#1826,#340);
#225=LINE('',#1832,#341);
#226=LINE('',#1835,#342);
#227=LINE('',#1837,#343);
#228=LINE('',#1838,#344);
#229=LINE('',#1845,#345);
#230=LINE('',#1847,#346);
#231=LINE('',#1849,#347);
#232=LINE('',#1850,#348);
#233=LINE('',#1855,#349);
#234=LINE('',#1859,#350);
#235=LINE('',#1861,#351);
#236=LINE('',#1862,#352);
#237=LINE('',#1867,#353);
#238=LINE('',#1871,#354);
#239=LINE('',#1873,#355);
#240=LINE('',#1874,#356);
#241=LINE('',#1879,#357);
#242=LINE('',#1883,#358);
#243=LINE('',#1885,#359);
#244=LINE('',#1886,#360);
#245=LINE('',#1893,#361);
#246=LINE('',#1895,#362);
#247=LINE('',#1897,#363);
#248=LINE('',#1898,#364);
#249=LINE('',#1903,#365);
#250=LINE('',#1907,#366);
#251=LINE('',#1909,#367);
#252=LINE('',#1910,#368);
#253=LINE('',#1915,#369);
#254=LINE('',#1919,#370);
#255=LINE('',#1921,#371);
#256=LINE('',#1922,#372);
#257=LINE('',#1927,#373);
#258=LINE('',#1931,#374);
#259=LINE('',#1933,#375);
#260=LINE('',#1934,#376);
#261=LINE('',#1941,#377);
#262=LINE('',#1943,#378);
#263=LINE('',#1945,#379);
#264=LINE('',#1946,#380);
#265=LINE('',#1951,#381);
#266=LINE('',#1955,#382);
#267=LINE('',#1957,#383);
#268=LINE('',#1958,#384);
#269=LINE('',#1963,#385);
#270=LINE('',#1967,#386);
#271=LINE('',#1969,#387);
#272=LINE('',#1970,#388);
#273=LINE('',#1975,#389);
#274=LINE('',#1979,#390);
#275=LINE('',#1981,#391);
#276=LINE('',#1982,#392);
#277=LINE('',#1989,#393);
#278=LINE('',#1991,#394);
#279=LINE('',#1993,#395);
#280=LINE('',#1994,#396);
#281=LINE('',#1999,#397);
#282=LINE('',#2003,#398);
#283=LINE('',#2005,#399);
#284=LINE('',#2006,#400);
#285=LINE('',#2011,#401);
#286=LINE('',#2015,#402);
#287=LINE('',#2017,#403);
#288=LINE('',#2018,#404);
#289=LINE('',#2023,#405);
#290=LINE('',#2027,#406);
#291=LINE('',#2029,#407);
#292=LINE('',#2030,#408);
#293=LINE('',#2037,#409);
#294=LINE('',#2039,#410);
#295=LINE('',#2041,#411);
#296=LINE('',#2042,#412);
#297=LINE('',#2047,#413);
#298=LINE('',#2051,#414);
#299=LINE('',#2053,#415);
#300=LINE('',#2054,#416);
#301=LINE('',#2059,#417);
#302=LINE('',#2063,#418);
#303=LINE('',#2065,#419);
#304=LINE('',#2066,#420);
#305=LINE('',#2071,#421);
#306=LINE('',#2075,#422);
#307=LINE('',#2077,#423);
#308=LINE('',#2078,#424);
#309=LINE('',#2085,#425);
#310=LINE('',#2087,#426);
#311=LINE('',#2089,#427);
#312=LINE('',#2090,#428);
#313=LINE('',#2095,#429);
#314=LINE('',#2099,#430);
#315=LINE('',#2101,#431);
#316=LINE('',#2102,#432);
#317=LINE('',#2107,#433);
#318=LINE('',#2111,#434);
#319=LINE('',#2113,#435);
#320=LINE('',#2114,#436);
#321=LINE('',#2119,#437);
#322=LINE('',#2123,#438);
#323=LINE('',#2125,#439);
#324=LINE('',#2126,#440);
#325=VECTOR('',#1405,1.45);
#326=VECTOR('',#1412,1.45);
#327=VECTOR('',#1419,1.45);
#328=VECTOR('',#1426,1.45);
#329=VECTOR('',#1431,10.);
#330=VECTOR('',#1432,10.);
#331=VECTOR('',#1433,10.);
#332=VECTOR('',#1434,10.);
#333=VECTOR('',#1441,10.);
#334=VECTOR('',#1444,10.);
#335=VECTOR('',#1445,10.);
#336=VECTOR('',#1446,10.);
#337=VECTOR('',#1453,10.);
#338=VECTOR('',#1456,10.);
#339=VECTOR('',#1457,10.);
#340=VECTOR('',#1458,10.);
#341=VECTOR('',#1465,10.);
#342=VECTOR('',#1468,10.);
#343=VECTOR('',#1469,10.);
#344=VECTOR('',#1470,10.);
#345=VECTOR('',#1479,10.);
#346=VECTOR('',#1480,10.);
#347=VECTOR('',#1481,10.);
#348=VECTOR('',#1482,10.);
#349=VECTOR('',#1487,10.);
#350=VECTOR('',#1492,10.);
#351=VECTOR('',#1493,10.);
#352=VECTOR('',#1494,10.);
#353=VECTOR('',#1499,10.);
#354=VECTOR('',#1504,10.);
#355=VECTOR('',#1505,10.);
#356=VECTOR('',#1506,10.);
#357=VECTOR('',#1511,10.);
#358=VECTOR('',#1516,10.);
#359=VECTOR('',#1517,10.);
#360=VECTOR('',#1518,10.);
#361=VECTOR('',#1527,10.);
#362=VECTOR('',#1528,10.);
#363=VECTOR('',#1529,10.);
#364=VECTOR('',#1530,10.);
#365=VECTOR('',#1535,10.);
#366=VECTOR('',#1540,10.);
#367=VECTOR('',#1541,10.);
#368=VECTOR('',#1542,10.);
#369=VECTOR('',#1547,10.);
#370=VECTOR('',#1552,10.);
#371=VECTOR('',#1553,10.);
#372=VECTOR('',#1554,10.);
#373=VECTOR('',#1559,10.);
#374=VECTOR('',#1564,10.);
#375=VECTOR('',#1565,10.);
#376=VECTOR('',#1566,10.);
#377=VECTOR('',#1575,10.);
#378=VECTOR('',#1576,10.);
#379=VECTOR('',#1577,10.);
#380=VECTOR('',#1578,10.);
#381=VECTOR('',#1583,10.);
#382=VECTOR('',#1588,10.);
#383=VECTOR('',#1589,10.);
#384=VECTOR('',#1590,10.);
#385=VECTOR('',#1595,10.);
#386=VECTOR('',#1600,10.);
#387=VECTOR('',#1601,10.);
#388=VECTOR('',#1602,10.);
#389=VECTOR('',#1607,10.);
#390=VECTOR('',#1612,10.);
#391=VECTOR('',#1613,10.);
#392=VECTOR('',#1614,10.);
#393=VECTOR('',#1623,10.);
#394=VECTOR('',#1624,10.);
#395=VECTOR('',#1625,10.);
#396=VECTOR('',#1626,10.);
#397=VECTOR('',#1631,10.);
#398=VECTOR('',#1636,10.);
#399=VECTOR('',#1637,10.);
#400=VECTOR('',#1638,10.);
#401=VECTOR('',#1643,10.);
#402=VECTOR('',#1648,10.);
#403=VECTOR('',#1649,10.);
#404=VECTOR('',#1650,10.);
#405=VECTOR('',#1655,10.);
#406=VECTOR('',#1660,10.);
#407=VECTOR('',#1661,10.);
#408=VECTOR('',#1662,10.);
#409=VECTOR('',#1671,10.);
#410=VECTOR('',#1672,10.);
#411=VECTOR('',#1673,10.);
#412=VECTOR('',#1674,10.);
#413=VECTOR('',#1679,10.);
#414=VECTOR('',#1684,10.);
#415=VECTOR('',#1685,10.);
#416=VECTOR('',#1686,10.);
#417=VECTOR('',#1691,10.);
#418=VECTOR('',#1696,10.);
#419=VECTOR('',#1697,10.);
#420=VECTOR('',#1698,10.);
#421=VECTOR('',#1703,10.);
#422=VECTOR('',#1708,10.);
#423=VECTOR('',#1709,10.);
#424=VECTOR('',#1710,10.);
#425=VECTOR('',#1719,10.);
#426=VECTOR('',#1720,10.);
#427=VECTOR('',#1721,10.);
#428=VECTOR('',#1722,10.);
#429=VECTOR('',#1727,10.);
#430=VECTOR('',#1732,10.);
#431=VECTOR('',#1733,10.);
#432=VECTOR('',#1734,10.);
#433=VECTOR('',#1739,10.);
#434=VECTOR('',#1744,10.);
#435=VECTOR('',#1745,10.);
#436=VECTOR('',#1746,10.);
#437=VECTOR('',#1751,10.);
#438=VECTOR('',#1756,10.);
#439=VECTOR('',#1757,10.);
#440=VECTOR('',#1758,10.);
#441=CIRCLE('',#1274,1.45);
#442=CIRCLE('',#1275,1.45);
#443=CIRCLE('',#1277,1.45);
#444=CIRCLE('',#1278,1.45);
#445=CIRCLE('',#1280,1.45);
#446=CIRCLE('',#1281,1.45);
#447=CIRCLE('',#1283,1.45);
#448=CIRCLE('',#1284,1.45);
#449=CIRCLE('',#1287,2.5);
#450=CIRCLE('',#1288,2.5);
#451=CIRCLE('',#1291,2.5);
#452=CIRCLE('',#1292,2.5);
#453=CIRCLE('',#1295,2.5);
#454=CIRCLE('',#1296,2.5);
#455=CIRCLE('',#1299,2.5);
#456=CIRCLE('',#1300,2.5);
#457=CIRCLE('',#1303,0.499999999999998);
#458=CIRCLE('',#1304,0.499999999999998);
#459=CIRCLE('',#1307,0.500000000000003);
#460=CIRCLE('',#1308,0.500000000000003);
#461=CIRCLE('',#1311,0.499999999999998);
#462=CIRCLE('',#1312,0.499999999999998);
#463=CIRCLE('',#1315,0.499999999999998);
#464=CIRCLE('',#1316,0.499999999999998);
#465=CIRCLE('',#1319,0.499999999999998);
#466=CIRCLE('',#1320,0.499999999999998);
#467=CIRCLE('',#1323,0.499999999999998);
#468=CIRCLE('',#1324,0.499999999999998);
#469=CIRCLE('',#1327,0.499999999999998);
#470=CIRCLE('',#1328,0.499999999999998);
#471=CIRCLE('',#1331,0.499999999999999);
#472=CIRCLE('',#1332,0.499999999999999);
#473=CIRCLE('',#1335,0.500000000000003);
#474=CIRCLE('',#1336,0.500000000000003);
#475=CIRCLE('',#1339,0.500000000000003);
#476=CIRCLE('',#1340,0.500000000000003);
#477=CIRCLE('',#1343,0.499999999999998);
#478=CIRCLE('',#1344,0.499999999999998);
#479=CIRCLE('',#1347,0.499999999999998);
#480=CIRCLE('',#1348,0.499999999999998);
#481=CIRCLE('',#1351,0.499999999999998);
#482=CIRCLE('',#1352,0.499999999999998);
#483=CIRCLE('',#1355,0.499999999999998);
#484=CIRCLE('',#1356,0.499999999999998);
#485=CIRCLE('',#1359,0.499999999999998);
#486=CIRCLE('',#1360,0.499999999999998);
#487=CIRCLE('',#1363,0.5);
#488=CIRCLE('',#1364,0.5);
#489=CIRCLE('',#1367,0.500000000000003);
#490=CIRCLE('',#1368,0.500000000000003);
#491=CIRCLE('',#1371,0.499999999999998);
#492=CIRCLE('',#1372,0.499999999999998);
#493=CIRCLE('',#1375,0.499999999999998);
#494=CIRCLE('',#1376,0.499999999999998);
#495=CIRCLE('',#1379,0.5);
#496=CIRCLE('',#1380,0.5);
#497=CIRCLE('',#1383,0.499999999999998);
#498=CIRCLE('',#1384,0.499999999999998);
#499=CIRCLE('',#1387,0.500000000000003);
#500=CIRCLE('',#1388,0.500000000000003);
#501=CIRCLE('',#1391,0.499999999999998);
#502=CIRCLE('',#1392,0.499999999999998);
#503=CIRCLE('',#1395,0.499999999999998);
#504=CIRCLE('',#1396,0.499999999999998);
#505=VERTEX_POINT('',#1771);
#506=VERTEX_POINT('',#1773);
#507=VERTEX_POINT('',#1777);
#508=VERTEX_POINT('',#1779);
#509=VERTEX_POINT('',#1783);
#510=VERTEX_POINT('',#1785);
#511=VERTEX_POINT('',#1789);
#512=VERTEX_POINT('',#1791);
#513=VERTEX_POINT('',#1795);
#514=VERTEX_POINT('',#1796);
#515=VERTEX_POINT('',#1798);
#516=VERTEX_POINT('',#1800);
#517=VERTEX_POINT('',#1804);
#518=VERTEX_POINT('',#1806);
#519=VERTEX_POINT('',#1810);
#520=VERTEX_POINT('',#1812);
#521=VERTEX_POINT('',#1816);
#522=VERTEX_POINT('',#1818);
#523=VERTEX_POINT('',#1822);
#524=VERTEX_POINT('',#1824);
#525=VERTEX_POINT('',#1828);
#526=VERTEX_POINT('',#1830);
#527=VERTEX_POINT('',#1834);
#528=VERTEX_POINT('',#1836);
#529=VERTEX_POINT('',#1843);
#530=VERTEX_POINT('',#1844);
#531=VERTEX_POINT('',#1846);
#532=VERTEX_POINT('',#1848);
#533=VERTEX_POINT('',#1852);
#534=VERTEX_POINT('',#1854);
#535=VERTEX_POINT('',#1858);
#536=VERTEX_POINT('',#1860);
#537=VERTEX_POINT('',#1864);
#538=VERTEX_POINT('',#1866);
#539=VERTEX_POINT('',#1870);
#540=VERTEX_POINT('',#1872);
#541=VERTEX_POINT('',#1876);
#542=VERTEX_POINT('',#1878);
#543=VERTEX_POINT('',#1882);
#544=VERTEX_POINT('',#1884);
#545=VERTEX_POINT('',#1891);
#546=VERTEX_POINT('',#1892);
#547=VERTEX_POINT('',#1894);
#548=VERTEX_POINT('',#1896);
#549=VERTEX_POINT('',#1900);
#550=VERTEX_POINT('',#1902);
#551=VERTEX_POINT('',#1906);
#552=VERTEX_POINT('',#1908);
#553=VERTEX_POINT('',#1912);
#554=VERTEX_POINT('',#1914);
#555=VERTEX_POINT('',#1918);
#556=VERTEX_POINT('',#1920);
#557=VERTEX_POINT('',#1924);
#558=VERTEX_POINT('',#1926);
#559=VERTEX_POINT('',#1930);
#560=VERTEX_POINT('',#1932);
#561=VERTEX_POINT('',#1939);
#562=VERTEX_POINT('',#1940);
#563=VERTEX_POINT('',#1942);
#564=VERTEX_POINT('',#1944);
#565=VERTEX_POINT('',#1948);
#566=VERTEX_POINT('',#1950);
#567=VERTEX_POINT('',#1954);
#568=VERTEX_POINT('',#1956);
#569=VERTEX_POINT('',#1960);
#570=VERTEX_POINT('',#1962);
#571=VERTEX_POINT('',#1966);
#572=VERTEX_POINT('',#1968);
#573=VERTEX_POINT('',#1972);
#574=VERTEX_POINT('',#1974);
#575=VERTEX_POINT('',#1978);
#576=VERTEX_POINT('',#1980);
#577=VERTEX_POINT('',#1987);
#578=VERTEX_POINT('',#1988);
#579=VERTEX_POINT('',#1990);
#580=VERTEX_POINT('',#1992);
#581=VERTEX_POINT('',#1996);
#582=VERTEX_POINT('',#1998);
#583=VERTEX_POINT('',#2002);
#584=VERTEX_POINT('',#2004);
#585=VERTEX_POINT('',#2008);
#586=VERTEX_POINT('',#2010);
#587=VERTEX_POINT('',#2014);
#588=VERTEX_POINT('',#2016);
#589=VERTEX_POINT('',#2020);
#590=VERTEX_POINT('',#2022);
#591=VERTEX_POINT('',#2026);
#592=VERTEX_POINT('',#2028);
#593=VERTEX_POINT('',#2035);
#594=VERTEX_POINT('',#2036);
#595=VERTEX_POINT('',#2038);
#596=VERTEX_POINT('',#2040);
#597=VERTEX_POINT('',#2044);
#598=VERTEX_POINT('',#2046);
#599=VERTEX_POINT('',#2050);
#600=VERTEX_POINT('',#2052);
#601=VERTEX_POINT('',#2056);
#602=VERTEX_POINT('',#2058);
#603=VERTEX_POINT('',#2062);
#604=VERTEX_POINT('',#2064);
#605=VERTEX_POINT('',#2068);
#606=VERTEX_POINT('',#2070);
#607=VERTEX_POINT('',#2074);
#608=VERTEX_POINT('',#2076);
#609=VERTEX_POINT('',#2083);
#610=VERTEX_POINT('',#2084);
#611=VERTEX_POINT('',#2086);
#612=VERTEX_POINT('',#2088);
#613=VERTEX_POINT('',#2092);
#614=VERTEX_POINT('',#2094);
#615=VERTEX_POINT('',#2098);
#616=VERTEX_POINT('',#2100);
#617=VERTEX_POINT('',#2104);
#618=VERTEX_POINT('',#2106);
#619=VERTEX_POINT('',#2110);
#620=VERTEX_POINT('',#2112);
#621=VERTEX_POINT('',#2116);
#622=VERTEX_POINT('',#2118);
#623=VERTEX_POINT('',#2122);
#624=VERTEX_POINT('',#2124);
#625=EDGE_CURVE('',#505,#505,#441,.T.);
#626=EDGE_CURVE('',#505,#506,#209,.T.);
#627=EDGE_CURVE('',#506,#506,#442,.T.);
#628=EDGE_CURVE('',#507,#507,#443,.T.);
#629=EDGE_CURVE('',#507,#508,#210,.T.);
#630=EDGE_CURVE('',#508,#508,#444,.T.);
#631=EDGE_CURVE('',#509,#509,#445,.T.);
#632=EDGE_CURVE('',#509,#510,#211,.T.);
#633=EDGE_CURVE('',#510,#510,#446,.T.);
#634=EDGE_CURVE('',#511,#511,#447,.T.);
#635=EDGE_CURVE('',#511,#512,#212,.T.);
#636=EDGE_CURVE('',#512,#512,#448,.T.);
#637=EDGE_CURVE('',#513,#514,#213,.T.);
#638=EDGE_CURVE('',#514,#515,#214,.T.);
#639=EDGE_CURVE('',#516,#515,#215,.T.);
#640=EDGE_CURVE('',#513,#516,#216,.T.);
#641=EDGE_CURVE('',#517,#513,#449,.T.);
#642=EDGE_CURVE('',#518,#516,#450,.T.);
#643=EDGE_CURVE('',#517,#518,#217,.T.);
#644=EDGE_CURVE('',#519,#517,#218,.T.);
#645=EDGE_CURVE('',#520,#518,#219,.T.);
#646=EDGE_CURVE('',#519,#520,#220,.T.);
#647=EDGE_CURVE('',#521,#519,#451,.T.);
#648=EDGE_CURVE('',#522,#520,#452,.T.);
#649=EDGE_CURVE('',#521,#522,#221,.T.);
#650=EDGE_CURVE('',#523,#521,#222,.T.);
#651=EDGE_CURVE('',#524,#522,#223,.T.);
#652=EDGE_CURVE('',#523,#524,#224,.T.);
#653=EDGE_CURVE('',#525,#523,#453,.T.);
#654=EDGE_CURVE('',#526,#524,#454,.T.);
#655=EDGE_CURVE('',#525,#526,#225,.T.);
#656=EDGE_CURVE('',#527,#525,#226,.T.);
#657=EDGE_CURVE('',#528,#526,#227,.T.);
#658=EDGE_CURVE('',#527,#528,#228,.T.);
#659=EDGE_CURVE('',#514,#527,#455,.T.);
#660=EDGE_CURVE('',#515,#528,#456,.T.);
#661=EDGE_CURVE('',#529,#530,#229,.T.);
#662=EDGE_CURVE('',#529,#531,#230,.T.);
#663=EDGE_CURVE('',#532,#531,#231,.T.);
#664=EDGE_CURVE('',#530,#532,#232,.T.);
#665=EDGE_CURVE('',#533,#529,#457,.T.);
#666=EDGE_CURVE('',#533,#534,#233,.T.);
#667=EDGE_CURVE('',#531,#534,#458,.T.);
#668=EDGE_CURVE('',#535,#533,#234,.T.);
#669=EDGE_CURVE('',#535,#536,#235,.T.);
#670=EDGE_CURVE('',#534,#536,#236,.T.);
#671=EDGE_CURVE('',#537,#535,#459,.T.);
#672=EDGE_CURVE('',#537,#538,#237,.T.);
#673=EDGE_CURVE('',#536,#538,#460,.T.);
#674=EDGE_CURVE('',#539,#537,#238,.T.);
#675=EDGE_CURVE('',#539,#540,#239,.T.);
#676=EDGE_CURVE('',#538,#540,#240,.T.);
#677=EDGE_CURVE('',#541,#539,#461,.T.);
#678=EDGE_CURVE('',#541,#542,#241,.T.);
#679=EDGE_CURVE('',#540,#542,#462,.T.);
#680=EDGE_CURVE('',#543,#541,#242,.T.);
#681=EDGE_CURVE('',#543,#544,#243,.T.);
#682=EDGE_CURVE('',#542,#544,#244,.T.);
#683=EDGE_CURVE('',#530,#543,#463,.T.);
#684=EDGE_CURVE('',#544,#532,#464,.T.);
#685=EDGE_CURVE('',#545,#546,#245,.T.);
#686=EDGE_CURVE('',#545,#547,#246,.T.);
#687=EDGE_CURVE('',#548,#547,#247,.T.);
#688=EDGE_CURVE('',#546,#548,#248,.T.);
#689=EDGE_CURVE('',#549,#545,#465,.T.);
#690=EDGE_CURVE('',#549,#550,#249,.T.);
#691=EDGE_CURVE('',#547,#550,#466,.T.);
#692=EDGE_CURVE('',#551,#549,#250,.T.);
#693=EDGE_CURVE('',#551,#552,#251,.T.);
#694=EDGE_CURVE('',#550,#552,#252,.T.);
#695=EDGE_CURVE('',#553,#551,#467,.T.);
#696=EDGE_CURVE('',#553,#554,#253,.T.);
#697=EDGE_CURVE('',#552,#554,#468,.T.);
#698=EDGE_CURVE('',#555,#553,#254,.T.);
#699=EDGE_CURVE('',#555,#556,#255,.T.);
#700=EDGE_CURVE('',#554,#556,#256,.T.);
#701=EDGE_CURVE('',#557,#555,#469,.T.);
#702=EDGE_CURVE('',#557,#558,#257,.T.);
#703=EDGE_CURVE('',#556,#558,#470,.T.);
#704=EDGE_CURVE('',#559,#557,#258,.T.);
#705=EDGE_CURVE('',#559,#560,#259,.T.);
#706=EDGE_CURVE('',#558,#560,#260,.T.);
#707=EDGE_CURVE('',#546,#559,#471,.T.);
#708=EDGE_CURVE('',#560,#548,#472,.T.);
#709=EDGE_CURVE('',#561,#562,#261,.T.);
#710=EDGE_CURVE('',#561,#563,#262,.T.);
#711=EDGE_CURVE('',#564,#563,#263,.T.);
#712=EDGE_CURVE('',#562,#564,#264,.T.);
#713=EDGE_CURVE('',#565,#561,#473,.T.);
#714=EDGE_CURVE('',#565,#566,#265,.T.);
#715=EDGE_CURVE('',#563,#566,#474,.T.);
#716=EDGE_CURVE('',#567,#565,#266,.T.);
#717=EDGE_CURVE('',#567,#568,#267,.T.);
#718=EDGE_CURVE('',#566,#568,#268,.T.);
#719=EDGE_CURVE('',#569,#567,#475,.T.);
#720=EDGE_CURVE('',#569,#570,#269,.T.);
#721=EDGE_CURVE('',#568,#570,#476,.T.);
#722=EDGE_CURVE('',#571,#569,#270,.T.);
#723=EDGE_CURVE('',#571,#572,#271,.T.);
#724=EDGE_CURVE('',#570,#572,#272,.T.);
#725=EDGE_CURVE('',#573,#571,#477,.T.);
#726=EDGE_CURVE('',#573,#574,#273,.T.);
#727=EDGE_CURVE('',#572,#574,#478,.T.);
#728=EDGE_CURVE('',#575,#573,#274,.T.);
#729=EDGE_CURVE('',#575,#576,#275,.T.);
#730=EDGE_CURVE('',#574,#576,#276,.T.);
#731=EDGE_CURVE('',#562,#575,#479,.T.);
#732=EDGE_CURVE('',#576,#564,#480,.T.);
#733=EDGE_CURVE('',#577,#578,#277,.T.);
#734=EDGE_CURVE('',#577,#579,#278,.T.);
#735=EDGE_CURVE('',#580,#579,#279,.T.);
#736=EDGE_CURVE('',#578,#580,#280,.T.);
#737=EDGE_CURVE('',#581,#577,#481,.T.);
#738=EDGE_CURVE('',#581,#582,#281,.T.);
#739=EDGE_CURVE('',#579,#582,#482,.T.);
#740=EDGE_CURVE('',#583,#581,#282,.T.);
#741=EDGE_CURVE('',#583,#584,#283,.T.);
#742=EDGE_CURVE('',#582,#584,#284,.T.);
#743=EDGE_CURVE('',#585,#583,#483,.T.);
#744=EDGE_CURVE('',#585,#586,#285,.T.);
#745=EDGE_CURVE('',#584,#586,#484,.T.);
#746=EDGE_CURVE('',#587,#585,#286,.T.);
#747=EDGE_CURVE('',#587,#588,#287,.T.);
#748=EDGE_CURVE('',#586,#588,#288,.T.);
#749=EDGE_CURVE('',#589,#587,#485,.T.);
#750=EDGE_CURVE('',#589,#590,#289,.T.);
#751=EDGE_CURVE('',#588,#590,#486,.T.);
#752=EDGE_CURVE('',#591,#589,#290,.T.);
#753=EDGE_CURVE('',#591,#592,#291,.T.);
#754=EDGE_CURVE('',#590,#592,#292,.T.);
#755=EDGE_CURVE('',#578,#591,#487,.T.);
#756=EDGE_CURVE('',#592,#580,#488,.T.);
#757=EDGE_CURVE('',#593,#594,#293,.T.);
#758=EDGE_CURVE('',#593,#595,#294,.T.);
#759=EDGE_CURVE('',#596,#595,#295,.T.);
#760=EDGE_CURVE('',#594,#596,#296,.T.);
#761=EDGE_CURVE('',#597,#593,#489,.T.);
#762=EDGE_CURVE('',#597,#598,#297,.T.);
#763=EDGE_CURVE('',#595,#598,#490,.T.);
#764=EDGE_CURVE('',#599,#597,#298,.T.);
#765=EDGE_CURVE('',#599,#600,#299,.T.);
#766=EDGE_CURVE('',#598,#600,#300,.T.);
#767=EDGE_CURVE('',#601,#599,#491,.T.);
#768=EDGE_CURVE('',#601,#602,#301,.T.);
#769=EDGE_CURVE('',#600,#602,#492,.T.);
#770=EDGE_CURVE('',#603,#601,#302,.T.);
#771=EDGE_CURVE('',#603,#604,#303,.T.);
#772=EDGE_CURVE('',#602,#604,#304,.T.);
#773=EDGE_CURVE('',#605,#603,#493,.T.);
#774=EDGE_CURVE('',#605,#606,#305,.T.);
#775=EDGE_CURVE('',#604,#606,#494,.T.);
#776=EDGE_CURVE('',#607,#605,#306,.T.);
#777=EDGE_CURVE('',#607,#608,#307,.T.);
#778=EDGE_CURVE('',#606,#608,#308,.T.);
#779=EDGE_CURVE('',#594,#607,#495,.T.);
#780=EDGE_CURVE('',#608,#596,#496,.T.);
#781=EDGE_CURVE('',#609,#610,#309,.T.);
#782=EDGE_CURVE('',#609,#611,#310,.T.);
#783=EDGE_CURVE('',#612,#611,#311,.T.);
#784=EDGE_CURVE('',#610,#612,#312,.T.);
#785=EDGE_CURVE('',#613,#609,#497,.T.);
#786=EDGE_CURVE('',#613,#614,#313,.T.);
#787=EDGE_CURVE('',#611,#614,#498,.T.);
#788=EDGE_CURVE('',#615,#613,#314,.T.);
#789=EDGE_CURVE('',#615,#616,#315,.T.);
#790=EDGE_CURVE('',#614,#616,#316,.T.);
#791=EDGE_CURVE('',#617,#615,#499,.T.);
#792=EDGE_CURVE('',#617,#618,#317,.T.);
#793=EDGE_CURVE('',#616,#618,#500,.T.);
#794=EDGE_CURVE('',#619,#617,#318,.T.);
#795=EDGE_CURVE('',#619,#620,#319,.T.);
#796=EDGE_CURVE('',#618,#620,#320,.T.);
#797=EDGE_CURVE('',#621,#619,#501,.T.);
#798=EDGE_CURVE('',#621,#622,#321,.T.);
#799=EDGE_CURVE('',#620,#622,#502,.T.);
#800=EDGE_CURVE('',#623,#621,#322,.T.);
#801=EDGE_CURVE('',#623,#624,#323,.T.);
#802=EDGE_CURVE('',#622,#624,#324,.T.);
#803=EDGE_CURVE('',#610,#623,#503,.T.);
#804=EDGE_CURVE('',#624,#612,#504,.T.);
#805=ORIENTED_EDGE('',*,*,#625,.F.);
#806=ORIENTED_EDGE('',*,*,#626,.T.);
#807=ORIENTED_EDGE('',*,*,#627,.T.);
#808=ORIENTED_EDGE('',*,*,#626,.F.);
#809=ORIENTED_EDGE('',*,*,#628,.F.);
#810=ORIENTED_EDGE('',*,*,#629,.T.);
#811=ORIENTED_EDGE('',*,*,#630,.T.);
#812=ORIENTED_EDGE('',*,*,#629,.F.);
#813=ORIENTED_EDGE('',*,*,#631,.F.);
#814=ORIENTED_EDGE('',*,*,#632,.T.);
#815=ORIENTED_EDGE('',*,*,#633,.T.);
#816=ORIENTED_EDGE('',*,*,#632,.F.);
#817=ORIENTED_EDGE('',*,*,#634,.F.);
#818=ORIENTED_EDGE('',*,*,#635,.T.);
#819=ORIENTED_EDGE('',*,*,#636,.T.);
#820=ORIENTED_EDGE('',*,*,#635,.F.);
#821=ORIENTED_EDGE('',*,*,#637,.T.);
#822=ORIENTED_EDGE('',*,*,#638,.T.);
#823=ORIENTED_EDGE('',*,*,#639,.F.);
#824=ORIENTED_EDGE('',*,*,#640,.F.);
#825=ORIENTED_EDGE('',*,*,#641,.T.);
#826=ORIENTED_EDGE('',*,*,#640,.T.);
#827=ORIENTED_EDGE('',*,*,#642,.F.);
#828=ORIENTED_EDGE('',*,*,#643,.F.);
#829=ORIENTED_EDGE('',*,*,#644,.T.);
#830=ORIENTED_EDGE('',*,*,#643,.T.);
#831=ORIENTED_EDGE('',*,*,#645,.F.);
#832=ORIENTED_EDGE('',*,*,#646,.F.);
#833=ORIENTED_EDGE('',*,*,#647,.T.);
#834=ORIENTED_EDGE('',*,*,#646,.T.);
#835=ORIENTED_EDGE('',*,*,#648,.F.);
#836=ORIENTED_EDGE('',*,*,#649,.F.);
#837=ORIENTED_EDGE('',*,*,#650,.T.);
#838=ORIENTED_EDGE('',*,*,#649,.T.);
#839=ORIENTED_EDGE('',*,*,#651,.F.);
#840=ORIENTED_EDGE('',*,*,#652,.F.);
#841=ORIENTED_EDGE('',*,*,#653,.T.);
#842=ORIENTED_EDGE('',*,*,#652,.T.);
#843=ORIENTED_EDGE('',*,*,#654,.F.);
#844=ORIENTED_EDGE('',*,*,#655,.F.);
#845=ORIENTED_EDGE('',*,*,#656,.T.);
#846=ORIENTED_EDGE('',*,*,#655,.T.);
#847=ORIENTED_EDGE('',*,*,#657,.F.);
#848=ORIENTED_EDGE('',*,*,#658,.F.);
#849=ORIENTED_EDGE('',*,*,#659,.T.);
#850=ORIENTED_EDGE('',*,*,#658,.T.);
#851=ORIENTED_EDGE('',*,*,#660,.F.);
#852=ORIENTED_EDGE('',*,*,#638,.F.);
#853=ORIENTED_EDGE('',*,*,#661,.F.);
#854=ORIENTED_EDGE('',*,*,#662,.T.);
#855=ORIENTED_EDGE('',*,*,#663,.F.);
#856=ORIENTED_EDGE('',*,*,#664,.F.);
#857=ORIENTED_EDGE('',*,*,#665,.F.);
#858=ORIENTED_EDGE('',*,*,#666,.T.);
#859=ORIENTED_EDGE('',*,*,#667,.F.);
#860=ORIENTED_EDGE('',*,*,#662,.F.);
#861=ORIENTED_EDGE('',*,*,#668,.F.);
#862=ORIENTED_EDGE('',*,*,#669,.T.);
#863=ORIENTED_EDGE('',*,*,#670,.F.);
#864=ORIENTED_EDGE('',*,*,#666,.F.);
#865=ORIENTED_EDGE('',*,*,#671,.F.);
#866=ORIENTED_EDGE('',*,*,#672,.T.);
#867=ORIENTED_EDGE('',*,*,#673,.F.);
#868=ORIENTED_EDGE('',*,*,#669,.F.);
#869=ORIENTED_EDGE('',*,*,#674,.F.);
#870=ORIENTED_EDGE('',*,*,#675,.T.);
#871=ORIENTED_EDGE('',*,*,#676,.F.);
#872=ORIENTED_EDGE('',*,*,#672,.F.);
#873=ORIENTED_EDGE('',*,*,#677,.F.);
#874=ORIENTED_EDGE('',*,*,#678,.T.);
#875=ORIENTED_EDGE('',*,*,#679,.F.);
#876=ORIENTED_EDGE('',*,*,#675,.F.);
#877=ORIENTED_EDGE('',*,*,#680,.F.);
#878=ORIENTED_EDGE('',*,*,#681,.T.);
#879=ORIENTED_EDGE('',*,*,#682,.F.);
#880=ORIENTED_EDGE('',*,*,#678,.F.);
#881=ORIENTED_EDGE('',*,*,#683,.F.);
#882=ORIENTED_EDGE('',*,*,#664,.T.);
#883=ORIENTED_EDGE('',*,*,#684,.F.);
#884=ORIENTED_EDGE('',*,*,#681,.F.);
#885=ORIENTED_EDGE('',*,*,#685,.F.);
#886=ORIENTED_EDGE('',*,*,#686,.T.);
#887=ORIENTED_EDGE('',*,*,#687,.F.);
#888=ORIENTED_EDGE('',*,*,#688,.F.);
#889=ORIENTED_EDGE('',*,*,#689,.F.);
#890=ORIENTED_EDGE('',*,*,#690,.T.);
#891=ORIENTED_EDGE('',*,*,#691,.F.);
#892=ORIENTED_EDGE('',*,*,#686,.F.);
#893=ORIENTED_EDGE('',*,*,#692,.F.);
#894=ORIENTED_EDGE('',*,*,#693,.T.);
#895=ORIENTED_EDGE('',*,*,#694,.F.);
#896=ORIENTED_EDGE('',*,*,#690,.F.);
#897=ORIENTED_EDGE('',*,*,#695,.F.);
#898=ORIENTED_EDGE('',*,*,#696,.T.);
#899=ORIENTED_EDGE('',*,*,#697,.F.);
#900=ORIENTED_EDGE('',*,*,#693,.F.);
#901=ORIENTED_EDGE('',*,*,#698,.F.);
#902=ORIENTED_EDGE('',*,*,#699,.T.);
#903=ORIENTED_EDGE('',*,*,#700,.F.);
#904=ORIENTED_EDGE('',*,*,#696,.F.);
#905=ORIENTED_EDGE('',*,*,#701,.F.);
#906=ORIENTED_EDGE('',*,*,#702,.T.);
#907=ORIENTED_EDGE('',*,*,#703,.F.);
#908=ORIENTED_EDGE('',*,*,#699,.F.);
#909=ORIENTED_EDGE('',*,*,#704,.F.);
#910=ORIENTED_EDGE('',*,*,#705,.T.);
#911=ORIENTED_EDGE('',*,*,#706,.F.);
#912=ORIENTED_EDGE('',*,*,#702,.F.);
#913=ORIENTED_EDGE('',*,*,#707,.F.);
#914=ORIENTED_EDGE('',*,*,#688,.T.);
#915=ORIENTED_EDGE('',*,*,#708,.F.);
#916=ORIENTED_EDGE('',*,*,#705,.F.);
#917=ORIENTED_EDGE('',*,*,#709,.F.);
#918=ORIENTED_EDGE('',*,*,#710,.T.);
#919=ORIENTED_EDGE('',*,*,#711,.F.);
#920=ORIENTED_EDGE('',*,*,#712,.F.);
#921=ORIENTED_EDGE('',*,*,#713,.F.);
#922=ORIENTED_EDGE('',*,*,#714,.T.);
#923=ORIENTED_EDGE('',*,*,#715,.F.);
#924=ORIENTED_EDGE('',*,*,#710,.F.);
#925=ORIENTED_EDGE('',*,*,#716,.F.);
#926=ORIENTED_EDGE('',*,*,#717,.T.);
#927=ORIENTED_EDGE('',*,*,#718,.F.);
#928=ORIENTED_EDGE('',*,*,#714,.F.);
#929=ORIENTED_EDGE('',*,*,#719,.F.);
#930=ORIENTED_EDGE('',*,*,#720,.T.);
#931=ORIENTED_EDGE('',*,*,#721,.F.);
#932=ORIENTED_EDGE('',*,*,#717,.F.);
#933=ORIENTED_EDGE('',*,*,#722,.F.);
#934=ORIENTED_EDGE('',*,*,#723,.T.);
#935=ORIENTED_EDGE('',*,*,#724,.F.);
#936=ORIENTED_EDGE('',*,*,#720,.F.);
#937=ORIENTED_EDGE('',*,*,#725,.F.);
#938=ORIENTED_EDGE('',*,*,#726,.T.);
#939=ORIENTED_EDGE('',*,*,#727,.F.);
#940=ORIENTED_EDGE('',*,*,#723,.F.);
#941=ORIENTED_EDGE('',*,*,#728,.F.);
#942=ORIENTED_EDGE('',*,*,#729,.T.);
#943=ORIENTED_EDGE('',*,*,#730,.F.);
#944=ORIENTED_EDGE('',*,*,#726,.F.);
#945=ORIENTED_EDGE('',*,*,#731,.F.);
#946=ORIENTED_EDGE('',*,*,#712,.T.);
#947=ORIENTED_EDGE('',*,*,#732,.F.);
#948=ORIENTED_EDGE('',*,*,#729,.F.);
#949=ORIENTED_EDGE('',*,*,#733,.F.);
#950=ORIENTED_EDGE('',*,*,#734,.T.);
#951=ORIENTED_EDGE('',*,*,#735,.F.);
#952=ORIENTED_EDGE('',*,*,#736,.F.);
#953=ORIENTED_EDGE('',*,*,#737,.F.);
#954=ORIENTED_EDGE('',*,*,#738,.T.);
#955=ORIENTED_EDGE('',*,*,#739,.F.);
#956=ORIENTED_EDGE('',*,*,#734,.F.);
#957=ORIENTED_EDGE('',*,*,#740,.F.);
#958=ORIENTED_EDGE('',*,*,#741,.T.);
#959=ORIENTED_EDGE('',*,*,#742,.F.);
#960=ORIENTED_EDGE('',*,*,#738,.F.);
#961=ORIENTED_EDGE('',*,*,#743,.F.);
#962=ORIENTED_EDGE('',*,*,#744,.T.);
#963=ORIENTED_EDGE('',*,*,#745,.F.);
#964=ORIENTED_EDGE('',*,*,#741,.F.);
#965=ORIENTED_EDGE('',*,*,#746,.F.);
#966=ORIENTED_EDGE('',*,*,#747,.T.);
#967=ORIENTED_EDGE('',*,*,#748,.F.);
#968=ORIENTED_EDGE('',*,*,#744,.F.);
#969=ORIENTED_EDGE('',*,*,#749,.F.);
#970=ORIENTED_EDGE('',*,*,#750,.T.);
#971=ORIENTED_EDGE('',*,*,#751,.F.);
#972=ORIENTED_EDGE('',*,*,#747,.F.);
#973=ORIENTED_EDGE('',*,*,#752,.F.);
#974=ORIENTED_EDGE('',*,*,#753,.T.);
#975=ORIENTED_EDGE('',*,*,#754,.F.);
#976=ORIENTED_EDGE('',*,*,#750,.F.);
#977=ORIENTED_EDGE('',*,*,#755,.F.);
#978=ORIENTED_EDGE('',*,*,#736,.T.);
#979=ORIENTED_EDGE('',*,*,#756,.F.);
#980=ORIENTED_EDGE('',*,*,#753,.F.);
#981=ORIENTED_EDGE('',*,*,#757,.F.);
#982=ORIENTED_EDGE('',*,*,#758,.T.);
#983=ORIENTED_EDGE('',*,*,#759,.F.);
#984=ORIENTED_EDGE('',*,*,#760,.F.);
#985=ORIENTED_EDGE('',*,*,#761,.F.);
#986=ORIENTED_EDGE('',*,*,#762,.T.);
#987=ORIENTED_EDGE('',*,*,#763,.F.);
#988=ORIENTED_EDGE('',*,*,#758,.F.);
#989=ORIENTED_EDGE('',*,*,#764,.F.);
#990=ORIENTED_EDGE('',*,*,#765,.T.);
#991=ORIENTED_EDGE('',*,*,#766,.F.);
#992=ORIENTED_EDGE('',*,*,#762,.F.);
#993=ORIENTED_EDGE('',*,*,#767,.F.);
#994=ORIENTED_EDGE('',*,*,#768,.T.);
#995=ORIENTED_EDGE('',*,*,#769,.F.);
#996=ORIENTED_EDGE('',*,*,#765,.F.);
#997=ORIENTED_EDGE('',*,*,#770,.F.);
#998=ORIENTED_EDGE('',*,*,#771,.T.);
#999=ORIENTED_EDGE('',*,*,#772,.F.);
#1000=ORIENTED_EDGE('',*,*,#768,.F.);
#1001=ORIENTED_EDGE('',*,*,#773,.F.);
#1002=ORIENTED_EDGE('',*,*,#774,.T.);
#1003=ORIENTED_EDGE('',*,*,#775,.F.);
#1004=ORIENTED_EDGE('',*,*,#771,.F.);
#1005=ORIENTED_EDGE('',*,*,#776,.F.);
#1006=ORIENTED_EDGE('',*,*,#777,.T.);
#1007=ORIENTED_EDGE('',*,*,#778,.F.);
#1008=ORIENTED_EDGE('',*,*,#774,.F.);
#1009=ORIENTED_EDGE('',*,*,#779,.F.);
#1010=ORIENTED_EDGE('',*,*,#760,.T.);
#1011=ORIENTED_EDGE('',*,*,#780,.F.);
#1012=ORIENTED_EDGE('',*,*,#777,.F.);
#1013=ORIENTED_EDGE('',*,*,#781,.F.);
#1014=ORIENTED_EDGE('',*,*,#782,.T.);
#1015=ORIENTED_EDGE('',*,*,#783,.F.);
#1016=ORIENTED_EDGE('',*,*,#784,.F.);
#1017=ORIENTED_EDGE('',*,*,#785,.F.);
#1018=ORIENTED_EDGE('',*,*,#786,.T.);
#1019=ORIENTED_EDGE('',*,*,#787,.F.);
#1020=ORIENTED_EDGE('',*,*,#782,.F.);
#1021=ORIENTED_EDGE('',*,*,#788,.F.);
#1022=ORIENTED_EDGE('',*,*,#789,.T.);
#1023=ORIENTED_EDGE('',*,*,#790,.F.);
#1024=ORIENTED_EDGE('',*,*,#786,.F.);
#1025=ORIENTED_EDGE('',*,*,#791,.F.);
#1026=ORIENTED_EDGE('',*,*,#792,.T.);
#1027=ORIENTED_EDGE('',*,*,#793,.F.);
#1028=ORIENTED_EDGE('',*,*,#789,.F.);
#1029=ORIENTED_EDGE('',*,*,#794,.F.);
#1030=ORIENTED_EDGE('',*,*,#795,.T.);
#1031=ORIENTED_EDGE('',*,*,#796,.F.);
#1032=ORIENTED_EDGE('',*,*,#792,.F.);
#1033=ORIENTED_EDGE('',*,*,#797,.F.);
#1034=ORIENTED_EDGE('',*,*,#798,.T.);
#1035=ORIENTED_EDGE('',*,*,#799,.F.);
#1036=ORIENTED_EDGE('',*,*,#795,.F.);
#1037=ORIENTED_EDGE('',*,*,#800,.F.);
#1038=ORIENTED_EDGE('',*,*,#801,.T.);
#1039=ORIENTED_EDGE('',*,*,#802,.F.);
#1040=ORIENTED_EDGE('',*,*,#798,.F.);
#1041=ORIENTED_EDGE('',*,*,#803,.F.);
#1042=ORIENTED_EDGE('',*,*,#784,.T.);
#1043=ORIENTED_EDGE('',*,*,#804,.F.);
#1044=ORIENTED_EDGE('',*,*,#801,.F.);
#1045=ORIENTED_EDGE('',*,*,#660,.T.);
#1046=ORIENTED_EDGE('',*,*,#657,.T.);
#1047=ORIENTED_EDGE('',*,*,#654,.T.);
#1048=ORIENTED_EDGE('',*,*,#651,.T.);
#1049=ORIENTED_EDGE('',*,*,#648,.T.);
#1050=ORIENTED_EDGE('',*,*,#645,.T.);
#1051=ORIENTED_EDGE('',*,*,#642,.T.);
#1052=ORIENTED_EDGE('',*,*,#639,.T.);
#1053=ORIENTED_EDGE('',*,*,#625,.T.);
#1054=ORIENTED_EDGE('',*,*,#628,.T.);
#1055=ORIENTED_EDGE('',*,*,#631,.T.);
#1056=ORIENTED_EDGE('',*,*,#634,.T.);
#1057=ORIENTED_EDGE('',*,*,#783,.T.);
#1058=ORIENTED_EDGE('',*,*,#787,.T.);
#1059=ORIENTED_EDGE('',*,*,#790,.T.);
#1060=ORIENTED_EDGE('',*,*,#793,.T.);
#1061=ORIENTED_EDGE('',*,*,#796,.T.);
#1062=ORIENTED_EDGE('',*,*,#799,.T.);
#1063=ORIENTED_EDGE('',*,*,#802,.T.);
#1064=ORIENTED_EDGE('',*,*,#804,.T.);
#1065=ORIENTED_EDGE('',*,*,#759,.T.);
#1066=ORIENTED_EDGE('',*,*,#763,.T.);
#1067=ORIENTED_EDGE('',*,*,#766,.T.);
#1068=ORIENTED_EDGE('',*,*,#769,.T.);
#1069=ORIENTED_EDGE('',*,*,#772,.T.);
#1070=ORIENTED_EDGE('',*,*,#775,.T.);
#1071=ORIENTED_EDGE('',*,*,#778,.T.);
#1072=ORIENTED_EDGE('',*,*,#780,.T.);
#1073=ORIENTED_EDGE('',*,*,#735,.T.);
#1074=ORIENTED_EDGE('',*,*,#739,.T.);
#1075=ORIENTED_EDGE('',*,*,#742,.T.);
#1076=ORIENTED_EDGE('',*,*,#745,.T.);
#1077=ORIENTED_EDGE('',*,*,#748,.T.);
#1078=ORIENTED_EDGE('',*,*,#751,.T.);
#1079=ORIENTED_EDGE('',*,*,#754,.T.);
#1080=ORIENTED_EDGE('',*,*,#756,.T.);
#1081=ORIENTED_EDGE('',*,*,#711,.T.);
#1082=ORIENTED_EDGE('',*,*,#715,.T.);
#1083=ORIENTED_EDGE('',*,*,#718,.T.);
#1084=ORIENTED_EDGE('',*,*,#721,.T.);
#1085=ORIENTED_EDGE('',*,*,#724,.T.);
#1086=ORIENTED_EDGE('',*,*,#727,.T.);
#1087=ORIENTED_EDGE('',*,*,#730,.T.);
#1088=ORIENTED_EDGE('',*,*,#732,.T.);
#1089=ORIENTED_EDGE('',*,*,#687,.T.);
#1090=ORIENTED_EDGE('',*,*,#691,.T.);
#1091=ORIENTED_EDGE('',*,*,#694,.T.);
#1092=ORIENTED_EDGE('',*,*,#697,.T.);
#1093=ORIENTED_EDGE('',*,*,#700,.T.);
#1094=ORIENTED_EDGE('',*,*,#703,.T.);
#1095=ORIENTED_EDGE('',*,*,#706,.T.);
#1096=ORIENTED_EDGE('',*,*,#708,.T.);
#1097=ORIENTED_EDGE('',*,*,#663,.T.);
#1098=ORIENTED_EDGE('',*,*,#667,.T.);
#1099=ORIENTED_EDGE('',*,*,#670,.T.);
#1100=ORIENTED_EDGE('',*,*,#673,.T.);
#1101=ORIENTED_EDGE('',*,*,#676,.T.);
#1102=ORIENTED_EDGE('',*,*,#679,.T.);
#1103=ORIENTED_EDGE('',*,*,#682,.T.);
#1104=ORIENTED_EDGE('',*,*,#684,.T.);
#1105=ORIENTED_EDGE('',*,*,#659,.F.);
#1106=ORIENTED_EDGE('',*,*,#637,.F.);
#1107=ORIENTED_EDGE('',*,*,#641,.F.);
#1108=ORIENTED_EDGE('',*,*,#644,.F.);
#1109=ORIENTED_EDGE('',*,*,#647,.F.);
#1110=ORIENTED_EDGE('',*,*,#650,.F.);
#1111=ORIENTED_EDGE('',*,*,#653,.F.);
#1112=ORIENTED_EDGE('',*,*,#656,.F.);
#1113=ORIENTED_EDGE('',*,*,#627,.F.);
#1114=ORIENTED_EDGE('',*,*,#630,.F.);
#1115=ORIENTED_EDGE('',*,*,#633,.F.);
#1116=ORIENTED_EDGE('',*,*,#636,.F.);
#1117=ORIENTED_EDGE('',*,*,#781,.T.);
#1118=ORIENTED_EDGE('',*,*,#803,.T.);
#1119=ORIENTED_EDGE('',*,*,#800,.T.);
#1120=ORIENTED_EDGE('',*,*,#797,.T.);
#1121=ORIENTED_EDGE('',*,*,#794,.T.);
#1122=ORIENTED_EDGE('',*,*,#791,.T.);
#1123=ORIENTED_EDGE('',*,*,#788,.T.);
#1124=ORIENTED_EDGE('',*,*,#785,.T.);
#1125=ORIENTED_EDGE('',*,*,#757,.T.);
#1126=ORIENTED_EDGE('',*,*,#779,.T.);
#1127=ORIENTED_EDGE('',*,*,#776,.T.);
#1128=ORIENTED_EDGE('',*,*,#773,.T.);
#1129=ORIENTED_EDGE('',*,*,#770,.T.);
#1130=ORIENTED_EDGE('',*,*,#767,.T.);
#1131=ORIENTED_EDGE('',*,*,#764,.T.);
#1132=ORIENTED_EDGE('',*,*,#761,.T.);
#1133=ORIENTED_EDGE('',*,*,#733,.T.);
#1134=ORIENTED_EDGE('',*,*,#755,.T.);
#1135=ORIENTED_EDGE('',*,*,#752,.T.);
#1136=ORIENTED_EDGE('',*,*,#749,.T.);
#1137=ORIENTED_EDGE('',*,*,#746,.T.);
#1138=ORIENTED_EDGE('',*,*,#743,.T.);
#1139=ORIENTED_EDGE('',*,*,#740,.T.);
#1140=ORIENTED_EDGE('',*,*,#737,.T.);
#1141=ORIENTED_EDGE('',*,*,#709,.T.);
#1142=ORIENTED_EDGE('',*,*,#731,.T.);
#1143=ORIENTED_EDGE('',*,*,#728,.T.);
#1144=ORIENTED_EDGE('',*,*,#725,.T.);
#1145=ORIENTED_EDGE('',*,*,#722,.T.);
#1146=ORIENTED_EDGE('',*,*,#719,.T.);
#1147=ORIENTED_EDGE('',*,*,#716,.T.);
#1148=ORIENTED_EDGE('',*,*,#713,.T.);
#1149=ORIENTED_EDGE('',*,*,#685,.T.);
#1150=ORIENTED_EDGE('',*,*,#707,.T.);
#1151=ORIENTED_EDGE('',*,*,#704,.T.);
#1152=ORIENTED_EDGE('',*,*,#701,.T.);
#1153=ORIENTED_EDGE('',*,*,#698,.T.);
#1154=ORIENTED_EDGE('',*,*,#695,.T.);
#1155=ORIENTED_EDGE('',*,*,#692,.T.);
#1156=ORIENTED_EDGE('',*,*,#689,.T.);
#1157=ORIENTED_EDGE('',*,*,#661,.T.);
#1158=ORIENTED_EDGE('',*,*,#683,.T.);
#1159=ORIENTED_EDGE('',*,*,#680,.T.);
#1160=ORIENTED_EDGE('',*,*,#677,.T.);
#1161=ORIENTED_EDGE('',*,*,#674,.T.);
#1162=ORIENTED_EDGE('',*,*,#671,.T.);
#1163=ORIENTED_EDGE('',*,*,#668,.T.);
#1164=ORIENTED_EDGE('',*,*,#665,.T.);
#1165=CYLINDRICAL_SURFACE('',#1273,1.45);
#1166=CYLINDRICAL_SURFACE('',#1276,1.45);
#1167=CYLINDRICAL_SURFACE('',#1279,1.45);
#1168=CYLINDRICAL_SURFACE('',#1282,1.45);
#1169=CYLINDRICAL_SURFACE('',#1286,2.5);
#1170=CYLINDRICAL_SURFACE('',#1290,2.5);
#1171=CYLINDRICAL_SURFACE('',#1294,2.5);
#1172=CYLINDRICAL_SURFACE('',#1298,2.5);
#1173=CYLINDRICAL_SURFACE('',#1302,0.499999999999998);
#1174=CYLINDRICAL_SURFACE('',#1306,0.500000000000003);
#1175=CYLINDRICAL_SURFACE('',#1310,0.499999999999998);
#1176=CYLINDRICAL_SURFACE('',#1314,0.499999999999998);
#1177=CYLINDRICAL_SURFACE('',#1318,0.499999999999998);
#1178=CYLINDRICAL_SURFACE('',#1322,0.499999999999998);
#1179=CYLINDRICAL_SURFACE('',#1326,0.499999999999998);
#1180=CYLINDRICAL_SURFACE('',#1330,0.499999999999999);
#1181=CYLINDRICAL_SURFACE('',#1334,0.500000000000003);
#1182=CYLINDRICAL_SURFACE('',#1338,0.500000000000003);
#1183=CYLINDRICAL_SURFACE('',#1342,0.499999999999998);
#1184=CYLINDRICAL_SURFACE('',#1346,0.499999999999998);
#1185=CYLINDRICAL_SURFACE('',#1350,0.499999999999998);
#1186=CYLINDRICAL_SURFACE('',#1354,0.499999999999998);
#1187=CYLINDRICAL_SURFACE('',#1358,0.499999999999998);
#1188=CYLINDRICAL_SURFACE('',#1362,0.5);
#1189=CYLINDRICAL_SURFACE('',#1366,0.500000000000003);
#1190=CYLINDRICAL_SURFACE('',#1370,0.499999999999998);
#1191=CYLINDRICAL_SURFACE('',#1374,0.499999999999998);
#1192=CYLINDRICAL_SURFACE('',#1378,0.5);
#1193=CYLINDRICAL_SURFACE('',#1382,0.499999999999998);
#1194=CYLINDRICAL_SURFACE('',#1386,0.500000000000003);
#1195=CYLINDRICAL_SURFACE('',#1390,0.499999999999998);
#1196=CYLINDRICAL_SURFACE('',#1394,0.499999999999998);
#1197=ADVANCED_FACE('',(#65),#1165,.F.);
#1198=ADVANCED_FACE('',(#66),#1166,.F.);
#1199=ADVANCED_FACE('',(#67),#1167,.F.);
#1200=ADVANCED_FACE('',(#68),#1168,.F.);
#1201=ADVANCED_FACE('',(#69),#35,.T.);
#1202=ADVANCED_FACE('',(#70),#1169,.T.);
#1203=ADVANCED_FACE('',(#71),#36,.T.);
#1204=ADVANCED_FACE('',(#72),#1170,.T.);
#1205=ADVANCED_FACE('',(#73),#37,.T.);
#1206=ADVANCED_FACE('',(#74),#1171,.T.);
#1207=ADVANCED_FACE('',(#75),#38,.T.);
#1208=ADVANCED_FACE('',(#76),#1172,.T.);
#1209=ADVANCED_FACE('',(#77),#39,.F.);
#1210=ADVANCED_FACE('',(#78),#1173,.F.);
#1211=ADVANCED_FACE('',(#79),#40,.F.);
#1212=ADVANCED_FACE('',(#80),#1174,.F.);
#1213=ADVANCED_FACE('',(#81),#41,.F.);
#1214=ADVANCED_FACE('',(#82),#1175,.F.);
#1215=ADVANCED_FACE('',(#83),#42,.F.);
#1216=ADVANCED_FACE('',(#84),#1176,.F.);
#1217=ADVANCED_FACE('',(#85),#43,.F.);
#1218=ADVANCED_FACE('',(#86),#1177,.F.);
#1219=ADVANCED_FACE('',(#87),#44,.F.);
#1220=ADVANCED_FACE('',(#88),#1178,.F.);
#1221=ADVANCED_FACE('',(#89),#45,.F.);
#1222=ADVANCED_FACE('',(#90),#1179,.F.);
#1223=ADVANCED_FACE('',(#91),#46,.F.);
#1224=ADVANCED_FACE('',(#92),#1180,.F.);
#1225=ADVANCED_FACE('',(#93),#47,.F.);
#1226=ADVANCED_FACE('',(#94),#1181,.F.);
#1227=ADVANCED_FACE('',(#95),#48,.F.);
#1228=ADVANCED_FACE('',(#96),#1182,.F.);
#1229=ADVANCED_FACE('',(#97),#49,.F.);
#1230=ADVANCED_FACE('',(#98),#1183,.F.);
#1231=ADVANCED_FACE('',(#99),#50,.F.);
#1232=ADVANCED_FACE('',(#100),#1184,.F.);
#1233=ADVANCED_FACE('',(#101),#51,.F.);
#1234=ADVANCED_FACE('',(#102),#1185,.F.);
#1235=ADVANCED_FACE('',(#103),#52,.F.);
#1236=ADVANCED_FACE('',(#104),#1186,.F.);
#1237=ADVANCED_FACE('',(#105),#53,.F.);
#1238=ADVANCED_FACE('',(#106),#1187,.F.);
#1239=ADVANCED_FACE('',(#107),#54,.F.);
#1240=ADVANCED_FACE('',(#108),#1188,.F.);
#1241=ADVANCED_FACE('',(#109),#55,.F.);
#1242=ADVANCED_FACE('',(#110),#1189,.F.);
#1243=ADVANCED_FACE('',(#111),#56,.F.);
#1244=ADVANCED_FACE('',(#112),#1190,.F.);
#1245=ADVANCED_FACE('',(#113),#57,.F.);
#1246=ADVANCED_FACE('',(#114),#1191,.F.);
#1247=ADVANCED_FACE('',(#115),#58,.F.);
#1248=ADVANCED_FACE('',(#116),#1192,.F.);
#1249=ADVANCED_FACE('',(#117),#59,.F.);
#1250=ADVANCED_FACE('',(#118),#1193,.F.);
#1251=ADVANCED_FACE('',(#119),#60,.F.);
#1252=ADVANCED_FACE('',(#120),#1194,.F.);
#1253=ADVANCED_FACE('',(#121),#61,.F.);
#1254=ADVANCED_FACE('',(#122),#1195,.F.);
#1255=ADVANCED_FACE('',(#123),#62,.F.);
#1256=ADVANCED_FACE('',(#124),#1196,.F.);
#1257=ADVANCED_FACE('',(#125,#15,#16,#17,#18,#19,#20,#21,#22,#23,#24),#63,
 .T.);
#1258=ADVANCED_FACE('',(#126,#25,#26,#27,#28,#29,#30,#31,#32,#33,#34),#64,
 .F.);
#1259=CLOSED_SHELL('',(#1197,#1198,#1199,#1200,#1201,#1202,#1203,#1204,
#1205,#1206,#1207,#1208,#1209,#1210,#1211,#1212,#1213,#1214,#1215,#1216,
#1217,#1218,#1219,#1220,#1221,#1222,#1223,#1224,#1225,#1226,#1227,#1228,
#1229,#1230,#1231,#1232,#1233,#1234,#1235,#1236,#1237,#1238,#1239,#1240,
#1241,#1242,#1243,#1244,#1245,#1246,#1247,#1248,#1249,#1250,#1251,#1252,
#1253,#1254,#1255,#1256,#1257,#1258));
#1260=DERIVED_UNIT_ELEMENT(#1262,1.);
#1261=DERIVED_UNIT_ELEMENT(#2137,-3.);
#1262=(
MASS_UNIT()
NAMED_UNIT(*)
SI_UNIT(.KILO.,.GRAM.)
);
#1263=DERIVED_UNIT((#1260,#1261));
#1264=MEASURE_REPRESENTATION_ITEM('density measure',
POSITIVE_RATIO_MEASURE(7850.),#1263);
#1265=PROPERTY_DEFINITION_REPRESENTATION(#1270,#1267);
#1266=PROPERTY_DEFINITION_REPRESENTATION(#1271,#1268);
#1267=REPRESENTATION('material name',(#1269),#2134);
#1268=REPRESENTATION('density',(#1264),#2134);
#1269=DESCRIPTIVE_REPRESENTATION_ITEM('Steel','Steel');
#1270=PROPERTY_DEFINITION('material property','material name',#2144);
#1271=PROPERTY_DEFINITION('material property','density of part',#2144);
#1272=AXIS2_PLACEMENT_3D('',#1769,#1399,#1400);
#1273=AXIS2_PLACEMENT_3D('',#1770,#1401,#1402);
#1274=AXIS2_PLACEMENT_3D('',#1772,#1403,#1404);
#1275=AXIS2_PLACEMENT_3D('',#1775,#1406,#1407);
#1276=AXIS2_PLACEMENT_3D('',#1776,#1408,#1409);
#1277=AXIS2_PLACEMENT_3D('',#1778,#1410,#1411);
#1278=AXIS2_PLACEMENT_3D('',#1781,#1413,#1414);
#1279=AXIS2_PLACEMENT_3D('',#1782,#1415,#1416);
#1280=AXIS2_PLACEMENT_3D('',#1784,#1417,#1418);
#1281=AXIS2_PLACEMENT_3D('',#1787,#1420,#1421);
#1282=AXIS2_PLACEMENT_3D('',#1788,#1422,#1423);
#1283=AXIS2_PLACEMENT_3D('',#1790,#1424,#1425);
#1284=AXIS2_PLACEMENT_3D('',#1793,#1427,#1428);
#1285=AXIS2_PLACEMENT_3D('',#1794,#1429,#1430);
#1286=AXIS2_PLACEMENT_3D('',#1803,#1435,#1436);
#1287=AXIS2_PLACEMENT_3D('',#1805,#1437,#1438);
#1288=AXIS2_PLACEMENT_3D('',#1807,#1439,#1440);
#1289=AXIS2_PLACEMENT_3D('',#1809,#1442,#1443);
#1290=AXIS2_PLACEMENT_3D('',#1815,#1447,#1448);
#1291=AXIS2_PLACEMENT_3D('',#1817,#1449,#1450);
#1292=AXIS2_PLACEMENT_3D('',#1819,#1451,#1452);
#1293=AXIS2_PLACEMENT_3D('',#1821,#1454,#1455);
#1294=AXIS2_PLACEMENT_3D('',#1827,#1459,#1460);
#1295=AXIS2_PLACEMENT_3D('',#1829,#1461,#1462);
#1296=AXIS2_PLACEMENT_3D('',#1831,#1463,#1464);
#1297=AXIS2_PLACEMENT_3D('',#1833,#1466,#1467);
#1298=AXIS2_PLACEMENT_3D('',#1839,#1471,#1472);
#1299=AXIS2_PLACEMENT_3D('',#1840,#1473,#1474);
#1300=AXIS2_PLACEMENT_3D('',#1841,#1475,#1476);
#1301=AXIS2_PLACEMENT_3D('',#1842,#1477,#1478);
#1302=AXIS2_PLACEMENT_3D('',#1851,#1483,#1484);
#1303=AXIS2_PLACEMENT_3D('',#1853,#1485,#1486);
#1304=AXIS2_PLACEMENT_3D('',#1856,#1488,#1489);
#1305=AXIS2_PLACEMENT_3D('',#1857,#1490,#1491);
#1306=AXIS2_PLACEMENT_3D('',#1863,#1495,#1496);
#1307=AXIS2_PLACEMENT_3D('',#1865,#1497,#1498);
#1308=AXIS2_PLACEMENT_3D('',#1868,#1500,#1501);
#1309=AXIS2_PLACEMENT_3D('',#1869,#1502,#1503);
#1310=AXIS2_PLACEMENT_3D('',#1875,#1507,#1508);
#1311=AXIS2_PLACEMENT_3D('',#1877,#1509,#1510);
#1312=AXIS2_PLACEMENT_3D('',#1880,#1512,#1513);
#1313=AXIS2_PLACEMENT_3D('',#1881,#1514,#1515);
#1314=AXIS2_PLACEMENT_3D('',#1887,#1519,#1520);
#1315=AXIS2_PLACEMENT_3D('',#1888,#1521,#1522);
#1316=AXIS2_PLACEMENT_3D('',#1889,#1523,#1524);
#1317=AXIS2_PLACEMENT_3D('',#1890,#1525,#1526);
#1318=AXIS2_PLACEMENT_3D('',#1899,#1531,#1532);
#1319=AXIS2_PLACEMENT_3D('',#1901,#1533,#1534);
#1320=AXIS2_PLACEMENT_3D('',#1904,#1536,#1537);
#1321=AXIS2_PLACEMENT_3D('',#1905,#1538,#1539);
#1322=AXIS2_PLACEMENT_3D('',#1911,#1543,#1544);
#1323=AXIS2_PLACEMENT_3D('',#1913,#1545,#1546);
#1324=AXIS2_PLACEMENT_3D('',#1916,#1548,#1549);
#1325=AXIS2_PLACEMENT_3D('',#1917,#1550,#1551);
#1326=AXIS2_PLACEMENT_3D('',#1923,#1555,#1556);
#1327=AXIS2_PLACEMENT_3D('',#1925,#1557,#1558);
#1328=AXIS2_PLACEMENT_3D('',#1928,#1560,#1561);
#1329=AXIS2_PLACEMENT_3D('',#1929,#1562,#1563);
#1330=AXIS2_PLACEMENT_3D('',#1935,#1567,#1568);
#1331=AXIS2_PLACEMENT_3D('',#1936,#1569,#1570);
#1332=AXIS2_PLACEMENT_3D('',#1937,#1571,#1572);
#1333=AXIS2_PLACEMENT_3D('',#1938,#1573,#1574);
#1334=AXIS2_PLACEMENT_3D('',#1947,#1579,#1580);
#1335=AXIS2_PLACEMENT_3D('',#1949,#1581,#1582);
#1336=AXIS2_PLACEMENT_3D('',#1952,#1584,#1585);
#1337=AXIS2_PLACEMENT_3D('',#1953,#1586,#1587);
#1338=AXIS2_PLACEMENT_3D('',#1959,#1591,#1592);
#1339=AXIS2_PLACEMENT_3D('',#1961,#1593,#1594);
#1340=AXIS2_PLACEMENT_3D('',#1964,#1596,#1597);
#1341=AXIS2_PLACEMENT_3D('',#1965,#1598,#1599);
#1342=AXIS2_PLACEMENT_3D('',#1971,#1603,#1604);
#1343=AXIS2_PLACEMENT_3D('',#1973,#1605,#1606);
#1344=AXIS2_PLACEMENT_3D('',#1976,#1608,#1609);
#1345=AXIS2_PLACEMENT_3D('',#1977,#1610,#1611);
#1346=AXIS2_PLACEMENT_3D('',#1983,#1615,#1616);
#1347=AXIS2_PLACEMENT_3D('',#1984,#1617,#1618);
#1348=AXIS2_PLACEMENT_3D('',#1985,#1619,#1620);
#1349=AXIS2_PLACEMENT_3D('',#1986,#1621,#1622);
#1350=AXIS2_PLACEMENT_3D('',#1995,#1627,#1628);
#1351=AXIS2_PLACEMENT_3D('',#1997,#1629,#1630);
#1352=AXIS2_PLACEMENT_3D('',#2000,#1632,#1633);
#1353=AXIS2_PLACEMENT_3D('',#2001,#1634,#1635);
#1354=AXIS2_PLACEMENT_3D('',#2007,#1639,#1640);
#1355=AXIS2_PLACEMENT_3D('',#2009,#1641,#1642);
#1356=AXIS2_PLACEMENT_3D('',#2012,#1644,#1645);
#1357=AXIS2_PLACEMENT_3D('',#2013,#1646,#1647);
#1358=AXIS2_PLACEMENT_3D('',#2019,#1651,#1652);
#1359=AXIS2_PLACEMENT_3D('',#2021,#1653,#1654);
#1360=AXIS2_PLACEMENT_3D('',#2024,#1656,#1657);
#1361=AXIS2_PLACEMENT_3D('',#2025,#1658,#1659);
#1362=AXIS2_PLACEMENT_3D('',#2031,#1663,#1664);
#1363=AXIS2_PLACEMENT_3D('',#2032,#1665,#1666);
#1364=AXIS2_PLACEMENT_3D('',#2033,#1667,#1668);
#1365=AXIS2_PLACEMENT_3D('',#2034,#1669,#1670);
#1366=AXIS2_PLACEMENT_3D('',#2043,#1675,#1676);
#1367=AXIS2_PLACEMENT_3D('',#2045,#1677,#1678);
#1368=AXIS2_PLACEMENT_3D('',#2048,#1680,#1681);
#1369=AXIS2_PLACEMENT_3D('',#2049,#1682,#1683);
#1370=AXIS2_PLACEMENT_3D('',#2055,#1687,#1688);
#1371=AXIS2_PLACEMENT_3D('',#2057,#1689,#1690);
#1372=AXIS2_PLACEMENT_3D('',#2060,#1692,#1693);
#1373=AXIS2_PLACEMENT_3D('',#2061,#1694,#1695);
#1374=AXIS2_PLACEMENT_3D('',#2067,#1699,#1700);
#1375=AXIS2_PLACEMENT_3D('',#2069,#1701,#1702);
#1376=AXIS2_PLACEMENT_3D('',#2072,#1704,#1705);
#1377=AXIS2_PLACEMENT_3D('',#2073,#1706,#1707);
#1378=AXIS2_PLACEMENT_3D('',#2079,#1711,#1712);
#1379=AXIS2_PLACEMENT_3D('',#2080,#1713,#1714);
#1380=AXIS2_PLACEMENT_3D('',#2081,#1715,#1716);
#1381=AXIS2_PLACEMENT_3D('',#2082,#1717,#1718);
#1382=AXIS2_PLACEMENT_3D('',#2091,#1723,#1724);
#1383=AXIS2_PLACEMENT_3D('',#2093,#1725,#1726);
#1384=AXIS2_PLACEMENT_3D('',#2096,#1728,#1729);
#1385=AXIS2_PLACEMENT_3D('',#2097,#1730,#1731);
#1386=AXIS2_PLACEMENT_3D('',#2103,#1735,#1736);
#1387=AXIS2_PLACEMENT_3D('',#2105,#1737,#1738);
#1388=AXIS2_PLACEMENT_3D('',#2108,#1740,#1741);
#1389=AXIS2_PLACEMENT_3D('',#2109,#1742,#1743);
#1390=AXIS2_PLACEMENT_3D('',#2115,#1747,#1748);
#1391=AXIS2_PLACEMENT_3D('',#2117,#1749,#1750);
#1392=AXIS2_PLACEMENT_3D('',#2120,#1752,#1753);
#1393=AXIS2_PLACEMENT_3D('',#2121,#1754,#1755);
#1394=AXIS2_PLACEMENT_3D('',#2127,#1759,#1760);
#1395=AXIS2_PLACEMENT_3D('',#2128,#1761,#1762);
#1396=AXIS2_PLACEMENT_3D('',#2129,#1763,#1764);
#1397=AXIS2_PLACEMENT_3D('',#2130,#1765,#1766);
#1398=AXIS2_PLACEMENT_3D('',#2131,#1767,#1768);
#1399=DIRECTION('axis',(0.,0.,1.));
#1400=DIRECTION('refdir',(1.,0.,0.));
#1401=DIRECTION('center_axis',(0.,0.,1.));
#1402=DIRECTION('ref_axis',(1.,0.,0.));
#1403=DIRECTION('center_axis',(0.,0.,-1.));
#1404=DIRECTION('ref_axis',(1.,0.,0.));
#1405=DIRECTION('',(0.,0.,-1.));
#1406=DIRECTION('center_axis',(0.,0.,-1.));
#1407=DIRECTION('ref_axis',(1.,0.,0.));
#1408=DIRECTION('center_axis',(0.,0.,1.));
#1409=DIRECTION('ref_axis',(1.,0.,0.));
#1410=DIRECTION('center_axis',(0.,0.,-1.));
#1411=DIRECTION('ref_axis',(1.,0.,0.));
#1412=DIRECTION('',(0.,0.,-1.));
#1413=DIRECTION('center_axis',(0.,0.,-1.));
#1414=DIRECTION('ref_axis',(1.,0.,0.));
#1415=DIRECTION('center_axis',(0.,0.,1.));
#1416=DIRECTION('ref_axis',(1.,0.,0.));
#1417=DIRECTION('center_axis',(0.,0.,-1.));
#1418=DIRECTION('ref_axis',(1.,0.,0.));
#1419=DIRECTION('',(0.,0.,-1.));
#1420=DIRECTION('center_axis',(0.,0.,-1.));
#1421=DIRECTION('ref_axis',(1.,0.,0.));
#1422=DIRECTION('center_axis',(0.,0.,1.));
#1423=DIRECTION('ref_axis',(1.,0.,0.));
#1424=DIRECTION('center_axis',(0.,0.,-1.));
#1425=DIRECTION('ref_axis',(1.,0.,0.));
#1426=DIRECTION('',(0.,0.,-1.));
#1427=DIRECTION('center_axis',(0.,0.,-1.));
#1428=DIRECTION('ref_axis',(1.,0.,0.));
#1429=DIRECTION('center_axis',(0.,-1.,0.));
#1430=DIRECTION('ref_axis',(1.,0.,0.));
#1431=DIRECTION('',(1.,0.,0.));
#1432=DIRECTION('',(0.,0.,1.));
#1433=DIRECTION('',(1.,0.,0.));
#1434=DIRECTION('',(0.,0.,1.));
#1435=DIRECTION('center_axis',(0.,0.,1.));
#1436=DIRECTION('ref_axis',(-1.,-8.88178419700125E-15,0.));
#1437=DIRECTION('center_axis',(0.,0.,1.));
#1438=DIRECTION('ref_axis',(-1.,-8.88178419700125E-15,0.));
#1439=DIRECTION('center_axis',(0.,0.,1.));
#1440=DIRECTION('ref_axis',(-1.,-8.88178419700125E-15,0.));
#1441=DIRECTION('',(0.,0.,1.));
#1442=DIRECTION('center_axis',(-1.,-1.11161254030053E-16,0.));
#1443=DIRECTION('ref_axis',(1.11161254030053E-16,-1.,0.));
#1444=DIRECTION('',(1.11161254030053E-16,-1.,0.));
#1445=DIRECTION('',(1.11161254030053E-16,-1.,0.));
#1446=DIRECTION('',(0.,0.,1.));
#1447=DIRECTION('center_axis',(0.,0.,1.));
#1448=DIRECTION('ref_axis',(-3.5527136788005E-15,1.,0.));
#1449=DIRECTION('center_axis',(0.,0.,1.));
#1450=DIRECTION('ref_axis',(-3.5527136788005E-15,1.,0.));
#1451=DIRECTION('center_axis',(0.,0.,1.));
#1452=DIRECTION('ref_axis',(-3.5527136788005E-15,1.,0.));
#1453=DIRECTION('',(0.,0.,1.));
#1454=DIRECTION('center_axis',(0.,1.,0.));
#1455=DIRECTION('ref_axis',(-1.,0.,0.));
#1456=DIRECTION('',(-1.,0.,0.));
#1457=DIRECTION('',(-1.,0.,0.));
#1458=DIRECTION('',(0.,0.,1.));
#1459=DIRECTION('center_axis',(0.,0.,1.));
#1460=DIRECTION('ref_axis',(1.,1.77635683940025E-15,0.));
#1461=DIRECTION('center_axis',(0.,0.,1.));
#1462=DIRECTION('ref_axis',(1.,1.77635683940025E-15,0.));
#1463=DIRECTION('center_axis',(0.,0.,1.));
#1464=DIRECTION('ref_axis',(1.,1.77635683940025E-15,0.));
#1465=DIRECTION('',(0.,0.,1.));
#1466=DIRECTION('center_axis',(1.,0.,0.));
#1467=DIRECTION('ref_axis',(0.,1.,0.));
#1468=DIRECTION('',(0.,1.,0.));
#1469=DIRECTION('',(0.,1.,0.));
#1470=DIRECTION('',(0.,0.,1.));
#1471=DIRECTION('center_axis',(0.,0.,1.));
#1472=DIRECTION('ref_axis',(3.5527136788005E-15,-1.,0.));
#1473=DIRECTION('center_axis',(0.,0.,1.));
#1474=DIRECTION('ref_axis',(3.5527136788005E-15,-1.,0.));
#1475=DIRECTION('center_axis',(0.,0.,1.));
#1476=DIRECTION('ref_axis',(3.5527136788005E-15,-1.,0.));
#1477=DIRECTION('center_axis',(0.,1.,0.));
#1478=DIRECTION('ref_axis',(-1.,0.,0.));
#1479=DIRECTION('',(-1.,0.,0.));
#1480=DIRECTION('',(0.,0.,1.));
#1481=DIRECTION('',(1.,0.,0.));
#1482=DIRECTION('',(0.,0.,1.));
#1483=DIRECTION('center_axis',(0.,0.,1.));
#1484=DIRECTION('ref_axis',(1.,0.,0.));
#1485=DIRECTION('center_axis',(0.,0.,1.));
#1486=DIRECTION('ref_axis',(1.,0.,0.));
#1487=DIRECTION('',(0.,0.,1.));
#1488=DIRECTION('center_axis',(0.,0.,-1.));
#1489=DIRECTION('ref_axis',(1.,0.,0.));
#1490=DIRECTION('center_axis',(1.,0.,0.));
#1491=DIRECTION('ref_axis',(0.,1.,0.));
#1492=DIRECTION('',(0.,1.,0.));
#1493=DIRECTION('',(0.,0.,1.));
#1494=DIRECTION('',(0.,-1.,0.));
#1495=DIRECTION('center_axis',(0.,0.,1.));
#1496=DIRECTION('ref_axis',(-4.4408920985006E-15,-1.,0.));
#1497=DIRECTION('center_axis',(0.,0.,1.));
#1498=DIRECTION('ref_axis',(-4.4408920985006E-15,-1.,0.));
#1499=DIRECTION('',(0.,0.,1.));
#1500=DIRECTION('center_axis',(0.,0.,-1.));
#1501=DIRECTION('ref_axis',(-4.4408920985006E-15,-1.,0.));
#1502=DIRECTION('center_axis',(0.,-1.,0.));
#1503=DIRECTION('ref_axis',(1.,0.,0.));
#1504=DIRECTION('',(1.,0.,0.));
#1505=DIRECTION('',(0.,0.,1.));
#1506=DIRECTION('',(-1.,0.,0.));
#1507=DIRECTION('center_axis',(0.,0.,1.));
#1508=DIRECTION('ref_axis',(-1.,0.,0.));
#1509=DIRECTION('center_axis',(0.,0.,1.));
#1510=DIRECTION('ref_axis',(-1.,0.,0.));
#1511=DIRECTION('',(0.,0.,1.));
#1512=DIRECTION('center_axis',(0.,0.,-1.));
#1513=DIRECTION('ref_axis',(-1.,0.,0.));
#1514=DIRECTION('center_axis',(-1.,0.,0.));
#1515=DIRECTION('ref_axis',(0.,-1.,0.));
#1516=DIRECTION('',(0.,-1.,0.));
#1517=DIRECTION('',(0.,0.,1.));
#1518=DIRECTION('',(0.,1.,0.));
#1519=DIRECTION('center_axis',(0.,0.,1.));
#1520=DIRECTION('ref_axis',(0.,1.,0.));
#1521=DIRECTION('center_axis',(0.,0.,1.));
#1522=DIRECTION('ref_axis',(0.,1.,0.));
#1523=DIRECTION('center_axis',(0.,0.,-1.));
#1524=DIRECTION('ref_axis',(0.,1.,0.));
#1525=DIRECTION('center_axis',(0.,1.,0.));
#1526=DIRECTION('ref_axis',(-1.,0.,0.));
#1527=DIRECTION('',(-1.,0.,0.));
#1528=DIRECTION('',(0.,0.,1.));
#1529=DIRECTION('',(1.,0.,0.));
#1530=DIRECTION('',(0.,0.,1.));
#1531=DIRECTION('center_axis',(0.,0.,1.));
#1532=DIRECTION('ref_axis',(1.,0.,0.));
#1533=DIRECTION('center_axis',(0.,0.,1.));
#1534=DIRECTION('ref_axis',(1.,0.,0.));
#1535=DIRECTION('',(0.,0.,1.));
#1536=DIRECTION('center_axis',(0.,0.,-1.));
#1537=DIRECTION('ref_axis',(1.,0.,0.));
#1538=DIRECTION('center_axis',(1.,0.,0.));
#1539=DIRECTION('ref_axis',(0.,1.,0.));
#1540=DIRECTION('',(0.,1.,0.));
#1541=DIRECTION('',(0.,0.,1.));
#1542=DIRECTION('',(0.,-1.,0.));
#1543=DIRECTION('center_axis',(0.,0.,1.));
#1544=DIRECTION('ref_axis',(0.,-1.,0.));
#1545=DIRECTION('center_axis',(0.,0.,1.));
#1546=DIRECTION('ref_axis',(0.,-1.,0.));
#1547=DIRECTION('',(0.,0.,1.));
#1548=DIRECTION('center_axis',(0.,0.,-1.));
#1549=DIRECTION('ref_axis',(0.,-1.,0.));
#1550=DIRECTION('center_axis',(0.,-1.,0.));
#1551=DIRECTION('ref_axis',(1.,0.,0.));
#1552=DIRECTION('',(1.,0.,0.));
#1553=DIRECTION('',(0.,0.,1.));
#1554=DIRECTION('',(-1.,0.,0.));
#1555=DIRECTION('center_axis',(0.,0.,1.));
#1556=DIRECTION('ref_axis',(-1.,0.,0.));
#1557=DIRECTION('center_axis',(0.,0.,1.));
#1558=DIRECTION('ref_axis',(-1.,0.,0.));
#1559=DIRECTION('',(0.,0.,1.));
#1560=DIRECTION('center_axis',(0.,0.,-1.));
#1561=DIRECTION('ref_axis',(-1.,0.,0.));
#1562=DIRECTION('center_axis',(-1.,0.,0.));
#1563=DIRECTION('ref_axis',(0.,-1.,0.));
#1564=DIRECTION('',(0.,-1.,0.));
#1565=DIRECTION('',(0.,0.,1.));
#1566=DIRECTION('',(0.,1.,0.));
#1567=DIRECTION('center_axis',(0.,0.,1.));
#1568=DIRECTION('ref_axis',(0.,1.,0.));
#1569=DIRECTION('center_axis',(0.,0.,1.));
#1570=DIRECTION('ref_axis',(0.,1.,0.));
#1571=DIRECTION('center_axis',(0.,0.,-1.));
#1572=DIRECTION('ref_axis',(0.,1.,0.));
#1573=DIRECTION('center_axis',(0.,1.,0.));
#1574=DIRECTION('ref_axis',(-1.,0.,0.));
#1575=DIRECTION('',(-1.,0.,0.));
#1576=DIRECTION('',(0.,0.,1.));
#1577=DIRECTION('',(1.,0.,0.));
#1578=DIRECTION('',(0.,0.,1.));
#1579=DIRECTION('center_axis',(0.,0.,1.));
#1580=DIRECTION('ref_axis',(1.,0.,0.));
#1581=DIRECTION('center_axis',(0.,0.,1.));
#1582=DIRECTION('ref_axis',(1.,0.,0.));
#1583=DIRECTION('',(0.,0.,1.));
#1584=DIRECTION('center_axis',(0.,0.,-1.));
#1585=DIRECTION('ref_axis',(1.,0.,0.));
#1586=DIRECTION('center_axis',(1.,0.,0.));
#1587=DIRECTION('ref_axis',(0.,1.,0.));
#1588=DIRECTION('',(0.,1.,0.));
#1589=DIRECTION('',(0.,0.,1.));
#1590=DIRECTION('',(0.,-1.,0.));
#1591=DIRECTION('center_axis',(0.,0.,1.));
#1592=DIRECTION('ref_axis',(0.,-1.,0.));
#1593=DIRECTION('center_axis',(0.,0.,1.));
#1594=DIRECTION('ref_axis',(0.,-1.,0.));
#1595=DIRECTION('',(0.,0.,1.));
#1596=DIRECTION('center_axis',(0.,0.,-1.));
#1597=DIRECTION('ref_axis',(0.,-1.,0.));
#1598=DIRECTION('center_axis',(0.,-1.,0.));
#1599=DIRECTION('ref_axis',(1.,0.,0.));
#1600=DIRECTION('',(1.,0.,0.));
#1601=DIRECTION('',(0.,0.,1.));
#1602=DIRECTION('',(-1.,0.,0.));
#1603=DIRECTION('center_axis',(0.,0.,1.));
#1604=DIRECTION('ref_axis',(-1.,0.,0.));
#1605=DIRECTION('center_axis',(0.,0.,1.));
#1606=DIRECTION('ref_axis',(-1.,0.,0.));
#1607=DIRECTION('',(0.,0.,1.));
#1608=DIRECTION('center_axis',(0.,0.,-1.));
#1609=DIRECTION('ref_axis',(-1.,0.,0.));
#1610=DIRECTION('center_axis',(-1.,0.,0.));
#1611=DIRECTION('ref_axis',(0.,-1.,0.));
#1612=DIRECTION('',(0.,-1.,0.));
#1613=DIRECTION('',(0.,0.,1.));
#1614=DIRECTION('',(0.,1.,0.));
#1615=DIRECTION('center_axis',(0.,0.,1.));
#1616=DIRECTION('ref_axis',(0.,1.,0.));
#1617=DIRECTION('center_axis',(0.,0.,1.));
#1618=DIRECTION('ref_axis',(0.,1.,0.));
#1619=DIRECTION('center_axis',(0.,0.,-1.));
#1620=DIRECTION('ref_axis',(0.,1.,0.));
#1621=DIRECTION('center_axis',(0.,1.,0.));
#1622=DIRECTION('ref_axis',(-1.,0.,0.));
#1623=DIRECTION('',(-1.,0.,0.));
#1624=DIRECTION('',(0.,0.,1.));
#1625=DIRECTION('',(1.,0.,0.));
#1626=DIRECTION('',(0.,0.,1.));
#1627=DIRECTION('center_axis',(0.,0.,1.));
#1628=DIRECTION('ref_axis',(1.,0.,0.));
#1629=DIRECTION('center_axis',(0.,0.,1.));
#1630=DIRECTION('ref_axis',(1.,0.,0.));
#1631=DIRECTION('',(0.,0.,1.));
#1632=DIRECTION('center_axis',(0.,0.,-1.));
#1633=DIRECTION('ref_axis',(1.,0.,0.));
#1634=DIRECTION('center_axis',(1.,0.,0.));
#1635=DIRECTION('ref_axis',(0.,1.,0.));
#1636=DIRECTION('',(0.,1.,0.));
#1637=DIRECTION('',(0.,0.,1.));
#1638=DIRECTION('',(0.,-1.,0.));
#1639=DIRECTION('center_axis',(0.,0.,1.));
#1640=DIRECTION('ref_axis',(-4.44089209850064E-15,-1.,0.));
#1641=DIRECTION('center_axis',(0.,0.,1.));
#1642=DIRECTION('ref_axis',(-4.44089209850064E-15,-1.,0.));
#1643=DIRECTION('',(0.,0.,1.));
#1644=DIRECTION('center_axis',(0.,0.,-1.));
#1645=DIRECTION('ref_axis',(-4.44089209850064E-15,-1.,0.));
#1646=DIRECTION('center_axis',(0.,-1.,0.));
#1647=DIRECTION('ref_axis',(1.,0.,0.));
#1648=DIRECTION('',(1.,0.,0.));
#1649=DIRECTION('',(0.,0.,1.));
#1650=DIRECTION('',(-1.,0.,0.));
#1651=DIRECTION('center_axis',(0.,0.,1.));
#1652=DIRECTION('ref_axis',(-1.,0.,0.));
#1653=DIRECTION('center_axis',(0.,0.,1.));
#1654=DIRECTION('ref_axis',(-1.,0.,0.));
#1655=DIRECTION('',(0.,0.,1.));
#1656=DIRECTION('center_axis',(0.,0.,-1.));
#1657=DIRECTION('ref_axis',(-1.,0.,0.));
#1658=DIRECTION('center_axis',(-1.,0.,0.));
#1659=DIRECTION('ref_axis',(0.,-1.,0.));
#1660=DIRECTION('',(0.,-1.,0.));
#1661=DIRECTION('',(0.,0.,1.));
#1662=DIRECTION('',(0.,1.,0.));
#1663=DIRECTION('center_axis',(0.,0.,1.));
#1664=DIRECTION('ref_axis',(0.,1.,0.));
#1665=DIRECTION('center_axis',(0.,0.,1.));
#1666=DIRECTION('ref_axis',(0.,1.,0.));
#1667=DIRECTION('center_axis',(0.,0.,-1.));
#1668=DIRECTION('ref_axis',(0.,1.,0.));
#1669=DIRECTION('center_axis',(0.,1.,0.));
#1670=DIRECTION('ref_axis',(-1.,0.,0.));
#1671=DIRECTION('',(-1.,0.,0.));
#1672=DIRECTION('',(0.,0.,1.));
#1673=DIRECTION('',(1.,0.,0.));
#1674=DIRECTION('',(0.,0.,1.));
#1675=DIRECTION('center_axis',(0.,0.,1.));
#1676=DIRECTION('ref_axis',(1.,0.,0.));
#1677=DIRECTION('center_axis',(0.,0.,1.));
#1678=DIRECTION('ref_axis',(1.,0.,0.));
#1679=DIRECTION('',(0.,0.,1.));
#1680=DIRECTION('center_axis',(0.,0.,-1.));
#1681=DIRECTION('ref_axis',(1.,0.,0.));
#1682=DIRECTION('center_axis',(1.,0.,0.));
#1683=DIRECTION('ref_axis',(0.,1.,0.));
#1684=DIRECTION('',(0.,1.,0.));
#1685=DIRECTION('',(0.,0.,1.));
#1686=DIRECTION('',(0.,-1.,0.));
#1687=DIRECTION('center_axis',(0.,0.,1.));
#1688=DIRECTION('ref_axis',(0.,-1.,0.));
#1689=DIRECTION('center_axis',(0.,0.,1.));
#1690=DIRECTION('ref_axis',(0.,-1.,0.));
#1691=DIRECTION('',(0.,0.,1.));
#1692=DIRECTION('center_axis',(0.,0.,-1.));
#1693=DIRECTION('ref_axis',(0.,-1.,0.));
#1694=DIRECTION('center_axis',(0.,-1.,0.));
#1695=DIRECTION('ref_axis',(1.,0.,0.));
#1696=DIRECTION('',(1.,0.,0.));
#1697=DIRECTION('',(0.,0.,1.));
#1698=DIRECTION('',(-1.,0.,0.));
#1699=DIRECTION('center_axis',(0.,0.,1.));
#1700=DIRECTION('ref_axis',(-1.,0.,0.));
#1701=DIRECTION('center_axis',(0.,0.,1.));
#1702=DIRECTION('ref_axis',(-1.,0.,0.));
#1703=DIRECTION('',(0.,0.,1.));
#1704=DIRECTION('center_axis',(0.,0.,-1.));
#1705=DIRECTION('ref_axis',(-1.,0.,0.));
#1706=DIRECTION('center_axis',(-1.,0.,0.));
#1707=DIRECTION('ref_axis',(0.,-1.,0.));
#1708=DIRECTION('',(0.,-1.,0.));
#1709=DIRECTION('',(0.,0.,1.));
#1710=DIRECTION('',(0.,1.,0.));
#1711=DIRECTION('center_axis',(0.,0.,1.));
#1712=DIRECTION('ref_axis',(0.,1.,0.));
#1713=DIRECTION('center_axis',(0.,0.,1.));
#1714=DIRECTION('ref_axis',(0.,1.,0.));
#1715=DIRECTION('center_axis',(0.,0.,-1.));
#1716=DIRECTION('ref_axis',(0.,1.,0.));
#1717=DIRECTION('center_axis',(0.,1.,0.));
#1718=DIRECTION('ref_axis',(-1.,0.,0.));
#1719=DIRECTION('',(-1.,0.,0.));
#1720=DIRECTION('',(0.,0.,1.));
#1721=DIRECTION('',(1.,0.,0.));
#1722=DIRECTION('',(0.,0.,1.));
#1723=DIRECTION('center_axis',(0.,0.,1.));
#1724=DIRECTION('ref_axis',(1.,0.,0.));
#1725=DIRECTION('center_axis',(0.,0.,1.));
#1726=DIRECTION('ref_axis',(1.,0.,0.));
#1727=DIRECTION('',(0.,0.,1.));
#1728=DIRECTION('center_axis',(0.,0.,-1.));
#1729=DIRECTION('ref_axis',(1.,0.,0.));
#1730=DIRECTION('center_axis',(1.,0.,0.));
#1731=DIRECTION('ref_axis',(0.,1.,0.));
#1732=DIRECTION('',(0.,1.,0.));
#1733=DIRECTION('',(0.,0.,1.));
#1734=DIRECTION('',(0.,-1.,0.));
#1735=DIRECTION('center_axis',(0.,0.,1.));
#1736=DIRECTION('ref_axis',(0.,-1.,0.));
#1737=DIRECTION('center_axis',(0.,0.,1.));
#1738=DIRECTION('ref_axis',(0.,-1.,0.));
#1739=DIRECTION('',(0.,0.,1.));
#1740=DIRECTION('center_axis',(0.,0.,-1.));
#1741=DIRECTION('ref_axis',(0.,-1.,0.));
#1742=DIRECTION('center_axis',(0.,-1.,0.));
#1743=DIRECTION('ref_axis',(1.,0.,0.));
#1744=DIRECTION('',(1.,0.,0.));
#1745=DIRECTION('',(0.,0.,1.));
#1746=DIRECTION('',(-1.,0.,0.));
#1747=DIRECTION('center_axis',(0.,0.,1.));
#1748=DIRECTION('ref_axis',(-1.,0.,0.));
#1749=DIRECTION('center_axis',(0.,0.,1.));
#1750=DIRECTION('ref_axis',(-1.,0.,0.));
#1751=DIRECTION('',(0.,0.,1.));
#1752=DIRECTION('center_axis',(0.,0.,-1.));
#1753=DIRECTION('ref_axis',(-1.,0.,0.));
#1754=DIRECTION('center_axis',(-1.,0.,0.));
#1755=DIRECTION('ref_axis',(0.,-1.,0.));
#1756=DIRECTION('',(0.,-1.,0.));
#1757=DIRECTION('',(0.,0.,1.));
#1758=DIRECTION('',(0.,1.,0.));
#1759=DIRECTION('center_axis',(0.,0.,1.));
#1760=DIRECTION('ref_axis',(0.,1.,0.));
#1761=DIRECTION('center_axis',(0.,0.,1.));
#1762=DIRECTION('ref_axis',(0.,1.,0.));
#1763=DIRECTION('center_axis',(0.,0.,-1.));
#1764=DIRECTION('ref_axis',(0.,1.,0.));
#1765=DIRECTION('center_axis',(0.,0.,1.));
#1766=DIRECTION('ref_axis',(1.,0.,0.));
#1767=DIRECTION('center_axis',(0.,0.,1.));
#1768=DIRECTION('ref_axis',(1.,0.,0.));
#1769=CARTESIAN_POINT('',(0.,0.,0.));
#1770=CARTESIAN_POINT('Origin',(35.2,37.45,13.));
#1771=CARTESIAN_POINT('',(33.75,37.45,16.));
#1772=CARTESIAN_POINT('Origin',(35.2,37.45,16.));
#1773=CARTESIAN_POINT('',(33.75,37.45,13.));
#1774=CARTESIAN_POINT('',(33.75,37.45,13.));
#1775=CARTESIAN_POINT('Origin',(35.2,37.45,13.));
#1776=CARTESIAN_POINT('Origin',(35.2,-37.45,13.));
#1777=CARTESIAN_POINT('',(33.75,-37.45,16.));
#1778=CARTESIAN_POINT('Origin',(35.2,-37.45,16.));
#1779=CARTESIAN_POINT('',(33.75,-37.45,13.));
#1780=CARTESIAN_POINT('',(33.75,-37.45,13.));
#1781=CARTESIAN_POINT('Origin',(35.2,-37.45,13.));
#1782=CARTESIAN_POINT('Origin',(-35.2,37.45,13.));
#1783=CARTESIAN_POINT('',(-36.65,37.45,16.));
#1784=CARTESIAN_POINT('Origin',(-35.2,37.45,16.));
#1785=CARTESIAN_POINT('',(-36.65,37.45,13.));
#1786=CARTESIAN_POINT('',(-36.65,37.45,13.));
#1787=CARTESIAN_POINT('Origin',(-35.2,37.45,13.));
#1788=CARTESIAN_POINT('Origin',(-35.2,-37.45,13.));
#1789=CARTESIAN_POINT('',(-36.65,-37.45,16.));
#1790=CARTESIAN_POINT('Origin',(-35.2,-37.45,16.));
#1791=CARTESIAN_POINT('',(-36.65,-37.45,13.));
#1792=CARTESIAN_POINT('',(-36.65,-37.45,13.));
#1793=CARTESIAN_POINT('Origin',(-35.2,-37.45,13.));
#1794=CARTESIAN_POINT('Origin',(-37.7,-42.45,13.));
#1795=CARTESIAN_POINT('',(-37.7,-42.45,13.));
#1796=CARTESIAN_POINT('',(37.7,-42.45,13.));
#1797=CARTESIAN_POINT('',(-37.7,-42.45,13.));
#1798=CARTESIAN_POINT('',(37.7,-42.45,16.));
#1799=CARTESIAN_POINT('',(37.7,-42.45,13.));
#1800=CARTESIAN_POINT('',(-37.7,-42.45,16.));
#1801=CARTESIAN_POINT('',(-37.7,-42.45,16.));
#1802=CARTESIAN_POINT('',(-37.7,-42.45,13.));
#1803=CARTESIAN_POINT('Origin',(-37.7,-39.95,13.));
#1804=CARTESIAN_POINT('',(-40.2,-39.95,13.));
#1805=CARTESIAN_POINT('Origin',(-37.7,-39.95,13.));
#1806=CARTESIAN_POINT('',(-40.2,-39.95,16.));
#1807=CARTESIAN_POINT('Origin',(-37.7,-39.95,16.));
#1808=CARTESIAN_POINT('',(-40.2,-39.95,13.));
#1809=CARTESIAN_POINT('Origin',(-40.2,39.95,13.));
#1810=CARTESIAN_POINT('',(-40.2,39.95,13.));
#1811=CARTESIAN_POINT('',(-40.2,39.95,13.));
#1812=CARTESIAN_POINT('',(-40.2,39.95,16.));
#1813=CARTESIAN_POINT('',(-40.2,39.95,16.));
#1814=CARTESIAN_POINT('',(-40.2,39.95,13.));
#1815=CARTESIAN_POINT('Origin',(-37.7,39.95,13.));
#1816=CARTESIAN_POINT('',(-37.7,42.45,13.));
#1817=CARTESIAN_POINT('Origin',(-37.7,39.95,13.));
#1818=CARTESIAN_POINT('',(-37.7,42.45,16.));
#1819=CARTESIAN_POINT('Origin',(-37.7,39.95,16.));
#1820=CARTESIAN_POINT('',(-37.7,42.45,13.));
#1821=CARTESIAN_POINT('Origin',(37.7,42.45,13.));
#1822=CARTESIAN_POINT('',(37.7,42.45,13.));
#1823=CARTESIAN_POINT('',(37.7,42.45,13.));
#1824=CARTESIAN_POINT('',(37.7,42.45,16.));
#1825=CARTESIAN_POINT('',(37.7,42.45,16.));
#1826=CARTESIAN_POINT('',(37.7,42.45,13.));
#1827=CARTESIAN_POINT('Origin',(37.7,39.95,13.));
#1828=CARTESIAN_POINT('',(40.2,39.95,13.));
#1829=CARTESIAN_POINT('Origin',(37.7,39.95,13.));
#1830=CARTESIAN_POINT('',(40.2,39.95,16.));
#1831=CARTESIAN_POINT('Origin',(37.7,39.95,16.));
#1832=CARTESIAN_POINT('',(40.2,39.95,13.));
#1833=CARTESIAN_POINT('Origin',(40.2,-39.95,13.));
#1834=CARTESIAN_POINT('',(40.2,-39.95,13.));
#1835=CARTESIAN_POINT('',(40.2,-39.95,13.));
#1836=CARTESIAN_POINT('',(40.2,-39.95,16.));
#1837=CARTESIAN_POINT('',(40.2,-39.95,16.));
#1838=CARTESIAN_POINT('',(40.2,-39.95,13.));
#1839=CARTESIAN_POINT('Origin',(37.7,-39.95,13.));
#1840=CARTESIAN_POINT('Origin',(37.7,-39.95,13.));
#1841=CARTESIAN_POINT('Origin',(37.7,-39.95,16.));
#1842=CARTESIAN_POINT('Origin',(-12.475,-14.575,13.));
#1843=CARTESIAN_POINT('',(-12.475,-14.575,13.));
#1844=CARTESIAN_POINT('',(-25.475,-14.575,13.));
#1845=CARTESIAN_POINT('',(-6.2375,-14.575,13.));
#1846=CARTESIAN_POINT('',(-12.475,-14.575,16.));
#1847=CARTESIAN_POINT('',(-12.475,-14.575,13.));
#1848=CARTESIAN_POINT('',(-25.475,-14.575,16.));
#1849=CARTESIAN_POINT('',(-6.2375,-14.575,16.));
#1850=CARTESIAN_POINT('',(-25.475,-14.575,13.));
#1851=CARTESIAN_POINT('Origin',(-12.475,-15.075,13.));
#1852=CARTESIAN_POINT('',(-11.975,-15.075,13.));
#1853=CARTESIAN_POINT('Origin',(-12.475,-15.075,13.));
#1854=CARTESIAN_POINT('',(-11.975,-15.075,16.));
#1855=CARTESIAN_POINT('',(-11.975,-15.075,13.));
#1856=CARTESIAN_POINT('Origin',(-12.475,-15.075,16.));
#1857=CARTESIAN_POINT('Origin',(-11.975,-28.075,13.));
#1858=CARTESIAN_POINT('',(-11.975,-28.075,13.));
#1859=CARTESIAN_POINT('',(-11.975,-14.0375,13.));
#1860=CARTESIAN_POINT('',(-11.975,-28.075,16.));
#1861=CARTESIAN_POINT('',(-11.975,-28.075,13.));
#1862=CARTESIAN_POINT('',(-11.975,-14.0375,16.));
#1863=CARTESIAN_POINT('Origin',(-12.475,-28.075,13.));
#1864=CARTESIAN_POINT('',(-12.475,-28.575,13.));
#1865=CARTESIAN_POINT('Origin',(-12.475,-28.075,13.));
#1866=CARTESIAN_POINT('',(-12.475,-28.575,16.));
#1867=CARTESIAN_POINT('',(-12.475,-28.575,13.));
#1868=CARTESIAN_POINT('Origin',(-12.475,-28.075,16.));
#1869=CARTESIAN_POINT('Origin',(-25.475,-28.575,13.));
#1870=CARTESIAN_POINT('',(-25.475,-28.575,13.));
#1871=CARTESIAN_POINT('',(-12.7375,-28.575,13.));
#1872=CARTESIAN_POINT('',(-25.475,-28.575,16.));
#1873=CARTESIAN_POINT('',(-25.475,-28.575,13.));
#1874=CARTESIAN_POINT('',(-12.7375,-28.575,16.));
#1875=CARTESIAN_POINT('Origin',(-25.475,-28.075,13.));
#1876=CARTESIAN_POINT('',(-25.975,-28.075,13.));
#1877=CARTESIAN_POINT('Origin',(-25.475,-28.075,13.));
#1878=CARTESIAN_POINT('',(-25.975,-28.075,16.));
#1879=CARTESIAN_POINT('',(-25.975,-28.075,13.));
#1880=CARTESIAN_POINT('Origin',(-25.475,-28.075,16.));
#1881=CARTESIAN_POINT('Origin',(-25.975,-15.075,13.));
#1882=CARTESIAN_POINT('',(-25.975,-15.075,13.));
#1883=CARTESIAN_POINT('',(-25.975,-7.5375,13.));
#1884=CARTESIAN_POINT('',(-25.975,-15.075,16.));
#1885=CARTESIAN_POINT('',(-25.975,-15.075,13.));
#1886=CARTESIAN_POINT('',(-25.975,-7.5375,16.));
#1887=CARTESIAN_POINT('Origin',(-25.475,-15.075,13.));
#1888=CARTESIAN_POINT('Origin',(-25.475,-15.075,13.));
#1889=CARTESIAN_POINT('Origin',(-25.475,-15.075,16.));
#1890=CARTESIAN_POINT('Origin',(25.625,9.819,13.));
#1891=CARTESIAN_POINT('',(25.625,9.819,13.));
#1892=CARTESIAN_POINT('',(12.625,9.819,13.));
#1893=CARTESIAN_POINT('',(12.8125,9.819,13.));
#1894=CARTESIAN_POINT('',(25.625,9.819,16.));
#1895=CARTESIAN_POINT('',(25.625,9.819,13.));
#1896=CARTESIAN_POINT('',(12.625,9.819,16.));
#1897=CARTESIAN_POINT('',(12.8125,9.819,16.));
#1898=CARTESIAN_POINT('',(12.625,9.819,13.));
#1899=CARTESIAN_POINT('Origin',(25.625,9.319,13.));
#1900=CARTESIAN_POINT('',(26.125,9.319,13.));
#1901=CARTESIAN_POINT('Origin',(25.625,9.319,13.));
#1902=CARTESIAN_POINT('',(26.125,9.319,16.));
#1903=CARTESIAN_POINT('',(26.125,9.319,13.));
#1904=CARTESIAN_POINT('Origin',(25.625,9.319,16.));
#1905=CARTESIAN_POINT('Origin',(26.125,-3.681,13.));
#1906=CARTESIAN_POINT('',(26.125,-3.681,13.));
#1907=CARTESIAN_POINT('',(26.125,-1.8405,13.));
#1908=CARTESIAN_POINT('',(26.125,-3.681,16.));
#1909=CARTESIAN_POINT('',(26.125,-3.681,13.));
#1910=CARTESIAN_POINT('',(26.125,-1.8405,16.));
#1911=CARTESIAN_POINT('Origin',(25.625,-3.681,13.));
#1912=CARTESIAN_POINT('',(25.625,-4.181,13.));
#1913=CARTESIAN_POINT('Origin',(25.625,-3.681,13.));
#1914=CARTESIAN_POINT('',(25.625,-4.181,16.));
#1915=CARTESIAN_POINT('',(25.625,-4.181,13.));
#1916=CARTESIAN_POINT('Origin',(25.625,-3.681,16.));
#1917=CARTESIAN_POINT('Origin',(12.625,-4.181,13.));
#1918=CARTESIAN_POINT('',(12.625,-4.181,13.));
#1919=CARTESIAN_POINT('',(6.3125,-4.181,13.));
#1920=CARTESIAN_POINT('',(12.625,-4.181,16.));
#1921=CARTESIAN_POINT('',(12.625,-4.181,13.));
#1922=CARTESIAN_POINT('',(6.3125,-4.181,16.));
#1923=CARTESIAN_POINT('Origin',(12.625,-3.681,13.));
#1924=CARTESIAN_POINT('',(12.125,-3.681,13.));
#1925=CARTESIAN_POINT('Origin',(12.625,-3.681,13.));
#1926=CARTESIAN_POINT('',(12.125,-3.681,16.));
#1927=CARTESIAN_POINT('',(12.125,-3.681,13.));
#1928=CARTESIAN_POINT('Origin',(12.625,-3.681,16.));
#1929=CARTESIAN_POINT('Origin',(12.125,9.319,13.));
#1930=CARTESIAN_POINT('',(12.125,9.319,13.));
#1931=CARTESIAN_POINT('',(12.125,4.6595,13.));
#1932=CARTESIAN_POINT('',(12.125,9.319,16.));
#1933=CARTESIAN_POINT('',(12.125,9.319,13.));
#1934=CARTESIAN_POINT('',(12.125,4.6595,16.));
#1935=CARTESIAN_POINT('Origin',(12.625,9.319,13.));
#1936=CARTESIAN_POINT('Origin',(12.625,9.319,13.));
#1937=CARTESIAN_POINT('Origin',(12.625,9.319,16.));
#1938=CARTESIAN_POINT('Origin',(6.575,-14.575,13.));
#1939=CARTESIAN_POINT('',(6.575,-14.575,13.));
#1940=CARTESIAN_POINT('',(-6.425,-14.575,13.));
#1941=CARTESIAN_POINT('',(3.2875,-14.575,13.));
#1942=CARTESIAN_POINT('',(6.575,-14.575,16.));
#1943=CARTESIAN_POINT('',(6.575,-14.575,13.));
#1944=CARTESIAN_POINT('',(-6.425,-14.575,16.));
#1945=CARTESIAN_POINT('',(3.2875,-14.575,16.));
#1946=CARTESIAN_POINT('',(-6.425,-14.575,13.));
#1947=CARTESIAN_POINT('Origin',(6.575,-15.075,13.));
#1948=CARTESIAN_POINT('',(7.075,-15.075,13.));
#1949=CARTESIAN_POINT('Origin',(6.575,-15.075,13.));
#1950=CARTESIAN_POINT('',(7.075,-15.075,16.));
#1951=CARTESIAN_POINT('',(7.075,-15.075,13.));
#1952=CARTESIAN_POINT('Origin',(6.575,-15.075,16.));
#1953=CARTESIAN_POINT('Origin',(7.075,-28.075,13.));
#1954=CARTESIAN_POINT('',(7.075,-28.075,13.));
#1955=CARTESIAN_POINT('',(7.075,-14.0375,13.));
#1956=CARTESIAN_POINT('',(7.075,-28.075,16.));
#1957=CARTESIAN_POINT('',(7.075,-28.075,13.));
#1958=CARTESIAN_POINT('',(7.075,-14.0375,16.));
#1959=CARTESIAN_POINT('Origin',(6.575,-28.075,13.));
#1960=CARTESIAN_POINT('',(6.575,-28.575,13.));
#1961=CARTESIAN_POINT('Origin',(6.575,-28.075,13.));
#1962=CARTESIAN_POINT('',(6.575,-28.575,16.));
#1963=CARTESIAN_POINT('',(6.575,-28.575,13.));
#1964=CARTESIAN_POINT('Origin',(6.575,-28.075,16.));
#1965=CARTESIAN_POINT('Origin',(-6.425,-28.575,13.));
#1966=CARTESIAN_POINT('',(-6.425,-28.575,13.));
#1967=CARTESIAN_POINT('',(-3.2125,-28.575,13.));
#1968=CARTESIAN_POINT('',(-6.425,-28.575,16.));
#1969=CARTESIAN_POINT('',(-6.425,-28.575,13.));
#1970=CARTESIAN_POINT('',(-3.2125,-28.575,16.));
#1971=CARTESIAN_POINT('Origin',(-6.425,-28.075,13.));
#1972=CARTESIAN_POINT('',(-6.925,-28.075,13.));
#1973=CARTESIAN_POINT('Origin',(-6.425,-28.075,13.));
#1974=CARTESIAN_POINT('',(-6.925,-28.075,16.));
#1975=CARTESIAN_POINT('',(-6.925,-28.075,13.));
#1976=CARTESIAN_POINT('Origin',(-6.425,-28.075,16.));
#1977=CARTESIAN_POINT('Origin',(-6.925,-15.075,13.));
#1978=CARTESIAN_POINT('',(-6.925,-15.075,13.));
#1979=CARTESIAN_POINT('',(-6.925,-7.5375,13.));
#1980=CARTESIAN_POINT('',(-6.925,-15.075,16.));
#1981=CARTESIAN_POINT('',(-6.925,-15.075,13.));
#1982=CARTESIAN_POINT('',(-6.925,-7.5375,16.));
#1983=CARTESIAN_POINT('Origin',(-6.425,-15.075,13.));
#1984=CARTESIAN_POINT('Origin',(-6.425,-15.075,13.));
#1985=CARTESIAN_POINT('Origin',(-6.425,-15.075,16.));
#1986=CARTESIAN_POINT('Origin',(-12.475,9.819,13.));
#1987=CARTESIAN_POINT('',(-12.475,9.819,13.));
#1988=CARTESIAN_POINT('',(-25.475,9.819,13.));
#1989=CARTESIAN_POINT('',(-6.2375,9.819,13.));
#1990=CARTESIAN_POINT('',(-12.475,9.819,16.));
#1991=CARTESIAN_POINT('',(-12.475,9.819,13.));
#1992=CARTESIAN_POINT('',(-25.475,9.819,16.));
#1993=CARTESIAN_POINT('',(-6.2375,9.819,16.));
#1994=CARTESIAN_POINT('',(-25.475,9.819,13.));
#1995=CARTESIAN_POINT('Origin',(-12.475,9.319,13.));
#1996=CARTESIAN_POINT('',(-11.975,9.319,13.));
#1997=CARTESIAN_POINT('Origin',(-12.475,9.319,13.));
#1998=CARTESIAN_POINT('',(-11.975,9.319,16.));
#1999=CARTESIAN_POINT('',(-11.975,9.319,13.));
#2000=CARTESIAN_POINT('Origin',(-12.475,9.319,16.));
#2001=CARTESIAN_POINT('Origin',(-11.975,-3.681,13.));
#2002=CARTESIAN_POINT('',(-11.975,-3.681,13.));
#2003=CARTESIAN_POINT('',(-11.975,-1.8405,13.));
#2004=CARTESIAN_POINT('',(-11.975,-3.681,16.));
#2005=CARTESIAN_POINT('',(-11.975,-3.681,13.));
#2006=CARTESIAN_POINT('',(-11.975,-1.8405,16.));
#2007=CARTESIAN_POINT('Origin',(-12.475,-3.681,13.));
#2008=CARTESIAN_POINT('',(-12.475,-4.181,13.));
#2009=CARTESIAN_POINT('Origin',(-12.475,-3.681,13.));
#2010=CARTESIAN_POINT('',(-12.475,-4.181,16.));
#2011=CARTESIAN_POINT('',(-12.475,-4.181,13.));
#2012=CARTESIAN_POINT('Origin',(-12.475,-3.681,16.));
#2013=CARTESIAN_POINT('Origin',(-25.475,-4.181,13.));
#2014=CARTESIAN_POINT('',(-25.475,-4.181,13.));
#2015=CARTESIAN_POINT('',(-12.7375,-4.181,13.));
#2016=CARTESIAN_POINT('',(-25.475,-4.181,16.));
#2017=CARTESIAN_POINT('',(-25.475,-4.181,13.));
#2018=CARTESIAN_POINT('',(-12.7375,-4.181,16.));
#2019=CARTESIAN_POINT('Origin',(-25.475,-3.681,13.));
#2020=CARTESIAN_POINT('',(-25.975,-3.681,13.));
#2021=CARTESIAN_POINT('Origin',(-25.475,-3.681,13.));
#2022=CARTESIAN_POINT('',(-25.975,-3.681,16.));
#2023=CARTESIAN_POINT('',(-25.975,-3.681,13.));
#2024=CARTESIAN_POINT('Origin',(-25.475,-3.681,16.));
#2025=CARTESIAN_POINT('Origin',(-25.975,9.319,13.));
#2026=CARTESIAN_POINT('',(-25.975,9.319,13.));
#2027=CARTESIAN_POINT('',(-25.975,4.6595,13.));
#2028=CARTESIAN_POINT('',(-25.975,9.319,16.));
#2029=CARTESIAN_POINT('',(-25.975,9.319,13.));
#2030=CARTESIAN_POINT('',(-25.975,4.6595,16.));
#2031=CARTESIAN_POINT('Origin',(-25.475,9.319,13.));
#2032=CARTESIAN_POINT('Origin',(-25.475,9.319,13.));
#2033=CARTESIAN_POINT('Origin',(-25.475,9.319,16.));
#2034=CARTESIAN_POINT('Origin',(6.575,9.819,13.));
#2035=CARTESIAN_POINT('',(6.575,9.819,13.));
#2036=CARTESIAN_POINT('',(-6.425,9.819,13.));
#2037=CARTESIAN_POINT('',(3.2875,9.819,13.));
#2038=CARTESIAN_POINT('',(6.575,9.819,16.));
#2039=CARTESIAN_POINT('',(6.575,9.819,13.));
#2040=CARTESIAN_POINT('',(-6.425,9.819,16.));
#2041=CARTESIAN_POINT('',(3.2875,9.819,16.));
#2042=CARTESIAN_POINT('',(-6.425,9.819,13.));
#2043=CARTESIAN_POINT('Origin',(6.575,9.319,13.));
#2044=CARTESIAN_POINT('',(7.075,9.319,13.));
#2045=CARTESIAN_POINT('Origin',(6.575,9.319,13.));
#2046=CARTESIAN_POINT('',(7.075,9.319,16.));
#2047=CARTESIAN_POINT('',(7.075,9.319,13.));
#2048=CARTESIAN_POINT('Origin',(6.575,9.319,16.));
#2049=CARTESIAN_POINT('Origin',(7.075,-3.681,13.));
#2050=CARTESIAN_POINT('',(7.075,-3.681,13.));
#2051=CARTESIAN_POINT('',(7.075,-1.8405,13.));
#2052=CARTESIAN_POINT('',(7.075,-3.681,16.));
#2053=CARTESIAN_POINT('',(7.075,-3.681,13.));
#2054=CARTESIAN_POINT('',(7.075,-1.8405,16.));
#2055=CARTESIAN_POINT('Origin',(6.575,-3.681,13.));
#2056=CARTESIAN_POINT('',(6.575,-4.181,13.));
#2057=CARTESIAN_POINT('Origin',(6.575,-3.681,13.));
#2058=CARTESIAN_POINT('',(6.575,-4.181,16.));
#2059=CARTESIAN_POINT('',(6.575,-4.181,13.));
#2060=CARTESIAN_POINT('Origin',(6.575,-3.681,16.));
#2061=CARTESIAN_POINT('Origin',(-6.425,-4.181,13.));
#2062=CARTESIAN_POINT('',(-6.425,-4.181,13.));
#2063=CARTESIAN_POINT('',(-3.2125,-4.181,13.));
#2064=CARTESIAN_POINT('',(-6.425,-4.181,16.));
#2065=CARTESIAN_POINT('',(-6.425,-4.181,13.));
#2066=CARTESIAN_POINT('',(-3.2125,-4.181,16.));
#2067=CARTESIAN_POINT('Origin',(-6.425,-3.681,13.));
#2068=CARTESIAN_POINT('',(-6.925,-3.681,13.));
#2069=CARTESIAN_POINT('Origin',(-6.425,-3.681,13.));
#2070=CARTESIAN_POINT('',(-6.925,-3.681,16.));
#2071=CARTESIAN_POINT('',(-6.925,-3.681,13.));
#2072=CARTESIAN_POINT('Origin',(-6.425,-3.681,16.));
#2073=CARTESIAN_POINT('Origin',(-6.925,9.319,13.));
#2074=CARTESIAN_POINT('',(-6.925,9.319,13.));
#2075=CARTESIAN_POINT('',(-6.925,4.6595,13.));
#2076=CARTESIAN_POINT('',(-6.925,9.319,16.));
#2077=CARTESIAN_POINT('',(-6.925,9.319,13.));
#2078=CARTESIAN_POINT('',(-6.925,4.6595,16.));
#2079=CARTESIAN_POINT('Origin',(-6.425,9.319,13.));
#2080=CARTESIAN_POINT('Origin',(-6.425,9.319,13.));
#2081=CARTESIAN_POINT('Origin',(-6.425,9.319,16.));
#2082=CARTESIAN_POINT('Origin',(25.625,-14.575,13.));
#2083=CARTESIAN_POINT('',(25.625,-14.575,13.));
#2084=CARTESIAN_POINT('',(12.625,-14.575,13.));
#2085=CARTESIAN_POINT('',(12.8125,-14.575,13.));
#2086=CARTESIAN_POINT('',(25.625,-14.575,16.));
#2087=CARTESIAN_POINT('',(25.625,-14.575,13.));
#2088=CARTESIAN_POINT('',(12.625,-14.575,16.));
#2089=CARTESIAN_POINT('',(12.8125,-14.575,16.));
#2090=CARTESIAN_POINT('',(12.625,-14.575,13.));
#2091=CARTESIAN_POINT('Origin',(25.625,-15.075,13.));
#2092=CARTESIAN_POINT('',(26.125,-15.075,13.));
#2093=CARTESIAN_POINT('Origin',(25.625,-15.075,13.));
#2094=CARTESIAN_POINT('',(26.125,-15.075,16.));
#2095=CARTESIAN_POINT('',(26.125,-15.075,13.));
#2096=CARTESIAN_POINT('Origin',(25.625,-15.075,16.));
#2097=CARTESIAN_POINT('Origin',(26.125,-28.075,13.));
#2098=CARTESIAN_POINT('',(26.125,-28.075,13.));
#2099=CARTESIAN_POINT('',(26.125,-14.0375,13.));
#2100=CARTESIAN_POINT('',(26.125,-28.075,16.));
#2101=CARTESIAN_POINT('',(26.125,-28.075,13.));
#2102=CARTESIAN_POINT('',(26.125,-14.0375,16.));
#2103=CARTESIAN_POINT('Origin',(25.625,-28.075,13.));
#2104=CARTESIAN_POINT('',(25.625,-28.575,13.));
#2105=CARTESIAN_POINT('Origin',(25.625,-28.075,13.));
#2106=CARTESIAN_POINT('',(25.625,-28.575,16.));
#2107=CARTESIAN_POINT('',(25.625,-28.575,13.));
#2108=CARTESIAN_POINT('Origin',(25.625,-28.075,16.));
#2109=CARTESIAN_POINT('Origin',(12.625,-28.575,13.));
#2110=CARTESIAN_POINT('',(12.625,-28.575,13.));
#2111=CARTESIAN_POINT('',(6.3125,-28.575,13.));
#2112=CARTESIAN_POINT('',(12.625,-28.575,16.));
#2113=CARTESIAN_POINT('',(12.625,-28.575,13.));
#2114=CARTESIAN_POINT('',(6.3125,-28.575,16.));
#2115=CARTESIAN_POINT('Origin',(12.625,-28.075,13.));
#2116=CARTESIAN_POINT('',(12.125,-28.075,13.));
#2117=CARTESIAN_POINT('Origin',(12.625,-28.075,13.));
#2118=CARTESIAN_POINT('',(12.125,-28.075,16.));
#2119=CARTESIAN_POINT('',(12.125,-28.075,13.));
#2120=CARTESIAN_POINT('Origin',(12.625,-28.075,16.));
#2121=CARTESIAN_POINT('Origin',(12.125,-15.075,13.));
#2122=CARTESIAN_POINT('',(12.125,-15.075,13.));
#2123=CARTESIAN_POINT('',(12.125,-7.5375,13.));
#2124=CARTESIAN_POINT('',(12.125,-15.075,16.));
#2125=CARTESIAN_POINT('',(12.125,-15.075,13.));
#2126=CARTESIAN_POINT('',(12.125,-7.5375,16.));
#2127=CARTESIAN_POINT('Origin',(12.625,-15.075,13.));
#2128=CARTESIAN_POINT('Origin',(12.625,-15.075,13.));
#2129=CARTESIAN_POINT('Origin',(12.625,-15.075,16.));
#2130=CARTESIAN_POINT('Origin',(0.,0.,16.));
#2131=CARTESIAN_POINT('Origin',(0.,0.,13.));
#2132=UNCERTAINTY_MEASURE_WITH_UNIT(LENGTH_MEASURE(0.01),#2136,
'DISTANCE_ACCURACY_VALUE',
'Maximum model space distance between geometric entities at asserted c
onnectivities');
#2133=UNCERTAINTY_MEASURE_WITH_UNIT(LENGTH_MEASURE(0.01),#2136,
'DISTANCE_ACCURACY_VALUE',
'Maximum model space distance between geometric entities at asserted c
onnectivities');
#2134=(
GEOMETRIC_REPRESENTATION_CONTEXT(3)
GLOBAL_UNCERTAINTY_ASSIGNED_CONTEXT((#2132))
GLOBAL_UNIT_ASSIGNED_CONTEXT((#2136,#2138,#2139))
REPRESENTATION_CONTEXT('','3D')
);
#2135=(
GEOMETRIC_REPRESENTATION_CONTEXT(3)
GLOBAL_UNCERTAINTY_ASSIGNED_CONTEXT((#2133))
GLOBAL_UNIT_ASSIGNED_CONTEXT((#2136,#2138,#2139))
REPRESENTATION_CONTEXT('','3D')
);
#2136=(
LENGTH_UNIT()
NAMED_UNIT(*)
SI_UNIT(.MILLI.,.METRE.)
);
#2137=(
LENGTH_UNIT()
NAMED_UNIT(*)
SI_UNIT($,.METRE.)
);
#2138=(
NAMED_UNIT(*)
PLANE_ANGLE_UNIT()
SI_UNIT($,.RADIAN.)
);
#2139=(
NAMED_UNIT(*)
SI_UNIT($,.STERADIAN.)
SOLID_ANGLE_UNIT()
);
#2140=SHAPE_DEFINITION_REPRESENTATION(#2141,#2142);
#2141=PRODUCT_DEFINITION_SHAPE('',$,#2144);
#2142=SHAPE_REPRESENTATION('',(#1272),#2134);
#2143=PRODUCT_DEFINITION_CONTEXT('part definition',#2148,'design');
#2144=PRODUCT_DEFINITION('2026-08-15-19-19-58-362','HackPad Case',#2145,
#2143);
#2145=PRODUCT_DEFINITION_FORMATION('',$,#2150);
#2146=PRODUCT_RELATED_PRODUCT_CATEGORY('HackPad Case','HackPad Case',(#2150));
#2147=APPLICATION_PROTOCOL_DEFINITION('international standard',
'automotive_design',2009,#2148);
#2148=APPLICATION_CONTEXT(
'Core Data for Automotive Mechanical Design Process');
#2149=PRODUCT_CONTEXT('part definition',#2148,'mechanical');
#2150=PRODUCT('2026-08-15-19-19-58-362','HackPad Case',$,(#2149));
#2151=PRESENTATION_STYLE_ASSIGNMENT((#2152));
#2152=SURFACE_STYLE_USAGE(.BOTH.,#2153);
#2153=SURFACE_SIDE_STYLE('',(#2154));
#2154=SURFACE_STYLE_FILL_AREA(#2155);
#2155=FILL_AREA_STYLE('Steel - Satin',(#2156));
#2156=FILL_AREA_STYLE_COLOUR('Steel - Satin',#2157);
#2157=COLOUR_RGB('Steel - Satin',0.627450980392157,0.627450980392157,0.627450980392157);
ENDSEC;
END-ISO-10303-21;
